ply
format ascii 1.0
comment Generated from Goxel 0.10.6
element vertex 257
property float x
property float y
property float z
property float red
property float green
property float blue
element face 236
property list uchar int vertex_indices
end_header
4 3 0 0.984314 0.545098 0.000000
5 3 0 0.984314 0.545098 0.000000
5 3 1 0.984314 0.545098 0.000000
4 3 1 0.984314 0.545098 0.000000
5 4 0 0.984314 0.545098 0.000000
4 4 0 0.984314 0.545098 0.000000
4 4 1 0.984314 0.545098 0.000000
5 4 1 0.984314 0.545098 0.000000
6 3 0 0.984314 0.545098 0.000000
6 3 1 0.984314 0.545098 0.000000
6 4 0 0.984314 0.545098 0.000000
6 4 1 0.984314 0.545098 0.000000
7 3 0 0.984314 0.545098 0.000000
7 3 1 0.984314 0.545098 0.000000
7 4 0 0.984314 0.545098 0.000000
7 4 1 0.984314 0.545098 0.000000
4 6 0 0.984314 0.545098 0.000000
5 6 0 0.984314 0.545098 0.000000
5 6 1 0.984314 0.545098 0.000000
4 6 1 0.984314 0.545098 0.000000
5 7 0 0.984314 0.545098 0.000000
4 7 0 0.984314 0.545098 0.000000
4 7 1 0.984314 0.545098 0.000000
5 7 1 0.984314 0.545098 0.000000
6 6 0 0.984314 0.545098 0.000000
6 6 1 0.984314 0.545098 0.000000
6 7 0 0.984314 0.545098 0.000000
6 7 1 0.984314 0.545098 0.000000
7 6 0 0.984314 0.545098 0.000000
7 6 1 0.984314 0.545098 0.000000
7 7 0 0.984314 0.545098 0.000000
7 7 1 0.984314 0.545098 0.000000
5 3 2 0.984314 0.545098 0.000000
4 3 2 0.984314 0.545098 0.000000
4 4 2 0.984314 0.545098 0.000000
5 4 2 0.984314 0.545098 0.000000
5 6 2 0.984314 0.545098 0.000000
4 6 2 0.984314 0.545098 0.000000
4 7 2 0.984314 0.545098 0.000000
5 7 2 0.984314 0.545098 0.000000
4 3 2 1.000000 1.000000 0.000000
5 3 2 1.000000 1.000000 0.000000
5 3 3 1.000000 1.000000 0.000000
4 3 3 1.000000 1.000000 0.000000
4 4 3 1.000000 1.000000 0.000000
4 4 2 1.000000 1.000000 0.000000
6 3 2 1.000000 1.000000 0.000000
6 3 3 1.000000 1.000000 0.000000
5 4 2 1.000000 1.000000 0.000000
6 4 2 1.000000 1.000000 0.000000
6 4 3 1.000000 1.000000 0.000000
3 4 2 1.000000 1.000000 0.000000
3 4 3 1.000000 1.000000 0.000000
3 5 2 1.000000 1.000000 0.000000
4 5 2 1.000000 1.000000 0.000000
3 5 3 1.000000 1.000000 0.000000
5 5 2 1.000000 1.000000 0.000000
6 5 2 1.000000 1.000000 0.000000
7 4 2 1.000000 1.000000 0.000000
7 4 3 1.000000 1.000000 0.000000
7 5 2 1.000000 1.000000 0.000000
7 5 3 1.000000 1.000000 0.000000
4 6 2 1.000000 1.000000 0.000000
3 6 2 1.000000 1.000000 0.000000
3 6 3 1.000000 1.000000 0.000000
4 6 3 1.000000 1.000000 0.000000
5 6 2 1.000000 1.000000 0.000000
6 6 2 1.000000 1.000000 0.000000
7 6 2 1.000000 1.000000 0.000000
6 6 3 1.000000 1.000000 0.000000
7 6 3 1.000000 1.000000 0.000000
5 7 2 1.000000 1.000000 0.000000
4 7 2 1.000000 1.000000 0.000000
4 7 3 1.000000 1.000000 0.000000
5 7 3 1.000000 1.000000 0.000000
6 7 2 1.000000 1.000000 0.000000
6 7 3 1.000000 1.000000 0.000000
5 2 3 1.000000 1.000000 0.000000
6 2 3 1.000000 1.000000 0.000000
6 2 4 1.000000 1.000000 0.000000
5 2 4 1.000000 1.000000 0.000000
6 3 4 1.000000 1.000000 0.000000
5 3 4 1.000000 1.000000 0.000000
3 3 3 1.000000 1.000000 0.000000
4 3 4 1.000000 1.000000 0.000000
3 3 4 1.000000 1.000000 0.000000
3 4 4 1.000000 1.000000 0.000000
7 3 3 1.000000 1.000000 0.000000
7 3 4 1.000000 1.000000 0.000000
7 4 4 1.000000 1.000000 0.000000
2 4 3 1.000000 1.000000 0.000000
2 4 4 1.000000 1.000000 0.000000
2 5 3 1.000000 1.000000 0.000000
3 5 4 1.000000 1.000000 0.000000
2 5 4 1.000000 1.000000 0.000000
8 4 3 1.000000 1.000000 0.000000
8 4 4 1.000000 1.000000 0.000000
8 5 3 1.000000 1.000000 0.000000
8 5 4 1.000000 1.000000 0.000000
2 6 3 1.000000 1.000000 0.000000
2 6 4 1.000000 1.000000 0.000000
3 6 4 1.000000 1.000000 0.000000
8 6 3 1.000000 1.000000 0.000000
7 6 4 1.000000 1.000000 0.000000
8 6 4 1.000000 1.000000 0.000000
3 7 3 1.000000 1.000000 0.000000
3 7 4 1.000000 1.000000 0.000000
4 7 4 1.000000 1.000000 0.000000
5 7 4 1.000000 1.000000 0.000000
7 7 3 1.000000 1.000000 0.000000
6 7 4 1.000000 1.000000 0.000000
7 7 4 1.000000 1.000000 0.000000
6 8 3 1.000000 1.000000 0.000000
5 8 3 1.000000 1.000000 0.000000
5 8 4 1.000000 1.000000 0.000000
6 8 4 1.000000 1.000000 0.000000
4 2 4 1.000000 1.000000 0.000000
5 2 5 1.000000 1.000000 0.000000
4 2 5 1.000000 1.000000 0.000000
4 3 5 1.000000 1.000000 0.000000
6 2 5 1.000000 1.000000 0.000000
7 2 4 1.000000 1.000000 0.000000
7 2 5 1.000000 1.000000 0.000000
7 3 5 1.000000 1.000000 0.000000
6 3 5 1.000000 1.000000 0.000000
3 3 5 1.000000 1.000000 0.000000
3 4 5 1.000000 1.000000 0.000000
8 3 4 1.000000 1.000000 0.000000
8 3 5 1.000000 1.000000 0.000000
8 4 5 1.000000 1.000000 0.000000
3 5 5 1.000000 1.000000 0.000000
8 4 4 0.941176 0.647059 0.074510
9 4 4 0.941176 0.647059 0.074510
9 4 5 0.941176 0.647059 0.074510
8 4 5 0.941176 0.647059 0.074510
8 5 4 0.941176 0.647059 0.074510
9 5 4 0.941176 0.647059 0.074510
9 5 5 0.941176 0.647059 0.074510
8 5 5 0.941176 0.647059 0.074510
3 6 5 1.000000 1.000000 0.000000
9 6 4 0.941176 0.647059 0.074510
8 6 4 0.941176 0.647059 0.074510
8 6 5 0.941176 0.647059 0.074510
9 6 5 0.941176 0.647059 0.074510
3 7 5 1.000000 1.000000 0.000000
4 7 5 1.000000 1.000000 0.000000
4 6 5 1.000000 1.000000 0.000000
8 7 4 1.000000 1.000000 0.000000
7 7 5 1.000000 1.000000 0.000000
8 7 5 1.000000 1.000000 0.000000
8 6 5 1.000000 1.000000 0.000000
4 8 4 1.000000 1.000000 0.000000
4 8 5 1.000000 1.000000 0.000000
5 8 5 1.000000 1.000000 0.000000
6 8 5 1.000000 1.000000 0.000000
7 8 4 1.000000 1.000000 0.000000
7 8 5 1.000000 1.000000 0.000000
6 7 5 1.000000 1.000000 0.000000
5 2 6 1.000000 1.000000 0.000000
4 2 6 1.000000 1.000000 0.000000
5 3 6 1.000000 1.000000 0.000000
4 3 6 1.000000 1.000000 0.000000
6 2 6 1.000000 1.000000 0.000000
6 3 6 1.000000 1.000000 0.000000
3 3 6 1.000000 1.000000 0.000000
3 4 6 1.000000 1.000000 0.000000
7 3 6 1.000000 1.000000 0.000000
8 3 6 1.000000 1.000000 0.000000
8 4 6 1.000000 1.000000 0.000000
4 4 6 1.000000 1.000000 0.000000
4 5 6 1.000000 1.000000 0.000000
3 5 6 1.000000 1.000000 0.000000
5 4 6 1.000000 1.000000 0.000000
5 5 6 1.000000 1.000000 0.000000
8 5 5 1.000000 1.000000 0.000000
8 5 6 1.000000 1.000000 0.000000
3 6 6 1.000000 1.000000 0.000000
4 6 6 1.000000 1.000000 0.000000
5 6 6 1.000000 1.000000 0.000000
8 6 6 1.000000 1.000000 0.000000
4 7 6 1.000000 1.000000 0.000000
6 7 6 1.000000 1.000000 0.000000
7 7 6 1.000000 1.000000 0.000000
8 7 6 1.000000 1.000000 0.000000
4 8 6 1.000000 1.000000 0.000000
5 8 6 1.000000 1.000000 0.000000
5 7 6 1.000000 1.000000 0.000000
6 8 6 1.000000 1.000000 0.000000
4 3 7 1.000000 1.000000 0.000000
3 3 7 1.000000 1.000000 0.000000
3 4 7 1.000000 1.000000 0.000000
4 4 7 1.000000 1.000000 0.000000
5 3 7 1.000000 1.000000 0.000000
5 4 7 1.000000 1.000000 0.000000
6 3 7 1.000000 1.000000 0.000000
7 3 7 1.000000 1.000000 0.000000
8 3 7 1.000000 1.000000 0.000000
8 4 7 1.000000 1.000000 0.000000
7 4 7 1.000000 1.000000 0.000000
8 3 6 0.000000 0.000000 0.000000
9 3 6 0.000000 0.000000 0.000000
9 3 7 0.000000 0.000000 0.000000
8 3 7 0.000000 0.000000 0.000000
9 4 6 0.000000 0.000000 0.000000
8 4 6 0.000000 0.000000 0.000000
8 4 7 0.000000 0.000000 0.000000
9 4 7 0.000000 0.000000 0.000000
5 5 7 1.000000 1.000000 0.000000
8 5 7 1.000000 1.000000 0.000000
4 5 7 1.000000 1.000000 0.000000
3 5 7 1.000000 1.000000 0.000000
4 6 7 1.000000 1.000000 0.000000
3 6 7 1.000000 1.000000 0.000000
5 6 7 1.000000 1.000000 0.000000
8 6 7 1.000000 1.000000 0.000000
3 7 6 1.000000 1.000000 0.000000
3 7 7 1.000000 1.000000 0.000000
4 7 7 1.000000 1.000000 0.000000
5 7 7 1.000000 1.000000 0.000000
6 7 7 1.000000 1.000000 0.000000
7 7 7 1.000000 1.000000 0.000000
8 7 7 1.000000 1.000000 0.000000
7 6 7 1.000000 1.000000 0.000000
8 6 6 0.000000 0.000000 0.000000
9 6 6 0.000000 0.000000 0.000000
9 6 7 0.000000 0.000000 0.000000
8 6 7 0.000000 0.000000 0.000000
9 7 6 0.000000 0.000000 0.000000
8 7 6 0.000000 0.000000 0.000000
8 7 7 0.000000 0.000000 0.000000
9 7 7 0.000000 0.000000 0.000000
5 3 8 1.000000 1.000000 0.000000
4 3 8 1.000000 1.000000 0.000000
5 4 8 1.000000 1.000000 0.000000
4 4 8 1.000000 1.000000 0.000000
6 3 8 1.000000 1.000000 0.000000
6 4 8 1.000000 1.000000 0.000000
7 3 8 1.000000 1.000000 0.000000
7 4 8 1.000000 1.000000 0.000000
3 4 8 1.000000 1.000000 0.000000
4 5 8 1.000000 1.000000 0.000000
3 5 8 1.000000 1.000000 0.000000
5 5 8 1.000000 1.000000 0.000000
6 5 8 1.000000 1.000000 0.000000
7 5 8 1.000000 1.000000 0.000000
8 4 8 1.000000 1.000000 0.000000
8 5 8 1.000000 1.000000 0.000000
3 6 8 1.000000 1.000000 0.000000
4 6 8 1.000000 1.000000 0.000000
5 6 8 1.000000 1.000000 0.000000
6 6 8 1.000000 1.000000 0.000000
7 6 8 1.000000 1.000000 0.000000
8 6 8 1.000000 1.000000 0.000000
4 7 8 1.000000 1.000000 0.000000
5 7 8 1.000000 1.000000 0.000000
6 7 8 1.000000 1.000000 0.000000
7 7 8 1.000000 1.000000 0.000000
4 0 1 2 3
4 4 5 6 7
4 0 5 4 1
4 0 3 6 5
4 1 8 9 2
4 10 4 7 11
4 1 4 10 8
4 9 11 7 2
4 8 12 13 9
4 14 10 11 15
4 8 10 14 12
4 13 15 11 9
4 12 14 15 13
4 16 17 18 19
4 20 21 22 23
4 16 21 20 17
4 16 19 22 21
4 17 24 25 18
4 26 20 23 27
4 17 20 26 24
4 25 27 23 18
4 24 28 29 25
4 30 26 27 31
4 24 26 30 28
4 29 31 27 25
4 28 30 31 29
4 3 2 32 33
4 7 6 34 35
4 2 7 35 32
4 3 33 34 6
4 19 18 36 37
4 23 22 38 39
4 18 23 39 36
4 19 37 38 22
4 40 41 42 43
4 40 43 44 45
4 41 46 47 42
4 41 48 49 46
4 46 49 50 47
4 51 45 44 52
4 51 53 54 45
4 51 52 55 53
4 45 54 56 48
4 48 56 57 49
4 49 58 59 50
4 49 57 60 58
4 58 60 61 59
4 62 63 64 65
4 53 63 62 54
4 53 55 64 63
4 54 62 66 56
4 56 66 67 57
4 68 67 69 70
4 57 67 68 60
4 60 68 70 61
4 71 72 73 74
4 62 65 73 72
4 75 71 74 76
4 66 71 75 67
4 67 75 76 69
4 77 78 79 80
4 77 42 47 78
4 78 47 81 79
4 77 80 82 42
4 83 43 84 85
4 83 52 44 43
4 83 85 86 52
4 43 42 82 84
4 47 87 88 81
4 47 50 59 87
4 87 59 89 88
4 90 52 86 91
4 90 92 55 52
4 86 93 94 91
4 90 91 94 92
4 59 95 96 89
4 59 61 97 95
4 95 97 98 96
4 64 99 100 101
4 92 99 64 55
4 93 101 100 94
4 92 94 100 99
4 102 70 103 104
4 61 70 102 97
4 97 102 104 98
4 73 105 106 107
4 64 105 73 65
4 64 101 106 105
4 74 73 107 108
4 109 76 110 111
4 69 76 109 70
4 70 109 111 103
4 112 113 114 115
4 74 113 112 76
4 76 112 115 110
4 74 108 114 113
4 116 80 117 118
4 116 84 82 80
4 116 118 119 84
4 80 79 120 117
4 79 121 122 120
4 79 81 88 121
4 122 123 124 120
4 121 88 123 122
4 85 84 119 125
4 85 125 126 86
4 88 127 128 123
4 88 89 96 127
4 127 96 129 128
4 86 126 130 93
4 131 132 133 134
4 131 135 136 132
4 133 137 138 134
4 132 136 137 133
4 93 130 139 101
4 140 141 142 143
4 135 141 140 136
4 137 143 142 138
4 136 140 143 137
4 107 106 144 145
4 146 145 144 139
4 101 139 144 106
4 147 111 148 149
4 103 111 147 104
4 104 147 149 150
4 114 151 152 153
4 107 151 114 108
4 107 145 152 151
4 115 114 153 154
4 155 115 154 156
4 110 115 155 111
4 148 156 154 157
4 111 155 156 148
4 118 117 158 159
4 158 160 161 159
4 118 159 161 119
4 117 120 162 158
4 162 163 160 158
4 120 124 163 162
4 125 119 161 164
4 125 164 165 126
4 124 123 166 163
4 123 128 167 166
4 128 129 168 167
4 169 170 171 165
4 126 165 171 130
4 172 173 170 169
4 129 174 175 168
4 146 139 176 177
4 130 171 176 139
4 173 178 177 170
4 174 150 179 175
4 146 177 180 145
4 148 157 181 182
4 149 148 182 183
4 150 149 183 179
4 153 152 184 185
4 186 185 184 180
4 145 180 184 152
4 154 153 185 187
4 181 187 185 186
4 157 154 187 181
4 164 161 188 189
4 169 165 190 191
4 188 191 190 189
4 164 189 190 165
4 161 160 192 188
4 172 169 191 193
4 160 163 194 192
4 163 166 195 194
4 166 167 196 195
4 196 197 198 195
4 199 200 201 202
4 203 204 205 206
4 199 204 203 200
4 201 206 205 202
4 200 203 206 201
4 172 193 207 173
4 168 175 208 197
4 171 170 209 210
4 170 177 211 209
4 171 210 212 176
4 173 207 213 178
4 175 179 214 208
4 180 215 216 217
4 176 215 180 177
4 211 217 216 212
4 176 212 216 215
4 177 178 213 211
4 186 180 217 218
4 181 186 218 219
4 182 181 219 220
4 183 182 220 221
4 214 221 220 222
4 223 224 225 226
4 227 228 229 230
4 223 228 227 224
4 225 230 229 226
4 224 227 230 225
4 188 192 231 232
4 231 233 234 232
4 188 232 234 191
4 192 194 235 231
4 235 236 233 231
4 194 195 237 235
4 237 238 236 235
4 195 198 238 237
4 190 191 234 239
4 190 210 209 191
4 234 240 241 239
4 190 239 241 210
4 191 209 207 193
4 233 242 240 234
4 236 243 242 233
4 238 244 243 236
4 198 197 245 238
4 245 246 244 238
4 197 208 246 245
4 211 212 247 248
4 240 248 247 241
4 210 241 247 212
4 209 211 213 207
4 242 249 248 240
4 243 250 249 242
4 244 251 250 243
4 214 222 251 252
4 246 252 251 244
4 208 214 252 246
4 218 217 253 254
4 249 254 253 248
4 211 248 253 217
4 219 218 254 255
4 250 255 254 249
4 220 219 255 256
4 251 256 255 250
4 222 220 256 251
