ply
format ascii 1.0
comment Generated from Goxel 0.10.6
element vertex 364
property float x
property float y
property float z
property float red
property float green
property float blue
element face 308
property list uchar int vertex_indices
end_header
2 3 0 0.874510 0.443137 0.149020
3 3 0 0.874510 0.443137 0.149020
3 3 1 0.874510 0.443137 0.149020
2 3 1 0.874510 0.443137 0.149020
2 4 0 0.874510 0.443137 0.149020
3 4 0 0.874510 0.443137 0.149020
3 4 1 0.874510 0.443137 0.149020
2 4 1 0.874510 0.443137 0.149020
4 3 0 0.874510 0.443137 0.149020
5 3 0 0.874510 0.443137 0.149020
5 3 1 0.874510 0.443137 0.149020
4 3 1 0.874510 0.443137 0.149020
4 4 0 0.874510 0.443137 0.149020
5 4 0 0.874510 0.443137 0.149020
5 4 1 0.874510 0.443137 0.149020
4 4 1 0.874510 0.443137 0.149020
6 3 0 0.874510 0.443137 0.149020
7 3 0 0.874510 0.443137 0.149020
7 3 1 0.874510 0.443137 0.149020
6 3 1 0.874510 0.443137 0.149020
6 4 0 0.874510 0.443137 0.149020
7 4 0 0.874510 0.443137 0.149020
7 4 1 0.874510 0.443137 0.149020
6 4 1 0.874510 0.443137 0.149020
8 3 0 0.874510 0.443137 0.149020
9 3 0 0.874510 0.443137 0.149020
9 3 1 0.874510 0.443137 0.149020
8 3 1 0.874510 0.443137 0.149020
8 4 0 0.874510 0.443137 0.149020
9 4 0 0.874510 0.443137 0.149020
9 4 1 0.874510 0.443137 0.149020
8 4 1 0.874510 0.443137 0.149020
2 5 0 0.874510 0.443137 0.149020
3 5 0 0.874510 0.443137 0.149020
3 5 1 0.874510 0.443137 0.149020
2 5 1 0.874510 0.443137 0.149020
4 5 0 0.874510 0.443137 0.149020
5 5 0 0.874510 0.443137 0.149020
5 5 1 0.874510 0.443137 0.149020
4 5 1 0.874510 0.443137 0.149020
6 5 0 0.874510 0.443137 0.149020
7 5 0 0.874510 0.443137 0.149020
7 5 1 0.874510 0.443137 0.149020
6 5 1 0.874510 0.443137 0.149020
8 5 0 0.874510 0.443137 0.149020
9 5 0 0.874510 0.443137 0.149020
9 5 1 0.874510 0.443137 0.149020
8 5 1 0.874510 0.443137 0.149020
2 6 0 0.874510 0.443137 0.149020
3 6 0 0.874510 0.443137 0.149020
3 6 1 0.874510 0.443137 0.149020
2 6 1 0.874510 0.443137 0.149020
4 6 0 0.874510 0.443137 0.149020
4 6 1 0.874510 0.443137 0.149020
5 6 0 0.874510 0.443137 0.149020
5 6 1 0.874510 0.443137 0.149020
6 6 0 0.874510 0.443137 0.149020
7 6 0 0.874510 0.443137 0.149020
7 6 1 0.874510 0.443137 0.149020
6 6 1 0.874510 0.443137 0.149020
8 6 0 0.874510 0.443137 0.149020
8 6 1 0.874510 0.443137 0.149020
9 6 0 0.874510 0.443137 0.149020
9 6 1 0.874510 0.443137 0.149020
3 7 0 0.874510 0.443137 0.149020
2 7 0 0.874510 0.443137 0.149020
2 7 1 0.874510 0.443137 0.149020
3 7 1 0.874510 0.443137 0.149020
4 7 0 0.874510 0.443137 0.149020
4 7 1 0.874510 0.443137 0.149020
5 7 0 0.874510 0.443137 0.149020
5 7 1 0.874510 0.443137 0.149020
7 7 0 0.874510 0.443137 0.149020
6 7 0 0.874510 0.443137 0.149020
6 7 1 0.874510 0.443137 0.149020
7 7 1 0.874510 0.443137 0.149020
8 7 0 0.874510 0.443137 0.149020
8 7 1 0.874510 0.443137 0.149020
9 7 0 0.874510 0.443137 0.149020
9 7 1 0.874510 0.443137 0.149020
4 6 2 0.874510 0.443137 0.149020
3 6 2 0.874510 0.443137 0.149020
3 7 2 0.874510 0.443137 0.149020
4 7 2 0.874510 0.443137 0.149020
8 6 2 0.874510 0.443137 0.149020
7 6 2 0.874510 0.443137 0.149020
7 7 2 0.874510 0.443137 0.149020
8 7 2 0.874510 0.443137 0.149020
3 3 2 0.388235 0.607843 1.000000
4 3 2 0.388235 0.607843 1.000000
4 3 3 0.388235 0.607843 1.000000
3 3 3 0.388235 0.607843 1.000000
3 4 2 0.388235 0.607843 1.000000
4 4 2 0.388235 0.607843 1.000000
3 4 3 0.388235 0.607843 1.000000
4 3 2 0.796078 0.858824 0.988235
5 3 2 0.796078 0.858824 0.988235
5 3 3 0.796078 0.858824 0.988235
4 3 3 0.796078 0.858824 0.988235
4 4 2 0.796078 0.858824 0.988235
5 4 2 0.796078 0.858824 0.988235
6 3 2 0.796078 0.858824 0.988235
6 3 3 0.796078 0.858824 0.988235
6 4 2 0.796078 0.858824 0.988235
7 3 2 0.796078 0.858824 0.988235
7 3 3 0.796078 0.858824 0.988235
7 4 2 0.796078 0.858824 0.988235
7 3 2 0.388235 0.607843 1.000000
8 3 2 0.388235 0.607843 1.000000
8 3 3 0.388235 0.607843 1.000000
7 3 3 0.388235 0.607843 1.000000
7 4 2 0.388235 0.607843 1.000000
8 4 2 0.388235 0.607843 1.000000
8 4 3 0.388235 0.607843 1.000000
3 5 2 0.388235 0.607843 1.000000
4 5 2 0.388235 0.607843 1.000000
3 5 3 0.388235 0.607843 1.000000
5 5 2 0.388235 0.607843 1.000000
5 4 2 0.388235 0.607843 1.000000
6 5 2 0.388235 0.607843 1.000000
6 4 2 0.388235 0.607843 1.000000
7 5 2 0.388235 0.607843 1.000000
8 5 2 0.388235 0.607843 1.000000
8 5 3 0.388235 0.607843 1.000000
3 6 2 0.388235 0.607843 1.000000
4 6 2 0.388235 0.607843 1.000000
3 6 3 0.388235 0.607843 1.000000
5 6 2 0.388235 0.607843 1.000000
6 6 2 0.388235 0.607843 1.000000
7 6 2 0.388235 0.607843 1.000000
8 6 2 0.388235 0.607843 1.000000
8 6 3 0.388235 0.607843 1.000000
4 7 2 0.388235 0.607843 1.000000
3 7 2 0.388235 0.607843 1.000000
3 7 3 0.388235 0.607843 1.000000
4 7 3 0.388235 0.607843 1.000000
5 7 2 0.388235 0.607843 1.000000
6 7 2 0.388235 0.607843 1.000000
7 7 2 0.388235 0.607843 1.000000
8 7 2 0.388235 0.607843 1.000000
7 7 3 0.388235 0.607843 1.000000
8 7 3 0.388235 0.607843 1.000000
5 8 2 0.388235 0.607843 1.000000
4 8 2 0.388235 0.607843 1.000000
4 8 3 0.388235 0.607843 1.000000
5 8 3 0.388235 0.607843 1.000000
5 7 3 0.388235 0.607843 1.000000
6 8 2 0.388235 0.607843 1.000000
6 8 3 0.388235 0.607843 1.000000
6 7 3 0.388235 0.607843 1.000000
7 8 2 0.388235 0.607843 1.000000
7 8 3 0.388235 0.607843 1.000000
4 3 4 0.388235 0.607843 1.000000
3 3 4 0.388235 0.607843 1.000000
3 4 4 0.388235 0.607843 1.000000
5 3 4 0.796078 0.858824 0.988235
4 3 4 0.796078 0.858824 0.988235
6 3 4 0.796078 0.858824 0.988235
7 3 4 0.796078 0.858824 0.988235
8 3 4 0.388235 0.607843 1.000000
7 3 4 0.388235 0.607843 1.000000
8 4 4 0.388235 0.607843 1.000000
2 4 3 0.388235 0.607843 1.000000
2 4 4 0.388235 0.607843 1.000000
2 5 3 0.388235 0.607843 1.000000
2 5 4 0.388235 0.607843 1.000000
9 4 3 0.388235 0.607843 1.000000
9 4 4 0.388235 0.607843 1.000000
9 5 3 0.388235 0.607843 1.000000
9 5 4 0.388235 0.607843 1.000000
2 6 3 0.388235 0.607843 1.000000
2 6 4 0.388235 0.607843 1.000000
3 6 4 0.388235 0.607843 1.000000
9 6 3 0.388235 0.607843 1.000000
8 6 4 0.388235 0.607843 1.000000
9 6 4 0.388235 0.607843 1.000000
3 7 4 0.388235 0.607843 1.000000
4 7 4 0.388235 0.607843 1.000000
5 7 4 0.388235 0.607843 1.000000
6 7 4 0.388235 0.607843 1.000000
7 7 4 0.388235 0.607843 1.000000
8 7 4 0.388235 0.607843 1.000000
4 3 5 0.388235 0.607843 1.000000
3 3 5 0.388235 0.607843 1.000000
3 4 5 0.388235 0.607843 1.000000
5 3 5 0.796078 0.858824 0.988235
4 3 5 0.796078 0.858824 0.988235
6 3 5 0.796078 0.858824 0.988235
7 3 5 0.796078 0.858824 0.988235
8 3 5 0.388235 0.607843 1.000000
7 3 5 0.388235 0.607843 1.000000
8 4 5 0.388235 0.607843 1.000000
2 4 5 0.388235 0.607843 1.000000
2 5 5 0.388235 0.607843 1.000000
9 4 5 0.388235 0.607843 1.000000
9 5 5 0.388235 0.607843 1.000000
2 6 5 0.388235 0.607843 1.000000
3 6 5 0.388235 0.607843 1.000000
8 6 5 0.388235 0.607843 1.000000
9 6 5 0.388235 0.607843 1.000000
3 7 5 0.388235 0.607843 1.000000
4 7 5 0.388235 0.607843 1.000000
5 7 5 0.388235 0.607843 1.000000
6 7 5 0.388235 0.607843 1.000000
7 7 5 0.388235 0.607843 1.000000
8 7 5 0.388235 0.607843 1.000000
4 3 6 0.388235 0.607843 1.000000
3 3 6 0.388235 0.607843 1.000000
3 4 6 0.388235 0.607843 1.000000
5 3 6 0.796078 0.858824 0.988235
4 3 6 0.796078 0.858824 0.988235
6 3 6 0.796078 0.858824 0.988235
7 3 6 0.796078 0.858824 0.988235
8 3 6 0.388235 0.607843 1.000000
7 3 6 0.388235 0.607843 1.000000
8 4 6 0.388235 0.607843 1.000000
2 4 6 0.388235 0.607843 1.000000
3 5 6 0.388235 0.607843 1.000000
2 5 6 0.388235 0.607843 1.000000
9 4 6 0.388235 0.607843 1.000000
9 5 6 0.388235 0.607843 1.000000
8 5 6 0.388235 0.607843 1.000000
2 6 6 0.388235 0.607843 1.000000
3 6 6 0.388235 0.607843 1.000000
8 6 6 0.388235 0.607843 1.000000
9 6 6 0.388235 0.607843 1.000000
3 7 6 0.388235 0.607843 1.000000
4 7 6 0.388235 0.607843 1.000000
5 7 6 0.388235 0.607843 1.000000
6 7 6 0.388235 0.607843 1.000000
7 7 6 0.388235 0.607843 1.000000
8 7 6 0.388235 0.607843 1.000000
4 3 7 0.388235 0.607843 1.000000
3 3 7 0.388235 0.607843 1.000000
3 4 7 0.388235 0.607843 1.000000
5 3 6 0.388235 0.607843 1.000000
5 3 7 0.388235 0.607843 1.000000
6 3 6 0.388235 0.607843 1.000000
6 3 7 0.388235 0.607843 1.000000
7 3 7 0.388235 0.607843 1.000000
8 3 7 0.388235 0.607843 1.000000
8 4 7 0.388235 0.607843 1.000000
3 5 7 0.388235 0.607843 1.000000
8 5 7 0.388235 0.607843 1.000000
3 6 7 0.388235 0.607843 1.000000
8 6 7 0.388235 0.607843 1.000000
3 7 7 0.388235 0.607843 1.000000
4 7 7 0.388235 0.607843 1.000000
5 7 7 0.388235 0.607843 1.000000
6 7 7 0.388235 0.607843 1.000000
7 7 7 0.388235 0.607843 1.000000
8 7 7 0.388235 0.607843 1.000000
4 1 7 0.874510 0.443137 0.149020
5 1 7 0.874510 0.443137 0.149020
5 1 8 0.874510 0.443137 0.149020
4 1 8 0.874510 0.443137 0.149020
4 2 7 0.874510 0.443137 0.149020
5 2 7 0.874510 0.443137 0.149020
5 2 8 0.874510 0.443137 0.149020
4 2 8 0.874510 0.443137 0.149020
6 1 7 0.874510 0.443137 0.149020
6 1 8 0.874510 0.443137 0.149020
6 2 7 0.874510 0.443137 0.149020
6 2 8 0.874510 0.443137 0.149020
7 1 7 0.874510 0.443137 0.149020
7 1 8 0.874510 0.443137 0.149020
7 2 7 0.874510 0.443137 0.149020
7 2 8 0.874510 0.443137 0.149020
4 3 7 0.874510 0.443137 0.149020
5 3 7 0.874510 0.443137 0.149020
5 3 8 0.874510 0.443137 0.149020
4 3 8 0.874510 0.443137 0.149020
6 3 7 0.874510 0.443137 0.149020
6 3 8 0.874510 0.443137 0.149020
7 3 7 0.874510 0.443137 0.149020
7 3 8 0.874510 0.443137 0.149020
4 3 8 0.388235 0.607843 1.000000
3 3 8 0.388235 0.607843 1.000000
3 4 8 0.388235 0.607843 1.000000
8 3 8 0.388235 0.607843 1.000000
7 3 8 0.388235 0.607843 1.000000
8 4 8 0.388235 0.607843 1.000000
3 4 7 0.000000 0.000000 0.000000
3 4 8 0.000000 0.000000 0.000000
3 5 8 0.000000 0.000000 0.000000
3 5 7 0.000000 0.000000 0.000000
8 4 7 0.000000 0.000000 0.000000
8 5 7 0.000000 0.000000 0.000000
8 5 8 0.000000 0.000000 0.000000
8 4 8 0.000000 0.000000 0.000000
3 6 8 0.000000 0.000000 0.000000
3 6 7 0.000000 0.000000 0.000000
8 6 7 0.000000 0.000000 0.000000
8 6 8 0.000000 0.000000 0.000000
3 7 8 0.388235 0.607843 1.000000
4 7 8 0.388235 0.607843 1.000000
3 6 8 0.388235 0.607843 1.000000
5 7 8 0.388235 0.607843 1.000000
6 7 8 0.388235 0.607843 1.000000
7 7 8 0.388235 0.607843 1.000000
8 7 8 0.388235 0.607843 1.000000
8 6 8 0.388235 0.607843 1.000000
4 3 9 0.388235 0.607843 1.000000
3 3 9 0.388235 0.607843 1.000000
3 4 9 0.388235 0.607843 1.000000
5 3 8 0.388235 0.607843 1.000000
5 3 9 0.388235 0.607843 1.000000
6 3 8 0.388235 0.607843 1.000000
6 3 9 0.388235 0.607843 1.000000
7 3 9 0.388235 0.607843 1.000000
8 3 9 0.388235 0.607843 1.000000
8 4 9 0.388235 0.607843 1.000000
3 4 9 0.000000 0.000000 0.000000
3 5 9 0.000000 0.000000 0.000000
8 5 9 0.000000 0.000000 0.000000
8 4 9 0.000000 0.000000 0.000000
3 5 8 0.796078 0.858824 0.988235
3 5 9 0.796078 0.858824 0.988235
3 6 9 0.796078 0.858824 0.988235
3 6 8 0.796078 0.858824 0.988235
8 5 8 0.796078 0.858824 0.988235
8 6 8 0.796078 0.858824 0.988235
8 6 9 0.796078 0.858824 0.988235
8 5 9 0.796078 0.858824 0.988235
3 7 9 0.388235 0.607843 1.000000
4 7 9 0.388235 0.607843 1.000000
3 6 9 0.388235 0.607843 1.000000
5 7 9 0.388235 0.607843 1.000000
6 7 9 0.388235 0.607843 1.000000
7 7 9 0.388235 0.607843 1.000000
8 7 9 0.388235 0.607843 1.000000
8 6 9 0.388235 0.607843 1.000000
4 3 10 0.388235 0.607843 1.000000
3 3 10 0.388235 0.607843 1.000000
4 4 10 0.388235 0.607843 1.000000
3 4 10 0.388235 0.607843 1.000000
5 3 10 0.388235 0.607843 1.000000
5 4 10 0.388235 0.607843 1.000000
6 3 10 0.388235 0.607843 1.000000
6 4 10 0.388235 0.607843 1.000000
7 3 10 0.388235 0.607843 1.000000
7 4 10 0.388235 0.607843 1.000000
8 3 10 0.388235 0.607843 1.000000
8 4 10 0.388235 0.607843 1.000000
4 5 10 0.388235 0.607843 1.000000
3 5 10 0.388235 0.607843 1.000000
3 5 9 0.388235 0.607843 1.000000
5 5 10 0.388235 0.607843 1.000000
6 5 10 0.388235 0.607843 1.000000
7 5 10 0.388235 0.607843 1.000000
8 5 10 0.388235 0.607843 1.000000
8 5 9 0.388235 0.607843 1.000000
4 6 10 0.388235 0.607843 1.000000
3 6 10 0.388235 0.607843 1.000000
5 6 10 0.388235 0.607843 1.000000
6 6 10 0.388235 0.607843 1.000000
7 6 10 0.388235 0.607843 1.000000
8 6 10 0.388235 0.607843 1.000000
3 7 10 0.388235 0.607843 1.000000
4 7 10 0.388235 0.607843 1.000000
5 7 10 0.388235 0.607843 1.000000
6 7 10 0.388235 0.607843 1.000000
7 7 10 0.388235 0.607843 1.000000
8 7 10 0.388235 0.607843 1.000000
4 0 1 2 3
4 0 4 5 1
4 2 6 7 3
4 1 5 6 2
4 0 3 7 4
4 8 9 10 11
4 8 12 13 9
4 10 14 15 11
4 9 13 14 10
4 8 11 15 12
4 16 17 18 19
4 16 20 21 17
4 18 22 23 19
4 17 21 22 18
4 16 19 23 20
4 24 25 26 27
4 24 28 29 25
4 26 30 31 27
4 25 29 30 26
4 24 27 31 28
4 4 32 33 5
4 6 34 35 7
4 5 33 34 6
4 4 7 35 32
4 12 36 37 13
4 14 38 39 15
4 13 37 38 14
4 12 15 39 36
4 20 40 41 21
4 22 42 43 23
4 21 41 42 22
4 20 23 43 40
4 28 44 45 29
4 30 46 47 31
4 29 45 46 30
4 28 31 47 44
4 32 48 49 33
4 34 50 51 35
4 32 35 51 48
4 33 36 39 34
4 33 49 52 36
4 39 53 50 34
4 36 52 54 37
4 38 55 53 39
4 37 54 55 38
4 40 56 57 41
4 42 58 59 43
4 40 43 59 56
4 41 44 47 42
4 41 57 60 44
4 47 61 58 42
4 44 60 62 45
4 46 63 61 47
4 45 62 63 46
4 64 65 66 67
4 48 65 64 49
4 50 67 66 51
4 48 51 66 65
4 68 64 67 69
4 49 64 68 52
4 70 68 69 71
4 52 68 70 54
4 55 71 69 53
4 54 70 71 55
4 72 73 74 75
4 56 73 72 57
4 58 75 74 59
4 56 59 74 73
4 76 72 75 77
4 57 72 76 60
4 78 76 77 79
4 60 76 78 62
4 63 79 77 61
4 62 78 79 63
4 50 53 80 81
4 69 67 82 83
4 53 69 83 80
4 50 81 82 67
4 58 61 84 85
4 77 75 86 87
4 61 77 87 84
4 58 85 86 75
4 88 89 90 91
4 88 92 93 89
4 88 91 94 92
4 95 96 97 98
4 95 99 100 96
4 96 101 102 97
4 96 100 103 101
4 101 104 105 102
4 101 103 106 104
4 107 108 109 110
4 107 111 112 108
4 108 112 113 109
4 92 114 115 93
4 92 94 116 114
4 93 115 117 118
4 118 117 119 120
4 120 119 121 111
4 111 121 122 112
4 112 122 123 113
4 114 124 125 115
4 114 116 126 124
4 115 125 127 117
4 117 127 128 119
4 119 128 129 121
4 121 129 130 122
4 122 130 131 123
4 132 133 134 135
4 124 126 134 133
4 125 132 136 127
4 127 136 137 128
4 128 137 138 129
4 139 138 140 141
4 130 139 141 131
4 142 143 144 145
4 132 143 142 136
4 146 145 144 135
4 132 135 144 143
4 147 142 145 148
4 136 142 147 137
4 149 148 145 146
4 150 147 148 151
4 137 147 150 138
4 140 151 148 149
4 138 150 151 140
4 91 90 152 153
4 91 153 154 94
4 98 97 155 156
4 97 102 157 155
4 102 105 158 157
4 110 109 159 160
4 109 113 161 159
4 162 94 154 163
4 162 164 116 94
4 162 163 165 164
4 113 166 167 161
4 113 123 168 166
4 166 168 169 167
4 126 170 171 172
4 164 170 126 116
4 164 165 171 170
4 173 131 174 175
4 123 131 173 168
4 168 173 175 169
4 135 134 176 177
4 126 172 176 134
4 146 135 177 178
4 149 146 178 179
4 140 149 179 180
4 141 140 180 181
4 131 141 181 174
4 153 152 182 183
4 153 183 184 154
4 156 155 185 186
4 155 157 187 185
4 157 158 188 187
4 160 159 189 190
4 159 161 191 189
4 163 154 184 192
4 163 192 193 165
4 161 167 194 191
4 167 169 195 194
4 172 171 196 197
4 165 193 196 171
4 175 174 198 199
4 169 175 199 195
4 177 176 200 201
4 172 197 200 176
4 178 177 201 202
4 179 178 202 203
4 180 179 203 204
4 181 180 204 205
4 174 181 205 198
4 183 182 206 207
4 183 207 208 184
4 186 185 209 210
4 185 187 211 209
4 187 188 212 211
4 190 189 213 214
4 189 191 215 213
4 192 184 208 216
4 208 217 218 216
4 192 216 218 193
4 191 194 219 215
4 219 220 221 215
4 194 195 220 219
4 197 196 222 223
4 217 223 222 218
4 193 218 222 196
4 199 198 224 225
4 220 225 224 221
4 195 199 225 220
4 201 200 226 227
4 197 223 226 200
4 202 201 227 228
4 203 202 228 229
4 204 203 229 230
4 205 204 230 231
4 198 205 231 224
4 207 206 232 233
4 207 233 234 208
4 206 235 236 232
4 235 237 238 236
4 237 214 239 238
4 214 213 240 239
4 213 215 241 240
4 208 234 242 217
4 215 221 243 241
4 217 242 244 223
4 221 224 245 243
4 227 226 246 247
4 223 244 246 226
4 228 227 247 248
4 229 228 248 249
4 230 229 249 250
4 231 230 250 251
4 224 231 251 245
4 252 253 254 255
4 252 256 257 253
4 254 258 259 255
4 252 255 259 256
4 253 260 261 254
4 253 257 262 260
4 261 263 258 254
4 260 264 265 261
4 260 262 266 264
4 265 267 263 261
4 264 266 267 265
4 256 268 269 257
4 258 270 271 259
4 256 259 271 268
4 257 269 272 262
4 263 273 270 258
4 262 272 274 266
4 267 275 273 263
4 266 274 275 267
4 233 232 276 277
4 233 277 278 234
4 239 240 279 280
4 240 241 281 279
4 282 283 284 285
4 286 287 288 289
4 285 284 290 291
4 287 292 293 288
4 247 246 294 295
4 244 296 294 246
4 248 247 295 297
4 249 248 297 298
4 250 249 298 299
4 251 250 299 300
4 245 251 300 301
4 277 276 302 303
4 277 303 304 278
4 276 305 306 302
4 305 307 308 306
4 307 280 309 308
4 280 279 310 309
4 279 281 311 310
4 283 312 313 284
4 289 288 314 315
4 316 317 318 319
4 320 321 322 323
4 295 294 324 325
4 296 326 324 294
4 297 295 325 327
4 298 297 327 328
4 299 298 328 329
4 300 299 329 330
4 301 300 330 331
4 303 302 332 333
4 332 334 335 333
4 303 333 335 304
4 302 306 336 332
4 336 337 334 332
4 306 308 338 336
4 338 339 337 336
4 308 309 340 338
4 340 341 339 338
4 309 310 342 340
4 342 343 341 340
4 310 311 343 342
4 334 344 345 335
4 304 335 345 346
4 337 347 344 334
4 339 348 347 337
4 341 349 348 339
4 343 350 349 341
4 311 351 350 343
4 344 352 353 345
4 346 345 353 326
4 347 354 352 344
4 348 355 354 347
4 349 356 355 348
4 350 357 356 349
4 351 331 357 350
4 325 324 358 359
4 352 359 358 353
4 326 353 358 324
4 327 325 359 360
4 354 360 359 352
4 328 327 360 361
4 355 361 360 354
4 329 328 361 362
4 356 362 361 355
4 330 329 362 363
4 357 363 362 356
4 331 330 363 357
