ply
format ascii 1.0
comment Generated from Goxel 0.10.6
element vertex 512
property float x
property float y
property float z
property float red
property float green
property float blue
element face 412
property list uchar int vertex_indices
end_header
2 2 0 1.000000 1.000000 1.000000
3 2 0 1.000000 1.000000 1.000000
3 2 1 1.000000 1.000000 1.000000
2 2 1 1.000000 1.000000 1.000000
3 3 0 1.000000 1.000000 1.000000
2 3 0 1.000000 1.000000 1.000000
2 3 1 1.000000 1.000000 1.000000
3 3 1 1.000000 1.000000 1.000000
8 2 0 1.000000 1.000000 1.000000
9 2 0 1.000000 1.000000 1.000000
9 2 1 1.000000 1.000000 1.000000
8 2 1 1.000000 1.000000 1.000000
9 3 0 1.000000 1.000000 1.000000
8 3 0 1.000000 1.000000 1.000000
8 3 1 1.000000 1.000000 1.000000
9 3 1 1.000000 1.000000 1.000000
2 9 0 1.000000 1.000000 1.000000
3 9 0 1.000000 1.000000 1.000000
3 9 1 1.000000 1.000000 1.000000
2 9 1 1.000000 1.000000 1.000000
3 10 0 1.000000 1.000000 1.000000
2 10 0 1.000000 1.000000 1.000000
2 10 1 1.000000 1.000000 1.000000
3 10 1 1.000000 1.000000 1.000000
8 9 0 1.000000 1.000000 1.000000
9 9 0 1.000000 1.000000 1.000000
9 9 1 1.000000 1.000000 1.000000
8 9 1 1.000000 1.000000 1.000000
9 10 0 1.000000 1.000000 1.000000
8 10 0 1.000000 1.000000 1.000000
8 10 1 1.000000 1.000000 1.000000
9 10 1 1.000000 1.000000 1.000000
2 2 1 0.517647 0.494118 0.529412
3 2 1 0.517647 0.494118 0.529412
3 2 2 0.517647 0.494118 0.529412
2 2 2 0.517647 0.494118 0.529412
2 3 2 0.517647 0.494118 0.529412
2 3 1 0.517647 0.494118 0.529412
4 2 1 0.517647 0.494118 0.529412
4 2 2 0.517647 0.494118 0.529412
3 3 1 0.517647 0.494118 0.529412
4 3 1 0.517647 0.494118 0.529412
4 2 1 1.000000 1.000000 1.000000
5 2 1 1.000000 1.000000 1.000000
5 2 2 1.000000 1.000000 1.000000
4 2 2 1.000000 1.000000 1.000000
4 3 1 1.000000 1.000000 1.000000
5 3 1 1.000000 1.000000 1.000000
6 2 1 1.000000 1.000000 1.000000
6 2 2 1.000000 1.000000 1.000000
6 3 1 1.000000 1.000000 1.000000
7 2 1 1.000000 1.000000 1.000000
7 2 2 1.000000 1.000000 1.000000
7 3 1 1.000000 1.000000 1.000000
7 2 1 0.517647 0.494118 0.529412
8 2 1 0.517647 0.494118 0.529412
8 2 2 0.517647 0.494118 0.529412
7 2 2 0.517647 0.494118 0.529412
7 3 1 0.517647 0.494118 0.529412
8 3 1 0.517647 0.494118 0.529412
9 2 1 0.517647 0.494118 0.529412
9 2 2 0.517647 0.494118 0.529412
9 3 1 0.517647 0.494118 0.529412
9 3 2 0.517647 0.494118 0.529412
2 4 1 0.517647 0.494118 0.529412
3 4 1 0.517647 0.494118 0.529412
2 4 2 0.517647 0.494118 0.529412
4 4 1 0.517647 0.494118 0.529412
5 4 1 0.517647 0.494118 0.529412
5 3 1 0.517647 0.494118 0.529412
6 4 1 0.517647 0.494118 0.529412
6 3 1 0.517647 0.494118 0.529412
7 4 1 0.517647 0.494118 0.529412
8 4 1 0.517647 0.494118 0.529412
9 4 1 0.517647 0.494118 0.529412
9 4 2 0.517647 0.494118 0.529412
2 5 1 0.517647 0.494118 0.529412
3 5 1 0.517647 0.494118 0.529412
2 5 2 0.517647 0.494118 0.529412
4 5 1 0.517647 0.494118 0.529412
5 5 1 0.517647 0.494118 0.529412
6 5 1 0.517647 0.494118 0.529412
7 5 1 0.517647 0.494118 0.529412
8 5 1 0.517647 0.494118 0.529412
9 5 1 0.517647 0.494118 0.529412
9 5 2 0.517647 0.494118 0.529412
2 6 1 0.517647 0.494118 0.529412
3 6 1 0.517647 0.494118 0.529412
2 6 2 0.517647 0.494118 0.529412
4 6 1 0.517647 0.494118 0.529412
5 6 1 0.517647 0.494118 0.529412
6 6 1 0.517647 0.494118 0.529412
7 6 1 0.517647 0.494118 0.529412
8 6 1 0.517647 0.494118 0.529412
9 6 1 0.517647 0.494118 0.529412
9 6 2 0.517647 0.494118 0.529412
2 7 1 0.517647 0.494118 0.529412
3 7 1 0.517647 0.494118 0.529412
2 7 2 0.517647 0.494118 0.529412
4 7 1 0.517647 0.494118 0.529412
5 7 1 0.517647 0.494118 0.529412
6 7 1 0.517647 0.494118 0.529412
7 7 1 0.517647 0.494118 0.529412
8 7 1 0.517647 0.494118 0.529412
9 7 1 0.517647 0.494118 0.529412
9 7 2 0.517647 0.494118 0.529412
2 8 1 0.517647 0.494118 0.529412
3 8 1 0.517647 0.494118 0.529412
2 8 2 0.517647 0.494118 0.529412
4 8 1 0.517647 0.494118 0.529412
5 8 1 0.517647 0.494118 0.529412
6 8 1 0.517647 0.494118 0.529412
7 8 1 0.517647 0.494118 0.529412
8 8 1 0.517647 0.494118 0.529412
9 8 1 0.517647 0.494118 0.529412
9 8 2 0.517647 0.494118 0.529412
2 9 1 0.517647 0.494118 0.529412
3 9 1 0.517647 0.494118 0.529412
2 9 2 0.517647 0.494118 0.529412
4 9 1 0.517647 0.494118 0.529412
5 9 1 0.517647 0.494118 0.529412
6 9 1 0.517647 0.494118 0.529412
7 9 1 0.517647 0.494118 0.529412
8 9 1 0.517647 0.494118 0.529412
9 9 1 0.517647 0.494118 0.529412
9 9 2 0.517647 0.494118 0.529412
3 10 1 0.517647 0.494118 0.529412
2 10 1 0.517647 0.494118 0.529412
2 10 2 0.517647 0.494118 0.529412
3 10 2 0.517647 0.494118 0.529412
4 10 1 0.517647 0.494118 0.529412
4 10 2 0.517647 0.494118 0.529412
5 10 1 0.517647 0.494118 0.529412
5 10 2 0.517647 0.494118 0.529412
6 10 1 0.517647 0.494118 0.529412
6 10 2 0.517647 0.494118 0.529412
7 10 1 0.517647 0.494118 0.529412
7 10 2 0.517647 0.494118 0.529412
8 10 1 0.517647 0.494118 0.529412
8 10 2 0.517647 0.494118 0.529412
9 10 1 0.517647 0.494118 0.529412
9 10 2 0.517647 0.494118 0.529412
3 2 3 0.517647 0.494118 0.529412
2 2 3 0.517647 0.494118 0.529412
2 3 3 0.517647 0.494118 0.529412
4 2 3 0.517647 0.494118 0.529412
5 2 3 1.000000 1.000000 1.000000
4 2 3 1.000000 1.000000 1.000000
6 2 3 1.000000 1.000000 1.000000
7 2 3 1.000000 1.000000 1.000000
8 2 3 0.517647 0.494118 0.529412
7 2 3 0.517647 0.494118 0.529412
9 2 3 0.517647 0.494118 0.529412
9 3 3 0.517647 0.494118 0.529412
2 4 3 0.517647 0.494118 0.529412
9 4 3 0.517647 0.494118 0.529412
2 5 3 0.517647 0.494118 0.529412
9 5 3 0.517647 0.494118 0.529412
2 6 3 0.517647 0.494118 0.529412
9 6 3 0.517647 0.494118 0.529412
2 7 3 0.517647 0.494118 0.529412
9 7 3 0.517647 0.494118 0.529412
2 8 3 0.517647 0.494118 0.529412
9 8 3 0.517647 0.494118 0.529412
2 9 3 0.517647 0.494118 0.529412
9 9 3 0.517647 0.494118 0.529412
2 10 3 0.517647 0.494118 0.529412
3 10 3 0.517647 0.494118 0.529412
4 10 3 0.517647 0.494118 0.529412
5 10 3 0.517647 0.494118 0.529412
6 10 3 0.517647 0.494118 0.529412
7 10 3 0.517647 0.494118 0.529412
8 10 3 0.517647 0.494118 0.529412
9 10 3 0.517647 0.494118 0.529412
2 2 3 0.349020 0.337255 0.321569
3 2 3 0.349020 0.337255 0.321569
3 2 4 0.349020 0.337255 0.321569
2 2 4 0.349020 0.337255 0.321569
2 3 4 0.349020 0.337255 0.321569
2 3 3 0.349020 0.337255 0.321569
4 2 4 0.517647 0.494118 0.529412
3 2 4 0.517647 0.494118 0.529412
5 2 3 0.517647 0.494118 0.529412
5 2 4 0.517647 0.494118 0.529412
6 2 3 0.517647 0.494118 0.529412
6 2 4 0.517647 0.494118 0.529412
7 2 4 0.517647 0.494118 0.529412
8 2 4 0.517647 0.494118 0.529412
8 2 3 0.349020 0.337255 0.321569
9 2 3 0.349020 0.337255 0.321569
9 2 4 0.349020 0.337255 0.321569
8 2 4 0.349020 0.337255 0.321569
9 3 3 0.349020 0.337255 0.321569
9 3 4 0.349020 0.337255 0.321569
2 3 4 0.517647 0.494118 0.529412
2 4 4 0.517647 0.494118 0.529412
9 4 4 0.517647 0.494118 0.529412
9 3 4 0.517647 0.494118 0.529412
2 5 4 0.517647 0.494118 0.529412
9 5 4 0.517647 0.494118 0.529412
2 6 4 0.517647 0.494118 0.529412
9 6 4 0.517647 0.494118 0.529412
2 7 4 0.517647 0.494118 0.529412
9 7 4 0.517647 0.494118 0.529412
2 7 3 0.411765 0.415686 0.415686
2 7 4 0.411765 0.415686 0.415686
2 8 4 0.411765 0.415686 0.415686
2 8 3 0.411765 0.415686 0.415686
9 8 4 0.517647 0.494118 0.529412
2 9 4 0.411765 0.415686 0.415686
2 9 3 0.411765 0.415686 0.415686
9 9 4 0.517647 0.494118 0.529412
2 10 4 0.517647 0.494118 0.529412
3 10 4 0.517647 0.494118 0.529412
2 9 4 0.517647 0.494118 0.529412
4 10 4 0.517647 0.494118 0.529412
5 10 4 0.517647 0.494118 0.529412
6 10 4 0.517647 0.494118 0.529412
7 10 4 0.517647 0.494118 0.529412
8 10 4 0.517647 0.494118 0.529412
9 10 4 0.517647 0.494118 0.529412
6 11 3 0.517647 0.494118 0.529412
5 11 3 0.517647 0.494118 0.529412
5 11 4 0.517647 0.494118 0.529412
6 11 4 0.517647 0.494118 0.529412
3 1 4 0.517647 0.494118 0.529412
4 1 4 0.517647 0.494118 0.529412
4 1 5 0.517647 0.494118 0.529412
3 1 5 0.517647 0.494118 0.529412
3 2 5 0.517647 0.494118 0.529412
5 1 4 0.517647 0.494118 0.529412
5 1 5 0.517647 0.494118 0.529412
5 1 4 0.349020 0.337255 0.321569
6 1 4 0.349020 0.337255 0.321569
6 1 5 0.349020 0.337255 0.321569
5 1 5 0.349020 0.337255 0.321569
5 2 4 0.349020 0.337255 0.321569
6 2 4 0.349020 0.337255 0.321569
6 1 4 0.517647 0.494118 0.529412
7 1 4 0.517647 0.494118 0.529412
7 1 5 0.517647 0.494118 0.529412
6 1 5 0.517647 0.494118 0.529412
8 1 4 0.517647 0.494118 0.529412
8 1 5 0.517647 0.494118 0.529412
8 2 5 0.517647 0.494118 0.529412
2 2 4 0.517647 0.494118 0.529412
2 2 5 0.517647 0.494118 0.529412
2 3 5 0.517647 0.494118 0.529412
9 2 4 0.517647 0.494118 0.529412
9 2 5 0.517647 0.494118 0.529412
9 3 5 0.517647 0.494118 0.529412
2 4 5 0.517647 0.494118 0.529412
9 4 5 0.517647 0.494118 0.529412
2 5 5 0.517647 0.494118 0.529412
9 5 5 0.517647 0.494118 0.529412
2 6 5 0.517647 0.494118 0.529412
9 5 4 0.411765 0.415686 0.415686
9 6 4 0.411765 0.415686 0.415686
9 6 5 0.411765 0.415686 0.415686
9 5 5 0.411765 0.415686 0.415686
2 7 5 0.517647 0.494118 0.529412
9 7 4 0.411765 0.415686 0.415686
9 7 5 0.411765 0.415686 0.415686
2 7 5 0.411765 0.415686 0.415686
2 8 5 0.411765 0.415686 0.415686
9 8 5 0.517647 0.494118 0.529412
9 7 5 0.517647 0.494118 0.529412
2 9 5 0.411765 0.415686 0.415686
9 9 5 0.517647 0.494118 0.529412
2 10 5 0.517647 0.494118 0.529412
3 10 5 0.517647 0.494118 0.529412
2 9 5 0.517647 0.494118 0.529412
4 10 5 0.517647 0.494118 0.529412
5 10 5 0.517647 0.494118 0.529412
6 10 5 0.517647 0.494118 0.529412
7 10 5 0.517647 0.494118 0.529412
8 10 5 0.517647 0.494118 0.529412
9 10 5 0.517647 0.494118 0.529412
5 11 5 0.517647 0.494118 0.529412
6 11 5 0.517647 0.494118 0.529412
4 1 6 0.517647 0.494118 0.529412
3 1 6 0.517647 0.494118 0.529412
4 2 6 0.517647 0.494118 0.529412
3 2 6 0.517647 0.494118 0.529412
4 1 5 0.349020 0.337255 0.321569
5 1 6 0.349020 0.337255 0.321569
4 1 6 0.349020 0.337255 0.321569
5 2 6 0.349020 0.337255 0.321569
4 2 6 0.349020 0.337255 0.321569
6 1 6 0.349020 0.337255 0.321569
6 2 6 0.349020 0.337255 0.321569
7 1 5 0.349020 0.337255 0.321569
7 1 6 0.349020 0.337255 0.321569
7 2 6 0.349020 0.337255 0.321569
8 1 6 0.517647 0.494118 0.529412
7 1 6 0.517647 0.494118 0.529412
8 2 6 0.517647 0.494118 0.529412
7 2 6 0.517647 0.494118 0.529412
2 2 5 0.349020 0.337255 0.321569
3 2 5 0.349020 0.337255 0.321569
3 2 6 0.349020 0.337255 0.321569
2 2 6 0.349020 0.337255 0.321569
2 3 6 0.349020 0.337255 0.321569
2 3 5 0.349020 0.337255 0.321569
8 2 5 0.349020 0.337255 0.321569
9 2 5 0.349020 0.337255 0.321569
9 2 6 0.349020 0.337255 0.321569
8 2 6 0.349020 0.337255 0.321569
9 3 5 0.349020 0.337255 0.321569
9 3 6 0.349020 0.337255 0.321569
2 3 6 0.517647 0.494118 0.529412
2 4 6 0.517647 0.494118 0.529412
9 4 6 0.517647 0.494118 0.529412
9 3 6 0.517647 0.494118 0.529412
2 5 6 0.517647 0.494118 0.529412
9 5 6 0.517647 0.494118 0.529412
2 5 5 0.411765 0.415686 0.415686
2 5 6 0.411765 0.415686 0.415686
2 6 6 0.411765 0.415686 0.415686
2 6 5 0.411765 0.415686 0.415686
9 6 6 0.411765 0.415686 0.415686
9 5 6 0.411765 0.415686 0.415686
2 6 6 0.517647 0.494118 0.529412
2 7 6 0.517647 0.494118 0.529412
9 7 6 0.411765 0.415686 0.415686
2 8 6 0.517647 0.494118 0.529412
2 8 5 0.517647 0.494118 0.529412
9 8 6 0.517647 0.494118 0.529412
9 7 6 0.517647 0.494118 0.529412
2 9 6 0.517647 0.494118 0.529412
9 8 5 0.411765 0.415686 0.415686
9 9 5 0.411765 0.415686 0.415686
9 9 6 0.411765 0.415686 0.415686
9 8 6 0.411765 0.415686 0.415686
2 10 6 0.517647 0.494118 0.529412
3 10 6 0.517647 0.494118 0.529412
4 10 6 0.517647 0.494118 0.529412
5 10 6 0.517647 0.494118 0.529412
6 10 6 0.517647 0.494118 0.529412
7 10 6 0.517647 0.494118 0.529412
8 10 6 0.517647 0.494118 0.529412
9 10 6 0.517647 0.494118 0.529412
9 9 6 0.517647 0.494118 0.529412
5 11 6 0.517647 0.494118 0.529412
6 11 6 0.517647 0.494118 0.529412
2 2 6 0.517647 0.494118 0.529412
3 2 7 0.517647 0.494118 0.529412
2 2 7 0.517647 0.494118 0.529412
2 3 7 0.517647 0.494118 0.529412
3 2 6 0.000000 0.000000 0.000000
4 2 6 0.000000 0.000000 0.000000
4 2 7 0.000000 0.000000 0.000000
3 2 7 0.000000 0.000000 0.000000
5 2 6 0.517647 0.494118 0.529412
5 2 7 0.517647 0.494118 0.529412
4 2 7 0.517647 0.494118 0.529412
6 2 6 0.517647 0.494118 0.529412
6 2 7 0.517647 0.494118 0.529412
7 2 7 0.517647 0.494118 0.529412
7 2 6 0.000000 0.000000 0.000000
8 2 6 0.000000 0.000000 0.000000
8 2 7 0.000000 0.000000 0.000000
7 2 7 0.000000 0.000000 0.000000
9 2 6 0.517647 0.494118 0.529412
9 2 7 0.517647 0.494118 0.529412
8 2 7 0.517647 0.494118 0.529412
9 3 7 0.517647 0.494118 0.529412
2 4 7 0.517647 0.494118 0.529412
9 4 7 0.517647 0.494118 0.529412
2 5 7 0.517647 0.494118 0.529412
9 5 7 0.517647 0.494118 0.529412
2 6 7 0.517647 0.494118 0.529412
9 6 6 0.517647 0.494118 0.529412
9 6 7 0.517647 0.494118 0.529412
2 7 7 0.517647 0.494118 0.529412
9 7 7 0.517647 0.494118 0.529412
2 8 7 0.517647 0.494118 0.529412
9 8 7 0.517647 0.494118 0.529412
2 9 7 0.517647 0.494118 0.529412
9 9 7 0.517647 0.494118 0.529412
2 10 7 0.517647 0.494118 0.529412
3 10 7 0.517647 0.494118 0.529412
4 10 7 0.517647 0.494118 0.529412
5 10 7 0.517647 0.494118 0.529412
6 10 7 0.517647 0.494118 0.529412
7 10 7 0.517647 0.494118 0.529412
8 10 7 0.517647 0.494118 0.529412
9 10 7 0.517647 0.494118 0.529412
5 11 7 0.517647 0.494118 0.529412
6 11 7 0.517647 0.494118 0.529412
3 2 8 0.517647 0.494118 0.529412
2 2 8 0.517647 0.494118 0.529412
3 3 8 0.517647 0.494118 0.529412
2 3 8 0.517647 0.494118 0.529412
4 2 8 0.517647 0.494118 0.529412
4 3 8 0.517647 0.494118 0.529412
5 2 8 0.517647 0.494118 0.529412
5 3 8 0.517647 0.494118 0.529412
6 2 8 0.517647 0.494118 0.529412
6 3 8 0.517647 0.494118 0.529412
7 2 8 0.517647 0.494118 0.529412
7 3 8 0.517647 0.494118 0.529412
8 2 8 0.517647 0.494118 0.529412
8 3 8 0.517647 0.494118 0.529412
9 2 8 0.517647 0.494118 0.529412
9 3 8 0.517647 0.494118 0.529412
3 4 8 0.517647 0.494118 0.529412
2 4 8 0.517647 0.494118 0.529412
4 4 8 0.517647 0.494118 0.529412
5 4 8 0.517647 0.494118 0.529412
6 4 8 0.517647 0.494118 0.529412
7 4 8 0.517647 0.494118 0.529412
8 4 8 0.517647 0.494118 0.529412
9 4 8 0.517647 0.494118 0.529412
2 5 8 0.517647 0.494118 0.529412
6 5 8 0.517647 0.494118 0.529412
5 5 8 0.517647 0.494118 0.529412
9 5 8 0.517647 0.494118 0.529412
3 5 8 0.517647 0.494118 0.529412
3 6 8 0.517647 0.494118 0.529412
2 6 8 0.517647 0.494118 0.529412
4 5 8 0.517647 0.494118 0.529412
4 6 8 0.517647 0.494118 0.529412
5 6 8 0.517647 0.494118 0.529412
6 6 8 0.517647 0.494118 0.529412
7 5 8 0.517647 0.494118 0.529412
7 6 8 0.517647 0.494118 0.529412
8 5 8 0.517647 0.494118 0.529412
8 6 8 0.517647 0.494118 0.529412
9 6 8 0.517647 0.494118 0.529412
3 7 8 0.517647 0.494118 0.529412
2 7 8 0.517647 0.494118 0.529412
4 7 8 0.517647 0.494118 0.529412
5 7 8 0.517647 0.494118 0.529412
6 7 8 0.517647 0.494118 0.529412
7 7 8 0.517647 0.494118 0.529412
8 7 8 0.517647 0.494118 0.529412
9 7 8 0.517647 0.494118 0.529412
3 8 8 0.517647 0.494118 0.529412
2 8 8 0.517647 0.494118 0.529412
4 8 8 0.517647 0.494118 0.529412
5 8 8 0.517647 0.494118 0.529412
6 8 8 0.517647 0.494118 0.529412
7 8 8 0.517647 0.494118 0.529412
8 8 8 0.517647 0.494118 0.529412
9 8 8 0.517647 0.494118 0.529412
3 9 8 0.517647 0.494118 0.529412
2 9 8 0.517647 0.494118 0.529412
4 9 8 0.517647 0.494118 0.529412
5 9 8 0.517647 0.494118 0.529412
6 9 8 0.517647 0.494118 0.529412
7 9 8 0.517647 0.494118 0.529412
8 9 8 0.517647 0.494118 0.529412
9 9 8 0.517647 0.494118 0.529412
2 10 8 0.517647 0.494118 0.529412
3 10 8 0.517647 0.494118 0.529412
4 10 8 0.517647 0.494118 0.529412
5 10 8 0.517647 0.494118 0.529412
6 10 8 0.517647 0.494118 0.529412
7 10 8 0.517647 0.494118 0.529412
8 10 8 0.517647 0.494118 0.529412
9 10 8 0.517647 0.494118 0.529412
5 11 8 0.517647 0.494118 0.529412
6 11 8 0.517647 0.494118 0.529412
3 4 9 0.517647 0.494118 0.529412
2 4 9 0.517647 0.494118 0.529412
2 5 9 0.517647 0.494118 0.529412
3 5 9 0.517647 0.494118 0.529412
4 4 9 0.517647 0.494118 0.529412
4 5 9 0.517647 0.494118 0.529412
5 4 9 0.517647 0.494118 0.529412
5 5 9 0.517647 0.494118 0.529412
7 4 9 0.517647 0.494118 0.529412
6 4 9 0.517647 0.494118 0.529412
6 5 9 0.517647 0.494118 0.529412
7 5 9 0.517647 0.494118 0.529412
8 4 9 0.517647 0.494118 0.529412
8 5 9 0.517647 0.494118 0.529412
9 4 9 0.517647 0.494118 0.529412
9 5 9 0.517647 0.494118 0.529412
6 10 9 0.517647 0.494118 0.529412
5 10 9 0.517647 0.494118 0.529412
5 11 9 0.517647 0.494118 0.529412
6 11 9 0.517647 0.494118 0.529412
4 4 10 0.517647 0.494118 0.529412
3 4 10 0.517647 0.494118 0.529412
3 5 10 0.517647 0.494118 0.529412
4 5 10 0.517647 0.494118 0.529412
8 4 10 0.517647 0.494118 0.529412
7 4 10 0.517647 0.494118 0.529412
7 5 10 0.517647 0.494118 0.529412
8 5 10 0.517647 0.494118 0.529412
5 8 9 0.517647 0.494118 0.529412
6 8 9 0.517647 0.494118 0.529412
6 8 10 0.517647 0.494118 0.529412
5 8 10 0.517647 0.494118 0.529412
5 9 9 0.517647 0.494118 0.529412
6 9 9 0.517647 0.494118 0.529412
6 9 10 0.517647 0.494118 0.529412
5 9 10 0.517647 0.494118 0.529412
6 10 10 0.517647 0.494118 0.529412
5 10 10 0.517647 0.494118 0.529412
5 11 10 0.517647 0.494118 0.529412
6 11 10 0.517647 0.494118 0.529412
5 7 10 0.517647 0.494118 0.529412
6 7 10 0.517647 0.494118 0.529412
6 7 11 0.517647 0.494118 0.529412
5 7 11 0.517647 0.494118 0.529412
6 8 11 0.517647 0.494118 0.529412
5 8 11 0.517647 0.494118 0.529412
5 9 11 0.517647 0.494118 0.529412
6 9 11 0.517647 0.494118 0.529412
4 0 1 2 3
4 4 5 6 7
4 0 5 4 1
4 1 4 7 2
4 0 3 6 5
4 8 9 10 11
4 12 13 14 15
4 8 13 12 9
4 9 12 15 10
4 8 11 14 13
4 16 17 18 19
4 20 21 22 23
4 16 21 20 17
4 17 20 23 18
4 16 19 22 21
4 24 25 26 27
4 28 29 30 31
4 24 29 28 25
4 25 28 31 26
4 24 27 30 29
4 32 33 34 35
4 32 35 36 37
4 33 38 39 34
4 33 40 41 38
4 42 43 44 45
4 42 46 47 43
4 43 48 49 44
4 43 47 50 48
4 48 51 52 49
4 48 50 53 51
4 54 55 56 57
4 54 58 59 55
4 55 60 61 56
4 60 62 63 61
4 37 64 65 40
4 37 36 66 64
4 40 65 67 41
4 41 67 68 69
4 69 68 70 71
4 71 70 72 58
4 58 72 73 59
4 59 73 74 62
4 62 74 75 63
4 64 76 77 65
4 64 66 78 76
4 65 77 79 67
4 67 79 80 68
4 68 80 81 70
4 70 81 82 72
4 72 82 83 73
4 73 83 84 74
4 74 84 85 75
4 76 86 87 77
4 76 78 88 86
4 77 87 89 79
4 79 89 90 80
4 80 90 91 81
4 81 91 92 82
4 82 92 93 83
4 83 93 94 84
4 84 94 95 85
4 86 96 97 87
4 86 88 98 96
4 87 97 99 89
4 89 99 100 90
4 90 100 101 91
4 91 101 102 92
4 92 102 103 93
4 93 103 104 94
4 94 104 105 95
4 96 106 107 97
4 96 98 108 106
4 97 107 109 99
4 99 109 110 100
4 100 110 111 101
4 101 111 112 102
4 102 112 113 103
4 103 113 114 104
4 104 114 115 105
4 106 116 117 107
4 106 108 118 116
4 107 117 119 109
4 109 119 120 110
4 110 120 121 111
4 111 121 122 112
4 112 122 123 113
4 113 123 124 114
4 114 124 125 115
4 126 127 128 129
4 116 118 128 127
4 130 126 129 131
4 117 126 130 119
4 132 130 131 133
4 119 130 132 120
4 134 132 133 135
4 120 132 134 121
4 136 134 135 137
4 121 134 136 122
4 138 136 137 139
4 122 136 138 123
4 140 138 139 141
4 124 140 141 125
4 35 34 142 143
4 35 143 144 36
4 34 39 145 142
4 45 44 146 147
4 44 49 148 146
4 49 52 149 148
4 57 56 150 151
4 56 61 152 150
4 61 63 153 152
4 36 144 154 66
4 63 75 155 153
4 66 154 156 78
4 75 85 157 155
4 78 156 158 88
4 85 95 159 157
4 88 158 160 98
4 95 105 161 159
4 98 160 162 108
4 105 115 163 161
4 108 162 164 118
4 115 125 165 163
4 129 128 166 167
4 118 164 166 128
4 131 129 167 168
4 133 131 168 169
4 135 133 169 170
4 137 135 170 171
4 139 137 171 172
4 141 139 172 173
4 125 141 173 165
4 174 175 176 177
4 174 177 178 179
4 142 145 180 181
4 145 182 183 180
4 182 184 185 183
4 184 151 186 185
4 151 150 187 186
4 188 189 190 191
4 189 192 193 190
4 144 194 195 154
4 153 155 196 197
4 154 195 198 156
4 155 157 199 196
4 156 198 200 158
4 157 159 201 199
4 158 200 202 160
4 159 161 203 201
4 204 205 206 207
4 161 163 208 203
4 207 206 209 210
4 163 165 211 208
4 167 166 212 213
4 164 214 212 166
4 168 167 213 215
4 169 168 215 216
4 171 170 217 218
4 172 171 218 219
4 173 172 219 220
4 165 173 220 211
4 221 222 223 224
4 169 222 221 170
4 170 221 224 217
4 169 216 223 222
4 225 226 227 228
4 225 181 180 226
4 225 228 229 181
4 226 230 231 227
4 226 180 183 230
4 232 233 234 235
4 232 236 237 233
4 238 239 240 241
4 238 185 186 239
4 239 242 243 240
4 239 186 187 242
4 242 187 244 243
4 245 181 229 246
4 245 246 247 194
4 187 248 249 244
4 248 197 250 249
4 194 247 251 195
4 197 196 252 250
4 195 251 253 198
4 196 199 254 252
4 198 253 255 200
4 256 257 258 259
4 200 255 260 202
4 257 261 262 258
4 205 263 264 206
4 203 208 265 266
4 206 264 267 209
4 208 211 268 265
4 213 212 269 270
4 214 271 269 212
4 215 213 270 272
4 216 215 272 273
4 218 217 274 275
4 219 218 275 276
4 220 219 276 277
4 211 220 277 268
4 224 223 278 279
4 217 224 279 274
4 216 273 278 223
4 228 227 280 281
4 280 282 283 281
4 228 281 283 229
4 284 235 285 286
4 285 287 288 286
4 235 234 289 285
4 289 290 287 285
4 234 291 292 289
4 292 293 290 289
4 240 243 294 295
4 294 296 297 295
4 243 244 296 294
4 298 299 300 301
4 298 301 302 303
4 304 305 306 307
4 305 308 309 306
4 247 310 311 251
4 250 252 312 313
4 251 311 314 253
4 252 254 315 312
4 316 317 318 319
4 259 258 320 321
4 255 322 323 260
4 258 262 324 320
4 260 323 325 326
4 266 265 327 328
4 326 325 329 271
4 330 331 332 333
4 270 269 334 335
4 271 329 334 269
4 272 270 335 336
4 273 272 336 337
4 275 274 338 339
4 276 275 339 340
4 277 276 340 341
4 268 277 341 342
4 279 278 343 344
4 274 279 344 338
4 273 337 343 278
4 345 283 346 347
4 345 347 348 310
4 349 350 351 352
4 282 353 354 355
4 353 356 357 354
4 356 297 358 357
4 359 360 361 362
4 296 363 364 365
4 363 313 366 364
4 310 348 367 311
4 313 312 368 366
4 311 367 369 314
4 312 315 370 368
4 314 369 371 322
4 315 372 373 370
4 322 371 374 323
4 372 328 375 373
4 323 374 376 325
4 328 327 377 375
4 325 376 378 329
4 327 342 379 377
4 335 334 380 381
4 329 378 380 334
4 336 335 381 382
4 337 336 382 383
4 339 338 384 385
4 340 339 385 386
4 341 340 386 387
4 342 341 387 379
4 344 343 388 389
4 338 344 389 384
4 337 383 388 343
4 347 346 390 391
4 390 392 393 391
4 347 391 393 348
4 346 355 394 390
4 394 395 392 390
4 355 354 396 394
4 396 397 395 394
4 354 357 398 396
4 398 399 397 396
4 357 358 400 398
4 400 401 399 398
4 358 365 402 400
4 402 403 401 400
4 365 364 404 402
4 404 405 403 402
4 364 366 405 404
4 392 406 407 393
4 348 393 407 367
4 395 408 406 392
4 397 409 408 395
4 399 410 409 397
4 401 411 410 399
4 403 412 411 401
4 405 413 412 403
4 366 368 413 405
4 367 407 414 369
4 410 415 416 409
4 368 370 417 413
4 418 419 420 414
4 369 414 420 371
4 421 422 419 418
4 416 423 422 421
4 415 424 423 416
4 425 426 424 415
4 427 428 426 425
4 417 429 428 427
4 370 373 429 417
4 419 430 431 420
4 371 420 431 374
4 422 432 430 419
4 423 433 432 422
4 424 434 433 423
4 426 435 434 424
4 428 436 435 426
4 429 437 436 428
4 373 375 437 429
4 430 438 439 431
4 374 431 439 376
4 432 440 438 430
4 433 441 440 432
4 434 442 441 433
4 435 443 442 434
4 436 444 443 435
4 437 445 444 436
4 375 377 445 437
4 438 446 447 439
4 376 439 447 378
4 440 448 446 438
4 441 449 448 440
4 442 450 449 441
4 443 451 450 442
4 444 452 451 443
4 445 453 452 444
4 377 379 453 445
4 381 380 454 455
4 446 455 454 447
4 378 447 454 380
4 382 381 455 456
4 448 456 455 446
4 383 382 456 457
4 449 457 456 448
4 450 458 457 449
4 385 384 458 459
4 451 459 458 450
4 386 385 459 460
4 452 460 459 451
4 387 386 460 461
4 453 461 460 452
4 379 387 461 453
4 389 388 462 463
4 384 389 463 458
4 383 457 462 388
4 407 406 464 465
4 418 414 466 467
4 464 467 466 465
4 407 465 466 414
4 406 408 468 464
4 421 418 467 469
4 408 409 470 468
4 416 421 469 471
4 470 471 469 468
4 409 416 471 470
4 410 411 472 473
4 425 415 474 475
4 472 475 474 473
4 410 473 474 415
4 411 412 476 472
4 427 425 475 477
4 412 413 478 476
4 417 427 477 479
4 478 479 477 476
4 413 417 479 478
4 457 458 480 481
4 463 462 482 483
4 458 463 483 480
4 457 481 482 462
4 464 468 484 485
4 469 467 486 487
4 484 487 486 485
4 468 469 487 484
4 464 485 486 467
4 472 476 488 489
4 477 475 490 491
4 488 491 490 489
4 476 477 491 488
4 472 489 490 475
4 492 493 494 495
4 492 496 497 493
4 493 497 498 494
4 492 495 499 496
4 496 481 480 497
4 498 500 501 499
4 497 480 500 498
4 496 499 501 481
4 483 482 502 503
4 500 503 502 501
4 480 483 503 500
4 481 501 502 482
4 504 505 506 507
4 504 495 494 505
4 506 508 509 507
4 505 494 508 506
4 504 507 509 495
4 498 499 510 511
4 508 511 510 509
4 494 498 511 508
4 495 509 510 499
