ply
format ascii 1.0
comment Generated from Goxel 0.10.6
element vertex 320
property float x
property float y
property float z
property float red
property float green
property float blue
element face 304
property list uchar int vertex_indices
end_header
4 5 0 0.874510 0.443137 0.149020
5 5 0 0.874510 0.443137 0.149020
5 5 1 0.874510 0.443137 0.149020
4 5 1 0.874510 0.443137 0.149020
4 6 0 0.874510 0.443137 0.149020
5 6 0 0.874510 0.443137 0.149020
5 6 1 0.874510 0.443137 0.149020
4 6 1 0.874510 0.443137 0.149020
6 5 0 0.874510 0.443137 0.149020
7 5 0 0.874510 0.443137 0.149020
7 5 1 0.874510 0.443137 0.149020
6 5 1 0.874510 0.443137 0.149020
6 6 0 0.874510 0.443137 0.149020
7 6 0 0.874510 0.443137 0.149020
7 6 1 0.874510 0.443137 0.149020
6 6 1 0.874510 0.443137 0.149020
4 7 0 0.874510 0.443137 0.149020
5 7 0 0.874510 0.443137 0.149020
5 7 1 0.874510 0.443137 0.149020
4 7 1 0.874510 0.443137 0.149020
6 7 0 0.874510 0.443137 0.149020
7 7 0 0.874510 0.443137 0.149020
7 7 1 0.874510 0.443137 0.149020
6 7 1 0.874510 0.443137 0.149020
5 8 0 0.874510 0.443137 0.149020
4 8 0 0.874510 0.443137 0.149020
4 8 1 0.874510 0.443137 0.149020
5 8 1 0.874510 0.443137 0.149020
7 8 0 0.874510 0.443137 0.149020
6 8 0 0.874510 0.443137 0.149020
6 8 1 0.874510 0.443137 0.149020
7 8 1 0.874510 0.443137 0.149020
5 7 2 0.874510 0.443137 0.149020
4 7 2 0.874510 0.443137 0.149020
4 8 2 0.874510 0.443137 0.149020
5 8 2 0.874510 0.443137 0.149020
7 7 2 0.874510 0.443137 0.149020
6 7 2 0.874510 0.443137 0.149020
6 8 2 0.874510 0.443137 0.149020
7 8 2 0.874510 0.443137 0.149020
4 6 2 1.000000 1.000000 1.000000
5 6 2 1.000000 1.000000 1.000000
5 6 3 1.000000 1.000000 1.000000
4 6 3 1.000000 1.000000 1.000000
4 7 2 1.000000 1.000000 1.000000
5 7 2 1.000000 1.000000 1.000000
5 7 3 1.000000 1.000000 1.000000
4 7 3 1.000000 1.000000 1.000000
6 6 2 1.000000 1.000000 1.000000
7 6 2 1.000000 1.000000 1.000000
7 6 3 1.000000 1.000000 1.000000
6 6 3 1.000000 1.000000 1.000000
6 7 2 1.000000 1.000000 1.000000
7 7 2 1.000000 1.000000 1.000000
7 7 3 1.000000 1.000000 1.000000
6 7 3 1.000000 1.000000 1.000000
3 7 2 1.000000 1.000000 1.000000
3 7 3 1.000000 1.000000 1.000000
4 8 2 1.000000 1.000000 1.000000
3 8 2 1.000000 1.000000 1.000000
3 8 3 1.000000 1.000000 1.000000
4 8 3 1.000000 1.000000 1.000000
6 8 2 1.000000 1.000000 1.000000
5 8 2 1.000000 1.000000 1.000000
5 8 3 1.000000 1.000000 1.000000
6 8 3 1.000000 1.000000 1.000000
8 7 2 1.000000 1.000000 1.000000
8 7 3 1.000000 1.000000 1.000000
8 8 2 1.000000 1.000000 1.000000
7 8 2 1.000000 1.000000 1.000000
7 8 3 1.000000 1.000000 1.000000
8 8 3 1.000000 1.000000 1.000000
5 9 2 1.000000 1.000000 1.000000
4 9 2 1.000000 1.000000 1.000000
4 9 3 1.000000 1.000000 1.000000
5 9 3 1.000000 1.000000 1.000000
7 9 2 1.000000 1.000000 1.000000
6 9 2 1.000000 1.000000 1.000000
6 9 3 1.000000 1.000000 1.000000
7 9 3 1.000000 1.000000 1.000000
3 5 3 1.000000 1.000000 1.000000
4 5 3 1.000000 1.000000 1.000000
4 5 4 1.000000 1.000000 1.000000
3 5 4 1.000000 1.000000 1.000000
3 6 3 1.000000 1.000000 1.000000
3 6 4 1.000000 1.000000 1.000000
5 5 3 1.000000 1.000000 1.000000
5 5 4 1.000000 1.000000 1.000000
6 5 3 1.000000 1.000000 1.000000
6 5 4 1.000000 1.000000 1.000000
7 5 3 1.000000 1.000000 1.000000
7 5 4 1.000000 1.000000 1.000000
8 5 3 1.000000 1.000000 1.000000
8 5 4 1.000000 1.000000 1.000000
8 6 3 1.000000 1.000000 1.000000
8 6 4 1.000000 1.000000 1.000000
3 7 4 1.000000 1.000000 1.000000
8 7 4 1.000000 1.000000 1.000000
3 8 4 1.000000 1.000000 1.000000
8 8 4 1.000000 1.000000 1.000000
3 9 3 1.000000 1.000000 1.000000
3 9 4 1.000000 1.000000 1.000000
4 9 4 1.000000 1.000000 1.000000
5 9 4 1.000000 1.000000 1.000000
6 9 4 1.000000 1.000000 1.000000
7 9 4 1.000000 1.000000 1.000000
8 9 3 1.000000 1.000000 1.000000
8 9 4 1.000000 1.000000 1.000000
4 5 5 1.000000 1.000000 1.000000
3 5 5 1.000000 1.000000 1.000000
3 6 5 1.000000 1.000000 1.000000
5 5 5 1.000000 1.000000 1.000000
6 5 5 1.000000 1.000000 1.000000
7 5 5 1.000000 1.000000 1.000000
8 5 5 1.000000 1.000000 1.000000
8 6 5 1.000000 1.000000 1.000000
2 6 4 1.000000 1.000000 1.000000
2 6 5 1.000000 1.000000 1.000000
2 7 4 1.000000 1.000000 1.000000
2 7 5 1.000000 1.000000 1.000000
9 6 4 1.000000 1.000000 1.000000
9 6 5 1.000000 1.000000 1.000000
9 7 4 1.000000 1.000000 1.000000
9 7 5 1.000000 1.000000 1.000000
2 8 4 1.000000 1.000000 1.000000
2 8 5 1.000000 1.000000 1.000000
9 8 4 1.000000 1.000000 1.000000
9 8 5 1.000000 1.000000 1.000000
2 9 4 1.000000 1.000000 1.000000
2 9 5 1.000000 1.000000 1.000000
3 9 5 1.000000 1.000000 1.000000
3 8 5 1.000000 1.000000 1.000000
4 9 5 1.000000 1.000000 1.000000
6 8 5 1.000000 1.000000 1.000000
6 9 5 1.000000 1.000000 1.000000
5 9 5 1.000000 1.000000 1.000000
5 8 5 1.000000 1.000000 1.000000
7 9 5 1.000000 1.000000 1.000000
8 9 5 1.000000 1.000000 1.000000
9 9 4 1.000000 1.000000 1.000000
9 9 5 1.000000 1.000000 1.000000
8 8 5 1.000000 1.000000 1.000000
4 10 4 1.000000 1.000000 1.000000
5 10 4 1.000000 1.000000 1.000000
5 10 5 1.000000 1.000000 1.000000
4 10 5 1.000000 1.000000 1.000000
6 10 4 1.000000 1.000000 1.000000
6 10 5 1.000000 1.000000 1.000000
7 10 4 1.000000 1.000000 1.000000
7 10 5 1.000000 1.000000 1.000000
5 11 4 1.000000 1.000000 1.000000
4 11 4 1.000000 1.000000 1.000000
4 11 5 1.000000 1.000000 1.000000
5 11 5 1.000000 1.000000 1.000000
6 11 4 1.000000 1.000000 1.000000
6 11 5 1.000000 1.000000 1.000000
7 11 4 1.000000 1.000000 1.000000
7 11 5 1.000000 1.000000 1.000000
4 5 6 1.000000 1.000000 1.000000
3 5 6 1.000000 1.000000 1.000000
3 6 6 1.000000 1.000000 1.000000
5 5 6 1.000000 1.000000 1.000000
6 5 6 1.000000 1.000000 1.000000
7 5 6 1.000000 1.000000 1.000000
8 5 6 1.000000 1.000000 1.000000
8 6 6 1.000000 1.000000 1.000000
2 6 6 1.000000 1.000000 1.000000
3 7 6 1.000000 1.000000 1.000000
2 7 6 1.000000 1.000000 1.000000
6 6 6 1.000000 1.000000 1.000000
6 7 6 1.000000 1.000000 1.000000
5 7 6 1.000000 1.000000 1.000000
5 6 6 1.000000 1.000000 1.000000
9 6 6 1.000000 1.000000 1.000000
9 7 6 1.000000 1.000000 1.000000
8 7 6 1.000000 1.000000 1.000000
2 8 6 1.000000 1.000000 1.000000
3 8 6 1.000000 1.000000 1.000000
5 8 6 1.000000 1.000000 1.000000
6 8 6 1.000000 1.000000 1.000000
8 8 6 1.000000 1.000000 1.000000
9 8 6 1.000000 1.000000 1.000000
3 9 6 1.000000 1.000000 1.000000
4 9 6 1.000000 1.000000 1.000000
5 9 6 1.000000 1.000000 1.000000
6 9 6 1.000000 1.000000 1.000000
7 9 6 1.000000 1.000000 1.000000
8 9 6 1.000000 1.000000 1.000000
5 10 6 1.000000 1.000000 1.000000
4 10 6 1.000000 1.000000 1.000000
4 11 6 1.000000 1.000000 1.000000
5 11 6 1.000000 1.000000 1.000000
6 10 6 1.000000 1.000000 1.000000
6 11 6 1.000000 1.000000 1.000000
7 10 6 1.000000 1.000000 1.000000
7 11 6 1.000000 1.000000 1.000000
4 5 7 1.000000 1.000000 1.000000
3 5 7 1.000000 1.000000 1.000000
4 6 7 1.000000 1.000000 1.000000
3 6 7 1.000000 1.000000 1.000000
5 5 7 1.000000 1.000000 1.000000
6 5 7 1.000000 1.000000 1.000000
5 6 7 1.000000 1.000000 1.000000
6 6 7 1.000000 1.000000 1.000000
7 5 7 1.000000 1.000000 1.000000
8 5 7 1.000000 1.000000 1.000000
8 6 7 1.000000 1.000000 1.000000
7 6 7 1.000000 1.000000 1.000000
4 7 7 1.000000 1.000000 1.000000
3 7 7 1.000000 1.000000 1.000000
5 7 7 1.000000 1.000000 1.000000
6 7 7 1.000000 1.000000 1.000000
8 7 7 1.000000 1.000000 1.000000
7 7 7 1.000000 1.000000 1.000000
4 8 7 1.000000 1.000000 1.000000
3 8 7 1.000000 1.000000 1.000000
5 8 7 1.000000 1.000000 1.000000
6 8 7 1.000000 1.000000 1.000000
8 8 7 1.000000 1.000000 1.000000
7 8 7 1.000000 1.000000 1.000000
3 9 7 1.000000 1.000000 1.000000
4 9 7 1.000000 1.000000 1.000000
5 9 7 1.000000 1.000000 1.000000
6 9 7 1.000000 1.000000 1.000000
7 9 7 1.000000 1.000000 1.000000
8 9 7 1.000000 1.000000 1.000000
5 3 7 0.874510 0.443137 0.149020
6 3 7 0.874510 0.443137 0.149020
6 3 8 0.874510 0.443137 0.149020
5 3 8 0.874510 0.443137 0.149020
6 4 7 0.874510 0.443137 0.149020
5 4 7 0.874510 0.443137 0.149020
5 4 8 0.874510 0.443137 0.149020
6 4 8 0.874510 0.443137 0.149020
4 4 7 1.000000 1.000000 1.000000
5 4 7 1.000000 1.000000 1.000000
5 4 8 1.000000 1.000000 1.000000
4 4 8 1.000000 1.000000 1.000000
5 5 8 1.000000 1.000000 1.000000
4 5 8 1.000000 1.000000 1.000000
6 4 7 1.000000 1.000000 1.000000
7 4 7 1.000000 1.000000 1.000000
7 4 8 1.000000 1.000000 1.000000
6 4 8 1.000000 1.000000 1.000000
7 5 8 1.000000 1.000000 1.000000
6 5 8 1.000000 1.000000 1.000000
5 6 8 1.000000 1.000000 1.000000
4 6 8 1.000000 1.000000 1.000000
7 6 8 1.000000 1.000000 1.000000
6 6 8 1.000000 1.000000 1.000000
4 7 8 1.000000 1.000000 1.000000
7 7 8 1.000000 1.000000 1.000000
4 8 8 1.000000 1.000000 1.000000
5 8 8 1.000000 1.000000 1.000000
6 8 8 1.000000 1.000000 1.000000
7 8 8 1.000000 1.000000 1.000000
5 4 9 1.000000 1.000000 1.000000
4 4 9 1.000000 1.000000 1.000000
4 5 9 1.000000 1.000000 1.000000
6 4 9 1.000000 1.000000 1.000000
7 4 9 1.000000 1.000000 1.000000
7 5 9 1.000000 1.000000 1.000000
4 6 9 1.000000 1.000000 1.000000
7 6 9 1.000000 1.000000 1.000000
4 7 9 1.000000 1.000000 1.000000
7 7 9 1.000000 1.000000 1.000000
4 8 9 1.000000 1.000000 1.000000
5 8 9 1.000000 1.000000 1.000000
6 8 9 1.000000 1.000000 1.000000
7 8 9 1.000000 1.000000 1.000000
4 3 9 0.000000 0.000000 0.000000
5 3 9 0.000000 0.000000 0.000000
5 3 10 0.000000 0.000000 0.000000
4 3 10 0.000000 0.000000 0.000000
4 4 9 0.000000 0.000000 0.000000
5 4 9 0.000000 0.000000 0.000000
5 4 10 0.000000 0.000000 0.000000
4 4 10 0.000000 0.000000 0.000000
6 3 9 0.000000 0.000000 0.000000
7 3 9 0.000000 0.000000 0.000000
7 3 10 0.000000 0.000000 0.000000
6 3 10 0.000000 0.000000 0.000000
6 4 9 0.000000 0.000000 0.000000
7 4 9 0.000000 0.000000 0.000000
7 4 10 0.000000 0.000000 0.000000
6 4 10 0.000000 0.000000 0.000000
4 4 10 1.000000 1.000000 1.000000
4 5 10 1.000000 1.000000 1.000000
6 4 10 1.000000 1.000000 1.000000
5 4 10 1.000000 1.000000 1.000000
7 5 10 1.000000 1.000000 1.000000
7 4 10 1.000000 1.000000 1.000000
4 6 10 1.000000 1.000000 1.000000
7 6 10 1.000000 1.000000 1.000000
4 7 10 1.000000 1.000000 1.000000
7 7 10 1.000000 1.000000 1.000000
4 8 10 1.000000 1.000000 1.000000
5 8 10 1.000000 1.000000 1.000000
6 8 10 1.000000 1.000000 1.000000
7 8 10 1.000000 1.000000 1.000000
5 4 11 1.000000 1.000000 1.000000
4 4 11 1.000000 1.000000 1.000000
5 5 11 1.000000 1.000000 1.000000
4 5 11 1.000000 1.000000 1.000000
6 4 11 1.000000 1.000000 1.000000
6 5 11 1.000000 1.000000 1.000000
7 4 11 1.000000 1.000000 1.000000
7 5 11 1.000000 1.000000 1.000000
5 6 11 1.000000 1.000000 1.000000
4 6 11 1.000000 1.000000 1.000000
6 6 11 1.000000 1.000000 1.000000
7 6 11 1.000000 1.000000 1.000000
5 7 11 1.000000 1.000000 1.000000
4 7 11 1.000000 1.000000 1.000000
6 7 11 1.000000 1.000000 1.000000
7 7 11 1.000000 1.000000 1.000000
4 8 11 1.000000 1.000000 1.000000
5 8 11 1.000000 1.000000 1.000000
6 8 11 1.000000 1.000000 1.000000
7 8 11 1.000000 1.000000 1.000000
4 0 1 2 3
4 0 4 5 1
4 2 6 7 3
4 1 5 6 2
4 0 3 7 4
4 8 9 10 11
4 8 12 13 9
4 10 14 15 11
4 9 13 14 10
4 8 11 15 12
4 4 16 17 5
4 6 18 19 7
4 5 17 18 6
4 4 7 19 16
4 12 20 21 13
4 14 22 23 15
4 13 21 22 14
4 12 15 23 20
4 24 25 26 27
4 16 25 24 17
4 17 24 27 18
4 16 19 26 25
4 28 29 30 31
4 20 29 28 21
4 21 28 31 22
4 20 23 30 29
4 19 18 32 33
4 27 26 34 35
4 18 27 35 32
4 19 33 34 26
4 23 22 36 37
4 31 30 38 39
4 22 31 39 36
4 23 37 38 30
4 40 41 42 43
4 40 44 45 41
4 41 45 46 42
4 40 43 47 44
4 48 49 50 51
4 48 52 53 49
4 49 53 54 50
4 48 51 55 52
4 56 44 47 57
4 58 59 60 61
4 56 59 58 44
4 56 57 60 59
4 45 52 55 46
4 62 63 64 65
4 45 63 62 52
4 53 66 67 54
4 68 69 70 71
4 53 69 68 66
4 66 68 71 67
4 72 73 74 75
4 58 73 72 63
4 63 72 75 64
4 58 61 74 73
4 76 77 78 79
4 62 77 76 69
4 69 76 79 70
4 62 65 78 77
4 80 81 82 83
4 80 84 43 81
4 80 83 85 84
4 81 86 87 82
4 81 43 42 86
4 86 88 89 87
4 86 42 51 88
4 88 90 91 89
4 88 51 50 90
4 90 92 93 91
4 90 50 94 92
4 92 94 95 93
4 84 57 47 43
4 84 85 96 57
4 42 46 55 51
4 50 54 67 94
4 94 67 97 95
4 57 96 98 60
4 67 71 99 97
4 74 100 101 102
4 60 100 74 61
4 60 98 101 100
4 75 74 102 103
4 78 75 103 104
4 64 75 78 65
4 79 78 104 105
4 106 79 105 107
4 70 79 106 71
4 71 106 107 99
4 83 82 108 109
4 83 109 110 85
4 82 87 111 108
4 87 89 112 111
4 89 91 113 112
4 91 93 114 113
4 93 95 115 114
4 116 85 110 117
4 116 118 96 85
4 116 117 119 118
4 95 120 121 115
4 95 97 122 120
4 120 122 123 121
4 118 124 98 96
4 118 119 125 124
4 97 99 126 122
4 122 126 127 123
4 101 128 129 130
4 124 128 101 98
4 131 130 129 125
4 124 125 129 128
4 102 101 130 132
4 133 134 135 136
4 107 105 137 138
4 139 107 138 140
4 99 107 139 126
4 127 140 138 141
4 126 139 140 127
4 102 142 143 103
4 135 144 145 132
4 102 132 145 142
4 103 143 146 104
4 134 147 144 135
4 104 146 148 105
4 137 149 147 134
4 105 148 149 137
4 150 151 152 153
4 142 151 150 143
4 142 145 152 151
4 154 150 153 155
4 143 150 154 146
4 156 154 155 157
4 146 154 156 148
4 148 156 157 149
4 109 108 158 159
4 109 159 160 110
4 108 111 161 158
4 111 112 162 161
4 112 113 163 162
4 113 114 164 163
4 114 115 165 164
4 117 110 160 166
4 160 167 168 166
4 117 166 168 119
4 169 170 171 172
4 115 121 173 165
4 173 174 175 165
4 121 123 174 173
4 131 125 176 177
4 167 177 176 168
4 119 168 176 125
4 133 136 178 179
4 170 179 178 171
4 127 141 180 181
4 174 181 180 175
4 123 127 181 174
4 132 130 182 183
4 131 177 182 130
4 135 132 183 184
4 136 135 184 178
4 137 134 185 186
4 133 179 185 134
4 138 137 186 187
4 141 138 187 180
4 145 144 188 189
4 153 152 190 191
4 188 191 190 189
4 145 189 190 152
4 144 147 192 188
4 155 153 191 193
4 192 193 191 188
4 147 149 194 192
4 157 155 193 195
4 194 195 193 192
4 149 157 195 194
4 159 158 196 197
4 196 198 199 197
4 159 197 199 160
4 158 161 200 196
4 161 162 201 200
4 169 172 202 203
4 201 203 202 200
4 162 163 204 201
4 163 164 205 204
4 205 206 207 204
4 164 165 206 205
4 198 208 209 199
4 160 199 209 167
4 172 171 210 202
4 169 203 211 170
4 206 212 213 207
4 165 175 212 206
4 208 214 215 209
4 167 209 215 177
4 171 178 216 210
4 170 211 217 179
4 212 218 219 213
4 175 180 218 212
4 183 182 220 221
4 214 221 220 215
4 177 215 220 182
4 184 183 221 222
4 216 222 221 214
4 178 179 217 216
4 185 184 222 223
4 178 184 185 179
4 217 223 222 216
4 186 185 223 224
4 219 224 223 217
4 187 186 224 225
4 218 225 224 219
4 180 187 225 218
4 226 227 228 229
4 230 231 232 233
4 226 231 230 227
4 228 233 232 229
4 227 230 233 228
4 226 229 232 231
4 234 235 236 237
4 234 196 200 235
4 235 200 238 236
4 234 237 239 196
4 240 241 242 243
4 240 201 204 241
4 241 204 244 242
4 240 243 245 201
4 200 202 246 238
4 196 239 247 198
4 204 207 248 244
4 201 245 249 203
4 198 247 250 208
4 202 203 249 246
4 202 210 211 203
4 207 213 251 248
4 216 214 252 253
4 208 250 252 214
4 217 216 253 254
4 210 216 217 211
4 219 217 254 255
4 213 219 255 251
4 237 236 256 257
4 237 257 258 239
4 236 243 259 256
4 236 238 245 243
4 243 242 260 259
4 242 244 261 260
4 239 258 262 247
4 238 246 249 245
4 244 248 263 261
4 247 262 264 250
4 248 251 265 263
4 253 252 266 267
4 250 264 266 252
4 254 253 267 268
4 255 254 268 269
4 251 255 269 265
4 270 271 272 273
4 270 274 275 271
4 272 276 277 273
4 271 275 276 272
4 270 273 277 274
4 278 279 280 281
4 278 282 283 279
4 280 284 285 281
4 279 283 284 280
4 278 281 285 282
4 257 286 287 258
4 256 259 288 289
4 260 261 290 291
4 258 287 292 262
4 261 263 293 290
4 262 292 294 264
4 263 265 295 293
4 267 266 296 297
4 264 294 296 266
4 268 267 297 298
4 269 268 298 299
4 265 269 299 295
4 286 289 300 301
4 300 302 303 301
4 286 301 303 287
4 289 288 304 300
4 304 305 302 300
4 288 291 306 304
4 306 307 305 304
4 291 290 307 306
4 302 308 309 303
4 287 303 309 292
4 305 310 308 302
4 307 311 310 305
4 290 293 311 307
4 308 312 313 309
4 292 309 313 294
4 310 314 312 308
4 311 315 314 310
4 293 295 315 311
4 297 296 316 317
4 312 317 316 313
4 294 313 316 296
4 298 297 317 318
4 314 318 317 312
4 299 298 318 319
4 315 319 318 314
4 295 299 319 315
