ply
format ascii 1.0
comment Generated from Goxel 0.10.6
element vertex 265
property float x
property float y
property float z
property float red
property float green
property float blue
element face 232
property list uchar int vertex_indices
end_header
4 5 0 0.874510 0.443137 0.149020
5 5 0 0.874510 0.443137 0.149020
5 5 1 0.874510 0.443137 0.149020
4 5 1 0.874510 0.443137 0.149020
4 6 0 0.874510 0.443137 0.149020
5 6 0 0.874510 0.443137 0.149020
5 6 1 0.874510 0.443137 0.149020
4 6 1 0.874510 0.443137 0.149020
7 5 0 0.874510 0.443137 0.149020
8 5 0 0.874510 0.443137 0.149020
8 5 1 0.874510 0.443137 0.149020
7 5 1 0.874510 0.443137 0.149020
7 6 0 0.874510 0.443137 0.149020
8 6 0 0.874510 0.443137 0.149020
8 6 1 0.874510 0.443137 0.149020
7 6 1 0.874510 0.443137 0.149020
4 7 0 0.874510 0.443137 0.149020
5 7 0 0.874510 0.443137 0.149020
5 7 1 0.874510 0.443137 0.149020
4 7 1 0.874510 0.443137 0.149020
7 7 0 0.874510 0.443137 0.149020
8 7 0 0.874510 0.443137 0.149020
8 7 1 0.874510 0.443137 0.149020
7 7 1 0.874510 0.443137 0.149020
5 8 0 0.874510 0.443137 0.149020
4 8 0 0.874510 0.443137 0.149020
4 8 1 0.874510 0.443137 0.149020
5 8 1 0.874510 0.443137 0.149020
8 8 0 0.874510 0.443137 0.149020
7 8 0 0.874510 0.443137 0.149020
7 8 1 0.874510 0.443137 0.149020
8 8 1 0.874510 0.443137 0.149020
5 7 2 0.874510 0.443137 0.149020
4 7 2 0.874510 0.443137 0.149020
4 8 2 0.874510 0.443137 0.149020
5 8 2 0.874510 0.443137 0.149020
8 7 2 0.874510 0.443137 0.149020
7 7 2 0.874510 0.443137 0.149020
7 8 2 0.874510 0.443137 0.149020
8 8 2 0.874510 0.443137 0.149020
4 4 2 0.560784 0.337255 0.231373
5 4 2 0.560784 0.337255 0.231373
5 4 3 0.560784 0.337255 0.231373
4 4 3 0.560784 0.337255 0.231373
4 5 2 0.560784 0.337255 0.231373
5 5 2 0.560784 0.337255 0.231373
4 5 3 0.560784 0.337255 0.231373
6 4 2 0.560784 0.337255 0.231373
6 4 3 0.560784 0.337255 0.231373
6 5 2 0.560784 0.337255 0.231373
7 4 2 0.560784 0.337255 0.231373
7 4 3 0.560784 0.337255 0.231373
7 5 2 0.560784 0.337255 0.231373
8 4 2 0.560784 0.337255 0.231373
8 4 3 0.560784 0.337255 0.231373
8 5 2 0.560784 0.337255 0.231373
8 5 3 0.560784 0.337255 0.231373
4 6 2 0.560784 0.337255 0.231373
5 6 2 0.560784 0.337255 0.231373
4 6 3 0.560784 0.337255 0.231373
6 6 2 0.560784 0.337255 0.231373
7 6 2 0.560784 0.337255 0.231373
8 6 2 0.560784 0.337255 0.231373
8 6 3 0.560784 0.337255 0.231373
4 7 2 0.560784 0.337255 0.231373
5 7 2 0.560784 0.337255 0.231373
4 7 3 0.560784 0.337255 0.231373
6 7 2 0.560784 0.337255 0.231373
7 7 2 0.560784 0.337255 0.231373
8 7 2 0.560784 0.337255 0.231373
8 7 3 0.560784 0.337255 0.231373
5 8 2 0.560784 0.337255 0.231373
4 8 2 0.560784 0.337255 0.231373
4 8 3 0.560784 0.337255 0.231373
5 8 3 0.560784 0.337255 0.231373
6 8 2 0.560784 0.337255 0.231373
7 8 2 0.560784 0.337255 0.231373
8 8 2 0.560784 0.337255 0.231373
7 8 3 0.560784 0.337255 0.231373
8 8 3 0.560784 0.337255 0.231373
6 9 2 0.294118 0.411765 0.184314
5 9 2 0.294118 0.411765 0.184314
5 9 3 0.294118 0.411765 0.184314
6 9 3 0.294118 0.411765 0.184314
5 8 2 0.294118 0.411765 0.184314
6 8 2 0.294118 0.411765 0.184314
6 8 3 0.294118 0.411765 0.184314
5 8 3 0.294118 0.411765 0.184314
7 9 2 0.294118 0.411765 0.184314
7 9 3 0.294118 0.411765 0.184314
7 8 2 0.294118 0.411765 0.184314
7 8 3 0.294118 0.411765 0.184314
5 4 4 0.560784 0.337255 0.231373
4 4 4 0.560784 0.337255 0.231373
4 5 4 0.560784 0.337255 0.231373
6 4 4 0.560784 0.337255 0.231373
7 4 4 0.560784 0.337255 0.231373
8 4 4 0.560784 0.337255 0.231373
8 5 4 0.560784 0.337255 0.231373
3 5 3 0.560784 0.337255 0.231373
3 5 4 0.560784 0.337255 0.231373
3 6 3 0.560784 0.337255 0.231373
3 6 4 0.560784 0.337255 0.231373
9 5 3 0.560784 0.337255 0.231373
9 5 4 0.560784 0.337255 0.231373
9 6 3 0.560784 0.337255 0.231373
9 6 4 0.560784 0.337255 0.231373
3 7 3 0.560784 0.337255 0.231373
3 7 4 0.560784 0.337255 0.231373
9 7 3 0.560784 0.337255 0.231373
9 7 4 0.560784 0.337255 0.231373
3 8 3 0.560784 0.337255 0.231373
3 8 4 0.560784 0.337255 0.231373
4 8 4 0.560784 0.337255 0.231373
4 7 4 0.560784 0.337255 0.231373
5 8 4 0.560784 0.337255 0.231373
6 8 3 0.560784 0.337255 0.231373
6 8 4 0.560784 0.337255 0.231373
7 8 4 0.560784 0.337255 0.231373
8 8 4 0.560784 0.337255 0.231373
9 8 3 0.560784 0.337255 0.231373
9 8 4 0.560784 0.337255 0.231373
8 7 4 0.560784 0.337255 0.231373
6 9 4 0.294118 0.411765 0.184314
5 9 4 0.294118 0.411765 0.184314
6 10 3 0.294118 0.411765 0.184314
5 10 3 0.294118 0.411765 0.184314
5 10 4 0.294118 0.411765 0.184314
6 10 4 0.294118 0.411765 0.184314
7 9 4 0.294118 0.411765 0.184314
7 10 3 0.294118 0.411765 0.184314
7 10 4 0.294118 0.411765 0.184314
5 4 5 0.560784 0.337255 0.231373
4 4 5 0.560784 0.337255 0.231373
5 5 5 0.560784 0.337255 0.231373
4 5 5 0.560784 0.337255 0.231373
6 4 5 0.560784 0.337255 0.231373
7 4 5 0.560784 0.337255 0.231373
8 4 5 0.560784 0.337255 0.231373
8 5 5 0.560784 0.337255 0.231373
7 5 5 0.560784 0.337255 0.231373
3 5 5 0.560784 0.337255 0.231373
4 6 5 0.560784 0.337255 0.231373
3 6 5 0.560784 0.337255 0.231373
9 5 5 0.560784 0.337255 0.231373
9 6 5 0.560784 0.337255 0.231373
8 6 5 0.560784 0.337255 0.231373
3 7 5 0.560784 0.337255 0.231373
4 7 5 0.560784 0.337255 0.231373
8 7 5 0.560784 0.337255 0.231373
9 7 5 0.560784 0.337255 0.231373
4 8 5 0.560784 0.337255 0.231373
5 8 5 0.560784 0.337255 0.231373
5 7 5 0.560784 0.337255 0.231373
6 8 5 0.560784 0.337255 0.231373
7 8 5 0.560784 0.337255 0.231373
8 8 5 0.560784 0.337255 0.231373
7 7 5 0.560784 0.337255 0.231373
6 4 6 0.560784 0.337255 0.231373
5 4 6 0.560784 0.337255 0.231373
5 5 6 0.560784 0.337255 0.231373
7 4 6 0.560784 0.337255 0.231373
7 5 6 0.560784 0.337255 0.231373
4 5 6 0.560784 0.337255 0.231373
5 6 6 0.560784 0.337255 0.231373
4 6 6 0.560784 0.337255 0.231373
8 5 6 0.560784 0.337255 0.231373
8 6 6 0.560784 0.337255 0.231373
7 6 6 0.560784 0.337255 0.231373
4 7 6 0.560784 0.337255 0.231373
5 7 6 0.560784 0.337255 0.231373
6 6 6 0.560784 0.337255 0.231373
6 7 6 0.560784 0.337255 0.231373
7 7 6 0.560784 0.337255 0.231373
8 7 6 0.560784 0.337255 0.231373
5 8 6 0.560784 0.337255 0.231373
6 8 6 0.560784 0.337255 0.231373
7 8 6 0.560784 0.337255 0.231373
5 3 6 0.560784 0.337255 0.231373
6 3 6 0.560784 0.337255 0.231373
6 3 7 0.560784 0.337255 0.231373
5 3 7 0.560784 0.337255 0.231373
5 4 7 0.560784 0.337255 0.231373
7 3 6 0.560784 0.337255 0.231373
7 3 7 0.560784 0.337255 0.231373
7 4 7 0.560784 0.337255 0.231373
5 5 7 0.560784 0.337255 0.231373
7 5 7 0.560784 0.337255 0.231373
5 6 7 0.560784 0.337255 0.231373
6 6 7 0.560784 0.337255 0.231373
6 5 7 0.560784 0.337255 0.231373
7 6 7 0.560784 0.337255 0.231373
5 1 7 0.874510 0.443137 0.149020
6 1 7 0.874510 0.443137 0.149020
6 1 8 0.874510 0.443137 0.149020
5 1 8 0.874510 0.443137 0.149020
5 2 7 0.874510 0.443137 0.149020
6 2 7 0.874510 0.443137 0.149020
6 2 8 0.874510 0.443137 0.149020
5 2 8 0.874510 0.443137 0.149020
7 1 7 0.874510 0.443137 0.149020
7 1 8 0.874510 0.443137 0.149020
7 2 7 0.874510 0.443137 0.149020
7 2 8 0.874510 0.443137 0.149020
4 2 7 0.560784 0.337255 0.231373
5 2 7 0.560784 0.337255 0.231373
5 2 8 0.560784 0.337255 0.231373
4 2 8 0.560784 0.337255 0.231373
4 3 7 0.560784 0.337255 0.231373
4 3 8 0.560784 0.337255 0.231373
6 2 7 0.560784 0.337255 0.231373
7 2 7 0.560784 0.337255 0.231373
8 2 7 0.560784 0.337255 0.231373
8 2 8 0.560784 0.337255 0.231373
7 2 8 0.560784 0.337255 0.231373
8 3 7 0.560784 0.337255 0.231373
8 3 8 0.560784 0.337255 0.231373
4 4 7 0.560784 0.337255 0.231373
4 4 8 0.560784 0.337255 0.231373
5 4 8 0.560784 0.337255 0.231373
8 4 7 0.560784 0.337255 0.231373
7 4 8 0.560784 0.337255 0.231373
8 4 8 0.560784 0.337255 0.231373
5 5 8 0.560784 0.337255 0.231373
6 5 8 0.560784 0.337255 0.231373
7 5 8 0.560784 0.337255 0.231373
4 2 8 0.000000 0.000000 0.000000
5 2 8 0.000000 0.000000 0.000000
5 2 9 0.000000 0.000000 0.000000
4 2 9 0.000000 0.000000 0.000000
5 3 9 0.000000 0.000000 0.000000
4 3 9 0.000000 0.000000 0.000000
4 3 8 0.000000 0.000000 0.000000
6 2 8 0.560784 0.337255 0.231373
6 2 9 0.560784 0.337255 0.231373
5 2 9 0.560784 0.337255 0.231373
7 2 9 0.560784 0.337255 0.231373
7 2 8 0.000000 0.000000 0.000000
8 2 8 0.000000 0.000000 0.000000
8 2 9 0.000000 0.000000 0.000000
7 2 9 0.000000 0.000000 0.000000
8 3 9 0.000000 0.000000 0.000000
7 3 9 0.000000 0.000000 0.000000
8 3 8 0.000000 0.000000 0.000000
4 4 9 0.560784 0.337255 0.231373
5 4 9 0.560784 0.337255 0.231373
5 3 9 0.560784 0.337255 0.231373
4 3 9 0.560784 0.337255 0.231373
7 4 9 0.560784 0.337255 0.231373
8 4 9 0.560784 0.337255 0.231373
8 3 9 0.560784 0.337255 0.231373
7 3 9 0.560784 0.337255 0.231373
5 5 9 0.560784 0.337255 0.231373
6 5 9 0.560784 0.337255 0.231373
6 4 9 0.560784 0.337255 0.231373
7 5 9 0.560784 0.337255 0.231373
6 2 10 0.560784 0.337255 0.231373
5 2 10 0.560784 0.337255 0.231373
6 3 10 0.560784 0.337255 0.231373
5 3 10 0.560784 0.337255 0.231373
7 2 10 0.560784 0.337255 0.231373
7 3 10 0.560784 0.337255 0.231373
5 4 10 0.560784 0.337255 0.231373
6 4 10 0.560784 0.337255 0.231373
7 4 10 0.560784 0.337255 0.231373
4 0 1 2 3
4 0 4 5 1
4 2 6 7 3
4 1 5 6 2
4 0 3 7 4
4 8 9 10 11
4 8 12 13 9
4 10 14 15 11
4 9 13 14 10
4 8 11 15 12
4 4 16 17 5
4 6 18 19 7
4 5 17 18 6
4 4 7 19 16
4 12 20 21 13
4 14 22 23 15
4 13 21 22 14
4 12 15 23 20
4 24 25 26 27
4 16 25 24 17
4 17 24 27 18
4 16 19 26 25
4 28 29 30 31
4 20 29 28 21
4 21 28 31 22
4 20 23 30 29
4 19 18 32 33
4 27 26 34 35
4 18 27 35 32
4 19 33 34 26
4 23 22 36 37
4 31 30 38 39
4 22 31 39 36
4 23 37 38 30
4 40 41 42 43
4 40 44 45 41
4 40 43 46 44
4 41 47 48 42
4 41 45 49 47
4 47 50 51 48
4 47 49 52 50
4 50 53 54 51
4 50 52 55 53
4 53 55 56 54
4 44 57 58 45
4 44 46 59 57
4 45 58 60 49
4 49 60 61 52
4 52 61 62 55
4 55 62 63 56
4 57 64 65 58
4 57 59 66 64
4 58 65 67 60
4 60 67 68 61
4 61 68 69 62
4 62 69 70 63
4 71 72 73 74
4 64 66 73 72
4 65 71 75 67
4 67 75 76 68
4 77 76 78 79
4 69 77 79 70
4 80 81 82 83
4 84 81 80 85
4 86 83 82 87
4 84 87 82 81
4 88 80 83 89
4 85 80 88 90
4 91 89 83 86
4 90 88 89 91
4 43 42 92 93
4 43 93 94 46
4 42 48 95 92
4 48 51 96 95
4 51 54 97 96
4 54 56 98 97
4 99 46 94 100
4 99 101 59 46
4 99 100 102 101
4 56 103 104 98
4 56 63 105 103
4 103 105 106 104
4 101 107 66 59
4 101 102 108 107
4 63 70 109 105
4 105 109 110 106
4 73 111 112 113
4 107 111 73 66
4 114 113 112 108
4 107 108 112 111
4 74 73 113 115
4 116 74 115 117
4 78 116 117 118
4 79 78 118 119
4 120 79 119 121
4 70 79 120 109
4 110 121 119 122
4 109 120 121 110
4 82 83 123 124
4 125 126 127 128
4 82 126 125 83
4 123 128 127 124
4 82 124 127 126
4 83 89 129 123
4 130 125 128 131
4 83 125 130 89
4 129 131 128 123
4 89 130 131 129
4 93 92 132 133
4 132 134 135 133
4 93 133 135 94
4 92 95 136 132
4 95 96 137 136
4 96 97 138 137
4 138 139 140 137
4 97 98 139 138
4 100 94 135 141
4 135 142 143 141
4 100 141 143 102
4 98 104 144 139
4 144 145 146 139
4 104 106 145 144
4 114 108 147 148
4 142 148 147 143
4 102 143 147 108
4 110 122 149 150
4 145 150 149 146
4 106 110 150 145
4 115 113 151 152
4 153 152 151 148
4 114 148 151 113
4 117 115 152 154
4 118 117 154 155
4 119 118 155 156
4 149 156 155 157
4 122 119 156 149
4 132 136 158 159
4 132 159 160 134
4 136 137 161 158
4 137 140 162 161
4 135 134 160 163
4 160 164 165 163
4 135 163 165 142
4 140 139 166 162
4 166 167 168 162
4 139 146 167 166
4 153 148 169 170
4 164 170 169 165
4 142 165 169 148
4 171 172 170 164
4 168 173 172 171
4 149 157 173 174
4 167 174 173 168
4 146 149 174 167
4 154 152 175 176
4 172 176 175 170
4 153 170 175 152
4 155 154 176 177
4 173 177 176 172
4 157 155 177 173
4 178 179 180 181
4 178 159 158 179
4 178 181 182 159
4 179 183 184 180
4 179 158 161 183
4 183 161 185 184
4 159 182 186 160
4 161 162 187 185
4 171 164 188 189
4 190 189 188 186
4 160 186 188 164
4 168 171 189 191
4 187 191 189 190
4 162 168 191 187
4 192 193 194 195
4 192 196 197 193
4 194 198 199 195
4 192 195 199 196
4 193 200 201 194
4 193 197 202 200
4 201 203 198 194
4 200 202 203 201
4 204 205 206 207
4 204 208 181 205
4 204 207 209 208
4 205 181 180 210
4 210 180 184 211
4 211 212 213 214
4 211 184 215 212
4 212 215 216 213
4 182 217 218 219
4 208 217 182 181
4 208 209 218 217
4 220 185 221 222
4 184 185 220 215
4 215 220 222 216
4 190 186 223 224
4 182 219 223 186
4 187 190 224 225
4 185 187 225 221
4 226 227 228 229
4 228 230 231 229
4 226 229 231 232
4 206 233 234 235
4 233 214 236 234
4 237 238 239 240
4 239 241 242 240
4 238 243 241 239
4 219 218 244 245
4 246 245 244 247
4 209 247 244 218
4 222 221 248 249
4 250 249 248 251
4 216 222 249 250
4 224 223 252 253
4 254 253 252 245
4 219 245 252 223
4 225 224 253 255
4 248 255 253 254
4 221 225 255 248
4 235 234 256 257
4 256 258 259 257
4 235 257 259 246
4 234 236 260 256
4 260 261 258 256
4 236 251 261 260
4 254 245 262 263
4 258 263 262 259
4 246 259 262 245
4 248 254 263 264
4 261 264 263 258
4 251 248 264 261
