ply
format ascii 1.0
comment Generated from Goxel 0.10.6
element vertex 340
property float x
property float y
property float z
property float red
property float green
property float blue
element face 302
property list uchar int vertex_indices
end_header
3 2 0 0.560784 0.337255 0.231373
4 2 0 0.560784 0.337255 0.231373
4 2 1 0.560784 0.337255 0.231373
3 2 1 0.560784 0.337255 0.231373
3 3 0 0.560784 0.337255 0.231373
4 3 0 0.560784 0.337255 0.231373
4 3 1 0.560784 0.337255 0.231373
3 3 1 0.560784 0.337255 0.231373
7 2 0 0.560784 0.337255 0.231373
8 2 0 0.560784 0.337255 0.231373
8 2 1 0.560784 0.337255 0.231373
7 2 1 0.560784 0.337255 0.231373
7 3 0 0.560784 0.337255 0.231373
8 3 0 0.560784 0.337255 0.231373
8 3 1 0.560784 0.337255 0.231373
7 3 1 0.560784 0.337255 0.231373
4 4 0 0.560784 0.337255 0.231373
3 4 0 0.560784 0.337255 0.231373
3 4 1 0.560784 0.337255 0.231373
4 4 1 0.560784 0.337255 0.231373
8 4 0 0.560784 0.337255 0.231373
7 4 0 0.560784 0.337255 0.231373
7 4 1 0.560784 0.337255 0.231373
8 4 1 0.560784 0.337255 0.231373
3 7 0 0.560784 0.337255 0.231373
4 7 0 0.560784 0.337255 0.231373
4 7 1 0.560784 0.337255 0.231373
3 7 1 0.560784 0.337255 0.231373
3 8 0 0.560784 0.337255 0.231373
4 8 0 0.560784 0.337255 0.231373
4 8 1 0.560784 0.337255 0.231373
3 8 1 0.560784 0.337255 0.231373
7 7 0 0.560784 0.337255 0.231373
8 7 0 0.560784 0.337255 0.231373
8 7 1 0.560784 0.337255 0.231373
7 7 1 0.560784 0.337255 0.231373
7 8 0 0.560784 0.337255 0.231373
8 8 0 0.560784 0.337255 0.231373
8 8 1 0.560784 0.337255 0.231373
7 8 1 0.560784 0.337255 0.231373
4 9 0 0.560784 0.337255 0.231373
3 9 0 0.560784 0.337255 0.231373
3 9 1 0.560784 0.337255 0.231373
4 9 1 0.560784 0.337255 0.231373
8 9 0 0.560784 0.337255 0.231373
7 9 0 0.560784 0.337255 0.231373
7 9 1 0.560784 0.337255 0.231373
8 9 1 0.560784 0.337255 0.231373
4 3 2 0.560784 0.337255 0.231373
3 3 2 0.560784 0.337255 0.231373
3 4 2 0.560784 0.337255 0.231373
4 4 2 0.560784 0.337255 0.231373
8 3 2 0.560784 0.337255 0.231373
7 3 2 0.560784 0.337255 0.231373
7 4 2 0.560784 0.337255 0.231373
8 4 2 0.560784 0.337255 0.231373
4 8 2 0.560784 0.337255 0.231373
3 8 2 0.560784 0.337255 0.231373
3 9 2 0.560784 0.337255 0.231373
4 9 2 0.560784 0.337255 0.231373
8 8 2 0.560784 0.337255 0.231373
7 8 2 0.560784 0.337255 0.231373
7 9 2 0.560784 0.337255 0.231373
8 9 2 0.560784 0.337255 0.231373
4 3 3 0.560784 0.337255 0.231373
3 3 3 0.560784 0.337255 0.231373
3 4 3 0.560784 0.337255 0.231373
4 4 3 0.560784 0.337255 0.231373
8 3 3 0.560784 0.337255 0.231373
7 3 3 0.560784 0.337255 0.231373
7 4 3 0.560784 0.337255 0.231373
8 4 3 0.560784 0.337255 0.231373
4 8 3 0.560784 0.337255 0.231373
3 8 3 0.560784 0.337255 0.231373
3 9 3 0.560784 0.337255 0.231373
4 9 3 0.560784 0.337255 0.231373
8 8 3 0.560784 0.337255 0.231373
7 8 3 0.560784 0.337255 0.231373
7 9 3 0.560784 0.337255 0.231373
8 9 3 0.560784 0.337255 0.231373
3 2 3 0.560784 0.337255 0.231373
4 2 3 0.560784 0.337255 0.231373
4 2 4 0.560784 0.337255 0.231373
3 2 4 0.560784 0.337255 0.231373
3 3 4 0.560784 0.337255 0.231373
5 2 3 0.560784 0.337255 0.231373
5 2 4 0.560784 0.337255 0.231373
5 3 3 0.560784 0.337255 0.231373
6 2 3 0.560784 0.337255 0.231373
6 2 4 0.560784 0.337255 0.231373
6 3 3 0.560784 0.337255 0.231373
7 2 3 0.560784 0.337255 0.231373
7 2 4 0.560784 0.337255 0.231373
8 2 3 0.560784 0.337255 0.231373
8 2 4 0.560784 0.337255 0.231373
8 3 4 0.560784 0.337255 0.231373
3 4 4 0.560784 0.337255 0.231373
5 4 3 0.560784 0.337255 0.231373
6 4 3 0.560784 0.337255 0.231373
8 4 4 0.560784 0.337255 0.231373
3 5 3 0.560784 0.337255 0.231373
4 5 3 0.560784 0.337255 0.231373
3 5 4 0.560784 0.337255 0.231373
5 5 3 0.560784 0.337255 0.231373
6 5 3 0.560784 0.337255 0.231373
7 5 3 0.560784 0.337255 0.231373
8 5 3 0.560784 0.337255 0.231373
8 5 4 0.560784 0.337255 0.231373
3 6 3 0.560784 0.337255 0.231373
4 6 3 0.560784 0.337255 0.231373
3 6 4 0.560784 0.337255 0.231373
5 6 3 0.560784 0.337255 0.231373
6 6 3 0.560784 0.337255 0.231373
7 6 3 0.560784 0.337255 0.231373
8 6 3 0.560784 0.337255 0.231373
8 6 4 0.560784 0.337255 0.231373
3 7 3 0.560784 0.337255 0.231373
4 7 3 0.560784 0.337255 0.231373
3 7 4 0.560784 0.337255 0.231373
5 7 3 0.560784 0.337255 0.231373
6 7 3 0.560784 0.337255 0.231373
7 7 3 0.560784 0.337255 0.231373
8 7 3 0.560784 0.337255 0.231373
8 7 4 0.560784 0.337255 0.231373
3 8 4 0.560784 0.337255 0.231373
5 8 3 0.560784 0.337255 0.231373
6 8 3 0.560784 0.337255 0.231373
8 8 4 0.560784 0.337255 0.231373
3 9 4 0.560784 0.337255 0.231373
4 9 4 0.560784 0.337255 0.231373
5 9 3 0.560784 0.337255 0.231373
5 9 4 0.560784 0.337255 0.231373
6 9 3 0.560784 0.337255 0.231373
6 9 4 0.560784 0.337255 0.231373
7 9 4 0.560784 0.337255 0.231373
8 9 4 0.560784 0.337255 0.231373
4 0 4 0.850980 0.627451 0.400000
5 0 4 0.850980 0.627451 0.400000
5 0 5 0.850980 0.627451 0.400000
4 0 5 0.850980 0.627451 0.400000
4 1 4 0.850980 0.627451 0.400000
5 1 4 0.850980 0.627451 0.400000
4 1 5 0.850980 0.627451 0.400000
6 0 4 0.850980 0.627451 0.400000
6 0 5 0.850980 0.627451 0.400000
6 1 4 0.850980 0.627451 0.400000
7 0 4 0.850980 0.627451 0.400000
7 0 5 0.850980 0.627451 0.400000
7 1 4 0.850980 0.627451 0.400000
7 1 5 0.850980 0.627451 0.400000
3 1 4 0.560784 0.337255 0.231373
4 1 4 0.560784 0.337255 0.231373
4 1 5 0.560784 0.337255 0.231373
3 1 5 0.560784 0.337255 0.231373
3 2 5 0.560784 0.337255 0.231373
5 1 4 0.560784 0.337255 0.231373
6 1 4 0.560784 0.337255 0.231373
7 1 4 0.560784 0.337255 0.231373
8 1 4 0.560784 0.337255 0.231373
8 1 5 0.560784 0.337255 0.231373
7 1 5 0.560784 0.337255 0.231373
8 2 5 0.560784 0.337255 0.231373
3 3 5 0.560784 0.337255 0.231373
8 3 5 0.560784 0.337255 0.231373
3 4 5 0.560784 0.337255 0.231373
8 4 5 0.560784 0.337255 0.231373
3 5 5 0.560784 0.337255 0.231373
8 5 5 0.560784 0.337255 0.231373
4 5 5 0.560784 0.337255 0.231373
4 6 5 0.560784 0.337255 0.231373
3 6 5 0.560784 0.337255 0.231373
5 5 5 0.560784 0.337255 0.231373
5 6 5 0.560784 0.337255 0.231373
6 5 5 0.560784 0.337255 0.231373
6 6 5 0.560784 0.337255 0.231373
7 5 5 0.560784 0.337255 0.231373
7 6 5 0.560784 0.337255 0.231373
8 6 5 0.560784 0.337255 0.231373
4 7 5 0.560784 0.337255 0.231373
3 7 5 0.560784 0.337255 0.231373
5 7 5 0.560784 0.337255 0.231373
6 7 5 0.560784 0.337255 0.231373
7 7 5 0.560784 0.337255 0.231373
8 7 5 0.560784 0.337255 0.231373
4 8 5 0.560784 0.337255 0.231373
3 8 5 0.560784 0.337255 0.231373
5 8 5 0.560784 0.337255 0.231373
6 8 5 0.560784 0.337255 0.231373
7 8 5 0.560784 0.337255 0.231373
8 8 5 0.560784 0.337255 0.231373
3 9 5 0.560784 0.337255 0.231373
4 9 5 0.560784 0.337255 0.231373
5 9 5 0.560784 0.337255 0.231373
6 9 5 0.560784 0.337255 0.231373
7 9 5 0.560784 0.337255 0.231373
8 9 5 0.560784 0.337255 0.231373
5 10 4 0.560784 0.337255 0.231373
6 10 4 0.560784 0.337255 0.231373
6 10 5 0.560784 0.337255 0.231373
5 10 5 0.560784 0.337255 0.231373
6 11 4 0.560784 0.337255 0.231373
5 11 4 0.560784 0.337255 0.231373
5 11 5 0.560784 0.337255 0.231373
6 11 5 0.560784 0.337255 0.231373
5 0 6 0.850980 0.627451 0.400000
4 0 6 0.850980 0.627451 0.400000
5 1 6 0.850980 0.627451 0.400000
4 1 6 0.850980 0.627451 0.400000
6 0 6 0.850980 0.627451 0.400000
7 0 6 0.850980 0.627451 0.400000
7 1 6 0.850980 0.627451 0.400000
6 1 6 0.850980 0.627451 0.400000
4 1 6 0.560784 0.337255 0.231373
3 1 6 0.560784 0.337255 0.231373
3 2 6 0.560784 0.337255 0.231373
8 1 6 0.560784 0.337255 0.231373
7 1 6 0.560784 0.337255 0.231373
8 2 6 0.560784 0.337255 0.231373
3 3 6 0.560784 0.337255 0.231373
8 3 6 0.560784 0.337255 0.231373
3 4 6 0.560784 0.337255 0.231373
8 4 6 0.560784 0.337255 0.231373
3 5 6 0.560784 0.337255 0.231373
4 5 6 0.560784 0.337255 0.231373
5 5 6 0.560784 0.337255 0.231373
6 5 6 0.560784 0.337255 0.231373
7 5 6 0.560784 0.337255 0.231373
8 5 6 0.560784 0.337255 0.231373
6 10 6 0.560784 0.337255 0.231373
5 10 6 0.560784 0.337255 0.231373
5 11 6 0.560784 0.337255 0.231373
6 11 6 0.560784 0.337255 0.231373
5 0 6 0.000000 0.000000 0.000000
6 0 6 0.000000 0.000000 0.000000
6 0 7 0.000000 0.000000 0.000000
5 0 7 0.000000 0.000000 0.000000
6 1 7 0.000000 0.000000 0.000000
5 1 7 0.000000 0.000000 0.000000
6 1 6 0.000000 0.000000 0.000000
5 1 6 0.000000 0.000000 0.000000
4 1 7 0.560784 0.337255 0.231373
3 1 7 0.560784 0.337255 0.231373
4 2 7 0.560784 0.337255 0.231373
3 2 7 0.560784 0.337255 0.231373
5 1 6 0.560784 0.337255 0.231373
5 1 7 0.560784 0.337255 0.231373
5 2 7 0.560784 0.337255 0.231373
6 1 7 0.560784 0.337255 0.231373
6 2 7 0.560784 0.337255 0.231373
6 1 6 0.560784 0.337255 0.231373
7 1 7 0.560784 0.337255 0.231373
7 2 7 0.560784 0.337255 0.231373
8 1 7 0.560784 0.337255 0.231373
8 2 7 0.560784 0.337255 0.231373
3 3 7 0.560784 0.337255 0.231373
8 3 7 0.560784 0.337255 0.231373
3 4 7 0.560784 0.337255 0.231373
8 4 7 0.560784 0.337255 0.231373
3 5 7 0.560784 0.337255 0.231373
4 5 7 0.560784 0.337255 0.231373
5 5 7 0.560784 0.337255 0.231373
6 5 7 0.560784 0.337255 0.231373
7 5 7 0.560784 0.337255 0.231373
8 5 7 0.560784 0.337255 0.231373
6 10 7 0.560784 0.337255 0.231373
5 10 7 0.560784 0.337255 0.231373
5 11 7 0.560784 0.337255 0.231373
6 11 7 0.560784 0.337255 0.231373
4 2 8 0.560784 0.337255 0.231373
3 2 8 0.560784 0.337255 0.231373
3 3 8 0.560784 0.337255 0.231373
4 2 7 0.000000 0.000000 0.000000
5 2 7 0.000000 0.000000 0.000000
5 2 8 0.000000 0.000000 0.000000
4 2 8 0.000000 0.000000 0.000000
6 2 8 0.560784 0.337255 0.231373
5 2 8 0.560784 0.337255 0.231373
6 2 7 0.000000 0.000000 0.000000
7 2 7 0.000000 0.000000 0.000000
7 2 8 0.000000 0.000000 0.000000
6 2 8 0.000000 0.000000 0.000000
8 2 8 0.560784 0.337255 0.231373
7 2 8 0.560784 0.337255 0.231373
8 3 8 0.560784 0.337255 0.231373
3 4 8 0.560784 0.337255 0.231373
8 4 8 0.560784 0.337255 0.231373
3 5 8 0.560784 0.337255 0.231373
4 5 8 0.560784 0.337255 0.231373
5 5 8 0.560784 0.337255 0.231373
6 5 8 0.560784 0.337255 0.231373
7 5 8 0.560784 0.337255 0.231373
8 5 8 0.560784 0.337255 0.231373
4 2 9 0.560784 0.337255 0.231373
3 2 9 0.560784 0.337255 0.231373
4 3 9 0.560784 0.337255 0.231373
3 3 9 0.560784 0.337255 0.231373
5 2 9 0.560784 0.337255 0.231373
5 3 9 0.560784 0.337255 0.231373
6 2 9 0.560784 0.337255 0.231373
6 3 9 0.560784 0.337255 0.231373
7 2 9 0.560784 0.337255 0.231373
7 3 9 0.560784 0.337255 0.231373
8 2 9 0.560784 0.337255 0.231373
8 3 9 0.560784 0.337255 0.231373
3 4 9 0.560784 0.337255 0.231373
5 4 9 0.560784 0.337255 0.231373
4 4 9 0.560784 0.337255 0.231373
6 4 9 0.560784 0.337255 0.231373
7 4 9 0.560784 0.337255 0.231373
8 4 9 0.560784 0.337255 0.231373
3 5 9 0.560784 0.337255 0.231373
4 5 9 0.560784 0.337255 0.231373
5 5 9 0.560784 0.337255 0.231373
6 5 9 0.560784 0.337255 0.231373
7 5 9 0.560784 0.337255 0.231373
8 5 9 0.560784 0.337255 0.231373
3 3 9 0.850980 0.627451 0.400000
4 3 9 0.850980 0.627451 0.400000
4 3 10 0.850980 0.627451 0.400000
3 3 10 0.850980 0.627451 0.400000
4 4 10 0.850980 0.627451 0.400000
3 4 10 0.850980 0.627451 0.400000
4 4 9 0.850980 0.627451 0.400000
3 4 9 0.850980 0.627451 0.400000
7 3 9 0.850980 0.627451 0.400000
8 3 9 0.850980 0.627451 0.400000
8 3 10 0.850980 0.627451 0.400000
7 3 10 0.850980 0.627451 0.400000
8 4 10 0.850980 0.627451 0.400000
7 4 10 0.850980 0.627451 0.400000
8 4 9 0.850980 0.627451 0.400000
7 4 9 0.850980 0.627451 0.400000
4 5 9 0.850980 0.627451 0.400000
3 5 9 0.850980 0.627451 0.400000
3 5 10 0.850980 0.627451 0.400000
4 5 10 0.850980 0.627451 0.400000
8 5 9 0.850980 0.627451 0.400000
7 5 9 0.850980 0.627451 0.400000
7 5 10 0.850980 0.627451 0.400000
8 5 10 0.850980 0.627451 0.400000
4 0 1 2 3
4 0 4 5 1
4 2 6 7 3
4 1 5 6 2
4 0 3 7 4
4 8 9 10 11
4 8 12 13 9
4 10 14 15 11
4 9 13 14 10
4 8 11 15 12
4 16 17 18 19
4 4 17 16 5
4 5 16 19 6
4 4 7 18 17
4 20 21 22 23
4 12 21 20 13
4 13 20 23 14
4 12 15 22 21
4 24 25 26 27
4 24 28 29 25
4 26 30 31 27
4 25 29 30 26
4 24 27 31 28
4 32 33 34 35
4 32 36 37 33
4 34 38 39 35
4 33 37 38 34
4 32 35 39 36
4 40 41 42 43
4 28 41 40 29
4 29 40 43 30
4 28 31 42 41
4 44 45 46 47
4 36 45 44 37
4 37 44 47 38
4 36 39 46 45
4 7 6 48 49
4 19 18 50 51
4 6 19 51 48
4 7 49 50 18
4 15 14 52 53
4 23 22 54 55
4 14 23 55 52
4 15 53 54 22
4 31 30 56 57
4 43 42 58 59
4 30 43 59 56
4 31 57 58 42
4 39 38 60 61
4 47 46 62 63
4 38 47 63 60
4 39 61 62 46
4 49 48 64 65
4 51 50 66 67
4 48 51 67 64
4 49 65 66 50
4 53 52 68 69
4 55 54 70 71
4 52 55 71 68
4 53 69 70 54
4 57 56 72 73
4 59 58 74 75
4 56 59 75 72
4 57 73 74 58
4 61 60 76 77
4 63 62 78 79
4 60 63 79 76
4 61 77 78 62
4 80 81 82 83
4 80 65 64 81
4 80 83 84 65
4 81 85 86 82
4 81 64 87 85
4 85 88 89 86
4 85 87 90 88
4 88 91 92 89
4 88 90 69 91
4 91 93 94 92
4 91 69 68 93
4 93 68 95 94
4 65 84 96 66
4 64 67 97 87
4 87 97 98 90
4 90 98 70 69
4 68 71 99 95
4 66 100 101 67
4 66 96 102 100
4 67 101 103 97
4 97 103 104 98
4 98 104 105 70
4 70 105 106 71
4 71 106 107 99
4 100 108 109 101
4 100 102 110 108
4 101 109 111 103
4 103 111 112 104
4 104 112 113 105
4 105 113 114 106
4 106 114 115 107
4 108 116 117 109
4 108 110 118 116
4 109 117 119 111
4 111 119 120 112
4 112 120 121 113
4 113 121 122 114
4 114 122 123 115
4 116 73 72 117
4 116 118 124 73
4 117 72 125 119
4 119 125 126 120
4 120 126 77 121
4 121 77 76 122
4 122 76 127 123
4 75 74 128 129
4 73 124 128 74
4 130 75 129 131
4 72 75 130 125
4 132 130 131 133
4 125 130 132 126
4 78 132 133 134
4 126 132 78 77
4 79 78 134 135
4 76 79 135 127
4 136 137 138 139
4 136 140 141 137
4 136 139 142 140
4 137 143 144 138
4 137 141 145 143
4 143 146 147 144
4 143 145 148 146
4 146 148 149 147
4 150 151 152 153
4 150 83 82 151
4 150 153 154 83
4 151 82 86 155
4 155 86 89 156
4 156 89 92 157
4 157 158 159 160
4 157 92 94 158
4 158 94 161 159
4 83 154 162 84
4 94 95 163 161
4 84 162 164 96
4 95 99 165 163
4 96 164 166 102
4 99 107 167 165
4 168 169 170 166
4 102 166 170 110
4 171 172 169 168
4 173 174 172 171
4 175 176 174 173
4 167 177 176 175
4 107 115 177 167
4 169 178 179 170
4 110 170 179 118
4 172 180 178 169
4 174 181 180 172
4 176 182 181 174
4 177 183 182 176
4 115 123 183 177
4 178 184 185 179
4 118 179 185 124
4 180 186 184 178
4 181 187 186 180
4 182 188 187 181
4 183 189 188 182
4 123 127 189 183
4 129 128 190 191
4 184 191 190 185
4 124 185 190 128
4 131 129 191 192
4 186 192 191 184
4 187 193 192 186
4 134 133 193 194
4 188 194 193 187
4 135 134 194 195
4 189 195 194 188
4 127 135 195 189
4 131 196 197 133
4 193 198 199 192
4 133 197 198 193
4 131 192 199 196
4 200 201 202 203
4 196 201 200 197
4 197 200 203 198
4 196 199 202 201
4 139 138 204 205
4 204 206 207 205
4 139 205 207 142
4 138 144 208 204
4 144 147 209 208
4 209 210 211 208
4 147 149 210 209
4 153 152 212 213
4 153 213 214 154
4 160 159 215 216
4 159 161 217 215
4 154 214 218 162
4 161 163 219 217
4 162 218 220 164
4 163 165 221 219
4 168 166 222 223
4 164 220 222 166
4 171 168 223 224
4 173 171 224 225
4 175 173 225 226
4 167 175 226 227
4 165 167 227 221
4 199 198 228 229
4 203 202 230 231
4 198 203 231 228
4 199 229 230 202
4 232 233 234 235
4 234 236 237 235
4 233 238 236 234
4 232 235 237 239
4 213 212 240 241
4 240 242 243 241
4 213 241 243 214
4 212 244 245 240
4 245 246 242 240
4 247 248 246 245
4 249 216 250 247
4 250 251 248 247
4 216 215 252 250
4 252 253 251 250
4 215 217 253 252
4 214 243 254 218
4 217 219 255 253
4 218 254 256 220
4 219 221 257 255
4 223 222 258 259
4 220 256 258 222
4 224 223 259 260
4 225 224 260 261
4 226 225 261 262
4 227 226 262 263
4 221 227 263 257
4 229 228 264 265
4 231 230 266 267
4 264 267 266 265
4 228 231 267 264
4 229 265 266 230
4 243 242 268 269
4 243 269 270 254
4 271 272 273 274
4 246 248 275 276
4 277 278 279 280
4 251 253 281 282
4 253 255 283 281
4 254 270 284 256
4 255 257 285 283
4 259 258 286 287
4 256 284 286 258
4 260 259 287 288
4 261 260 288 289
4 262 261 289 290
4 263 262 290 291
4 257 263 291 285
4 269 268 292 293
4 292 294 295 293
4 269 293 295 270
4 268 276 296 292
4 296 297 294 292
4 276 275 298 296
4 298 299 297 296
4 275 282 300 298
4 300 301 299 298
4 282 281 302 300
4 302 303 301 300
4 281 283 303 302
4 270 295 304 284
4 297 305 306 294
4 299 307 305 297
4 301 308 307 299
4 283 285 309 303
4 287 286 310 311
4 284 304 310 286
4 288 287 311 312
4 305 312 311 306
4 289 288 312 313
4 307 313 312 305
4 290 289 313 314
4 308 314 313 307
4 291 290 314 315
4 285 291 315 309
4 316 317 318 319
4 318 320 321 319
4 317 322 320 318
4 316 319 321 323
4 324 325 326 327
4 326 328 329 327
4 325 330 328 326
4 324 327 329 331
4 332 333 334 335
4 320 335 334 321
4 322 332 335 320
4 323 321 334 333
4 336 337 338 339
4 328 339 338 329
4 330 336 339 328
4 331 329 338 337
