ply
format ascii 1.0
comment Generated from Goxel 0.10.6
element vertex 405
property float x
property float y
property float z
property float red
property float green
property float blue
element face 332
property list uchar int vertex_indices
end_header
2 4 0 0.874510 0.443137 0.149020
3 4 0 0.874510 0.443137 0.149020
3 4 1 0.874510 0.443137 0.149020
2 4 1 0.874510 0.443137 0.149020
2 5 0 0.874510 0.443137 0.149020
3 5 0 0.874510 0.443137 0.149020
3 5 1 0.874510 0.443137 0.149020
2 5 1 0.874510 0.443137 0.149020
4 4 0 0.874510 0.443137 0.149020
4 4 1 0.874510 0.443137 0.149020
4 5 0 0.874510 0.443137 0.149020
4 5 1 0.874510 0.443137 0.149020
5 4 0 0.874510 0.443137 0.149020
5 4 1 0.874510 0.443137 0.149020
5 5 0 0.874510 0.443137 0.149020
5 5 1 0.874510 0.443137 0.149020
6 4 0 0.874510 0.443137 0.149020
7 4 0 0.874510 0.443137 0.149020
7 4 1 0.874510 0.443137 0.149020
6 4 1 0.874510 0.443137 0.149020
6 5 0 0.874510 0.443137 0.149020
7 5 0 0.874510 0.443137 0.149020
7 5 1 0.874510 0.443137 0.149020
6 5 1 0.874510 0.443137 0.149020
8 4 0 0.874510 0.443137 0.149020
8 4 1 0.874510 0.443137 0.149020
8 5 0 0.874510 0.443137 0.149020
8 5 1 0.874510 0.443137 0.149020
9 4 0 0.874510 0.443137 0.149020
9 4 1 0.874510 0.443137 0.149020
9 5 0 0.874510 0.443137 0.149020
9 5 1 0.874510 0.443137 0.149020
2 6 0 0.874510 0.443137 0.149020
3 6 0 0.874510 0.443137 0.149020
3 6 1 0.874510 0.443137 0.149020
2 6 1 0.874510 0.443137 0.149020
4 6 0 0.874510 0.443137 0.149020
4 6 1 0.874510 0.443137 0.149020
5 6 0 0.874510 0.443137 0.149020
5 6 1 0.874510 0.443137 0.149020
6 6 0 0.874510 0.443137 0.149020
7 6 0 0.874510 0.443137 0.149020
7 6 1 0.874510 0.443137 0.149020
6 6 1 0.874510 0.443137 0.149020
8 6 0 0.874510 0.443137 0.149020
8 6 1 0.874510 0.443137 0.149020
9 6 0 0.874510 0.443137 0.149020
9 6 1 0.874510 0.443137 0.149020
3 7 0 0.874510 0.443137 0.149020
2 7 0 0.874510 0.443137 0.149020
2 7 1 0.874510 0.443137 0.149020
3 7 1 0.874510 0.443137 0.149020
4 7 0 0.874510 0.443137 0.149020
4 7 1 0.874510 0.443137 0.149020
5 7 0 0.874510 0.443137 0.149020
5 7 1 0.874510 0.443137 0.149020
7 7 0 0.874510 0.443137 0.149020
6 7 0 0.874510 0.443137 0.149020
6 7 1 0.874510 0.443137 0.149020
7 7 1 0.874510 0.443137 0.149020
8 7 0 0.874510 0.443137 0.149020
8 7 1 0.874510 0.443137 0.149020
9 7 0 0.874510 0.443137 0.149020
9 7 1 0.874510 0.443137 0.149020
4 6 2 0.874510 0.443137 0.149020
3 6 2 0.874510 0.443137 0.149020
3 7 2 0.874510 0.443137 0.149020
4 7 2 0.874510 0.443137 0.149020
8 6 2 0.874510 0.443137 0.149020
7 6 2 0.874510 0.443137 0.149020
7 7 2 0.874510 0.443137 0.149020
8 7 2 0.874510 0.443137 0.149020
3 3 2 0.400000 0.223529 0.192157
4 3 2 0.400000 0.223529 0.192157
4 3 3 0.400000 0.223529 0.192157
3 3 3 0.400000 0.223529 0.192157
3 4 2 0.400000 0.223529 0.192157
4 4 2 0.400000 0.223529 0.192157
3 4 3 0.400000 0.223529 0.192157
5 3 2 0.400000 0.223529 0.192157
5 3 3 0.400000 0.223529 0.192157
5 4 2 0.400000 0.223529 0.192157
5 4 3 0.400000 0.223529 0.192157
6 3 2 0.400000 0.223529 0.192157
7 3 2 0.400000 0.223529 0.192157
7 3 3 0.400000 0.223529 0.192157
6 3 3 0.400000 0.223529 0.192157
6 4 2 0.400000 0.223529 0.192157
7 4 2 0.400000 0.223529 0.192157
6 4 3 0.400000 0.223529 0.192157
8 3 2 0.400000 0.223529 0.192157
8 3 3 0.400000 0.223529 0.192157
8 4 2 0.400000 0.223529 0.192157
8 4 3 0.400000 0.223529 0.192157
2 4 2 0.400000 0.223529 0.192157
2 4 3 0.400000 0.223529 0.192157
2 5 2 0.400000 0.223529 0.192157
3 5 2 0.400000 0.223529 0.192157
2 5 3 0.400000 0.223529 0.192157
4 5 2 0.400000 0.223529 0.192157
5 5 2 0.400000 0.223529 0.192157
5 5 3 0.400000 0.223529 0.192157
6 5 2 0.400000 0.223529 0.192157
7 5 2 0.400000 0.223529 0.192157
6 5 3 0.400000 0.223529 0.192157
8 5 2 0.400000 0.223529 0.192157
8 5 3 0.400000 0.223529 0.192157
7 5 3 0.400000 0.223529 0.192157
7 4 3 0.400000 0.223529 0.192157
9 4 2 0.400000 0.223529 0.192157
9 4 3 0.400000 0.223529 0.192157
9 5 2 0.400000 0.223529 0.192157
9 5 3 0.400000 0.223529 0.192157
2 6 2 0.400000 0.223529 0.192157
3 6 2 0.400000 0.223529 0.192157
2 6 3 0.400000 0.223529 0.192157
4 6 2 0.400000 0.223529 0.192157
5 6 2 0.400000 0.223529 0.192157
5 6 3 0.400000 0.223529 0.192157
6 6 2 0.400000 0.223529 0.192157
7 6 2 0.400000 0.223529 0.192157
6 6 3 0.400000 0.223529 0.192157
8 6 2 0.400000 0.223529 0.192157
9 6 2 0.400000 0.223529 0.192157
9 6 3 0.400000 0.223529 0.192157
3 7 2 0.400000 0.223529 0.192157
2 7 2 0.400000 0.223529 0.192157
2 7 3 0.400000 0.223529 0.192157
3 7 3 0.400000 0.223529 0.192157
5 7 2 0.400000 0.223529 0.192157
4 7 2 0.400000 0.223529 0.192157
4 7 3 0.400000 0.223529 0.192157
5 7 3 0.400000 0.223529 0.192157
7 7 2 0.400000 0.223529 0.192157
6 7 2 0.400000 0.223529 0.192157
6 7 3 0.400000 0.223529 0.192157
7 7 3 0.400000 0.223529 0.192157
9 7 2 0.400000 0.223529 0.192157
8 7 2 0.400000 0.223529 0.192157
8 7 3 0.400000 0.223529 0.192157
9 7 3 0.400000 0.223529 0.192157
4 8 2 0.400000 0.223529 0.192157
3 8 2 0.400000 0.223529 0.192157
3 8 3 0.400000 0.223529 0.192157
4 8 3 0.400000 0.223529 0.192157
8 8 2 0.400000 0.223529 0.192157
7 8 2 0.400000 0.223529 0.192157
7 8 3 0.400000 0.223529 0.192157
8 8 3 0.400000 0.223529 0.192157
4 3 4 0.400000 0.223529 0.192157
3 3 4 0.400000 0.223529 0.192157
3 4 4 0.400000 0.223529 0.192157
5 3 4 0.400000 0.223529 0.192157
6 3 4 0.400000 0.223529 0.192157
7 3 4 0.400000 0.223529 0.192157
8 3 4 0.400000 0.223529 0.192157
7 4 4 0.400000 0.223529 0.192157
8 4 4 0.400000 0.223529 0.192157
2 4 4 0.400000 0.223529 0.192157
3 5 4 0.400000 0.223529 0.192157
2 5 4 0.400000 0.223529 0.192157
7 5 4 0.400000 0.223529 0.192157
6 5 4 0.400000 0.223529 0.192157
6 4 4 0.400000 0.223529 0.192157
9 4 4 0.400000 0.223529 0.192157
9 5 4 0.400000 0.223529 0.192157
8 5 4 0.400000 0.223529 0.192157
3 6 4 0.400000 0.223529 0.192157
2 6 4 0.400000 0.223529 0.192157
9 6 4 0.400000 0.223529 0.192157
8 6 4 0.400000 0.223529 0.192157
2 7 4 0.400000 0.223529 0.192157
3 7 4 0.400000 0.223529 0.192157
8 7 4 0.400000 0.223529 0.192157
9 7 4 0.400000 0.223529 0.192157
3 8 4 0.400000 0.223529 0.192157
4 8 4 0.400000 0.223529 0.192157
5 8 3 0.400000 0.223529 0.192157
6 8 3 0.400000 0.223529 0.192157
7 8 4 0.400000 0.223529 0.192157
8 8 4 0.400000 0.223529 0.192157
5 9 3 0.400000 0.223529 0.192157
4 9 3 0.400000 0.223529 0.192157
4 9 4 0.400000 0.223529 0.192157
5 9 4 0.400000 0.223529 0.192157
5 8 4 0.400000 0.223529 0.192157
6 9 3 0.400000 0.223529 0.192157
6 8 4 0.400000 0.223529 0.192157
6 9 4 0.400000 0.223529 0.192157
7 9 3 0.400000 0.223529 0.192157
7 9 4 0.400000 0.223529 0.192157
6 10 3 0.400000 0.223529 0.192157
5 10 3 0.400000 0.223529 0.192157
5 10 4 0.400000 0.223529 0.192157
6 10 4 0.400000 0.223529 0.192157
4 3 5 0.400000 0.223529 0.192157
3 3 5 0.400000 0.223529 0.192157
3 4 5 0.400000 0.223529 0.192157
5 3 5 0.400000 0.223529 0.192157
6 3 5 0.400000 0.223529 0.192157
7 3 5 0.400000 0.223529 0.192157
6 4 5 0.400000 0.223529 0.192157
7 4 5 0.400000 0.223529 0.192157
8 3 5 0.400000 0.223529 0.192157
8 4 5 0.400000 0.223529 0.192157
3 5 5 0.400000 0.223529 0.192157
6 5 5 0.400000 0.223529 0.192157
5 5 5 0.400000 0.223529 0.192157
5 4 5 0.400000 0.223529 0.192157
8 5 5 0.400000 0.223529 0.192157
7 5 5 0.400000 0.223529 0.192157
3 6 5 0.400000 0.223529 0.192157
8 6 5 0.400000 0.223529 0.192157
3 7 5 0.400000 0.223529 0.192157
8 7 5 0.400000 0.223529 0.192157
3 8 5 0.400000 0.223529 0.192157
4 8 5 0.400000 0.223529 0.192157
5 8 5 0.400000 0.223529 0.192157
6 8 5 0.400000 0.223529 0.192157
7 8 5 0.400000 0.223529 0.192157
8 8 5 0.400000 0.223529 0.192157
6 9 5 0.400000 0.223529 0.192157
5 9 5 0.400000 0.223529 0.192157
5 10 5 0.400000 0.223529 0.192157
6 10 5 0.400000 0.223529 0.192157
3 3 5 1.000000 1.000000 1.000000
4 3 5 1.000000 1.000000 1.000000
4 3 6 1.000000 1.000000 1.000000
3 3 6 1.000000 1.000000 1.000000
3 4 6 1.000000 1.000000 1.000000
3 4 5 1.000000 1.000000 1.000000
5 3 5 1.000000 1.000000 1.000000
5 3 6 1.000000 1.000000 1.000000
6 3 5 1.000000 1.000000 1.000000
6 3 6 1.000000 1.000000 1.000000
6 4 5 1.000000 1.000000 1.000000
5 4 5 1.000000 1.000000 1.000000
5 4 6 1.000000 1.000000 1.000000
6 4 6 1.000000 1.000000 1.000000
7 3 5 1.000000 1.000000 1.000000
7 3 6 1.000000 1.000000 1.000000
8 3 5 1.000000 1.000000 1.000000
8 3 6 1.000000 1.000000 1.000000
8 4 5 1.000000 1.000000 1.000000
8 4 6 1.000000 1.000000 1.000000
3 5 6 1.000000 1.000000 1.000000
3 5 5 1.000000 1.000000 1.000000
5 5 5 1.000000 1.000000 1.000000
5 5 6 1.000000 1.000000 1.000000
6 5 5 1.000000 1.000000 1.000000
7 5 5 1.000000 1.000000 1.000000
7 4 5 1.000000 1.000000 1.000000
6 5 6 1.000000 1.000000 1.000000
8 5 5 1.000000 1.000000 1.000000
8 5 6 1.000000 1.000000 1.000000
3 6 6 1.000000 1.000000 1.000000
3 6 5 1.000000 1.000000 1.000000
8 6 5 1.000000 1.000000 1.000000
8 6 6 1.000000 1.000000 1.000000
3 7 6 1.000000 1.000000 1.000000
3 7 5 1.000000 1.000000 1.000000
8 7 5 1.000000 1.000000 1.000000
8 7 6 1.000000 1.000000 1.000000
4 8 5 1.000000 1.000000 1.000000
3 8 5 1.000000 1.000000 1.000000
3 8 6 1.000000 1.000000 1.000000
4 8 6 1.000000 1.000000 1.000000
5 8 5 1.000000 1.000000 1.000000
5 8 6 1.000000 1.000000 1.000000
6 8 5 1.000000 1.000000 1.000000
6 8 6 1.000000 1.000000 1.000000
7 8 5 1.000000 1.000000 1.000000
7 8 6 1.000000 1.000000 1.000000
8 8 5 1.000000 1.000000 1.000000
8 8 6 1.000000 1.000000 1.000000
4 1 6 0.874510 0.443137 0.149020
5 1 6 0.874510 0.443137 0.149020
5 1 7 0.874510 0.443137 0.149020
4 1 7 0.874510 0.443137 0.149020
4 2 6 0.874510 0.443137 0.149020
5 2 6 0.874510 0.443137 0.149020
5 2 7 0.874510 0.443137 0.149020
4 2 7 0.874510 0.443137 0.149020
6 1 6 0.874510 0.443137 0.149020
6 1 7 0.874510 0.443137 0.149020
6 2 6 0.874510 0.443137 0.149020
6 2 7 0.874510 0.443137 0.149020
7 1 6 0.874510 0.443137 0.149020
7 1 7 0.874510 0.443137 0.149020
7 2 6 0.874510 0.443137 0.149020
7 2 7 0.874510 0.443137 0.149020
4 3 6 0.874510 0.443137 0.149020
5 3 6 0.874510 0.443137 0.149020
5 3 7 0.874510 0.443137 0.149020
4 3 7 0.874510 0.443137 0.149020
6 3 6 0.874510 0.443137 0.149020
6 3 7 0.874510 0.443137 0.149020
7 3 6 0.874510 0.443137 0.149020
7 3 7 0.874510 0.443137 0.149020
3 3 6 0.215686 0.580392 0.431373
4 3 6 0.215686 0.580392 0.431373
4 3 7 0.215686 0.580392 0.431373
3 3 7 0.215686 0.580392 0.431373
3 4 7 0.215686 0.580392 0.431373
3 4 6 0.215686 0.580392 0.431373
7 3 6 0.215686 0.580392 0.431373
8 3 6 0.215686 0.580392 0.431373
8 3 7 0.215686 0.580392 0.431373
7 3 7 0.215686 0.580392 0.431373
8 4 6 0.215686 0.580392 0.431373
8 4 7 0.215686 0.580392 0.431373
3 5 7 0.215686 0.580392 0.431373
3 5 6 0.215686 0.580392 0.431373
5 4 6 0.215686 0.580392 0.431373
5 5 6 0.215686 0.580392 0.431373
6 5 6 0.215686 0.580392 0.431373
6 4 6 0.215686 0.580392 0.431373
8 5 6 0.215686 0.580392 0.431373
8 5 7 0.215686 0.580392 0.431373
3 6 7 0.215686 0.580392 0.431373
3 6 6 0.215686 0.580392 0.431373
8 6 6 0.215686 0.580392 0.431373
8 6 7 0.215686 0.580392 0.431373
3 7 7 0.215686 0.580392 0.431373
3 7 6 0.215686 0.580392 0.431373
8 7 6 0.215686 0.580392 0.431373
8 7 7 0.215686 0.580392 0.431373
4 8 6 0.215686 0.580392 0.431373
3 8 6 0.215686 0.580392 0.431373
3 8 7 0.215686 0.580392 0.431373
4 8 7 0.215686 0.580392 0.431373
5 8 6 0.215686 0.580392 0.431373
5 8 7 0.215686 0.580392 0.431373
6 8 6 0.215686 0.580392 0.431373
6 8 7 0.215686 0.580392 0.431373
7 8 6 0.215686 0.580392 0.431373
7 8 7 0.215686 0.580392 0.431373
8 8 6 0.215686 0.580392 0.431373
8 8 7 0.215686 0.580392 0.431373
4 3 8 0.215686 0.580392 0.431373
3 3 8 0.215686 0.580392 0.431373
3 4 8 0.215686 0.580392 0.431373
5 3 7 0.215686 0.580392 0.431373
5 3 8 0.215686 0.580392 0.431373
6 3 7 0.215686 0.580392 0.431373
6 3 8 0.215686 0.580392 0.431373
7 3 8 0.215686 0.580392 0.431373
8 3 8 0.215686 0.580392 0.431373
8 4 8 0.215686 0.580392 0.431373
3 4 7 0.000000 0.000000 0.000000
3 4 8 0.000000 0.000000 0.000000
3 5 8 0.000000 0.000000 0.000000
3 5 7 0.000000 0.000000 0.000000
8 4 7 0.000000 0.000000 0.000000
8 5 7 0.000000 0.000000 0.000000
8 5 8 0.000000 0.000000 0.000000
8 4 8 0.000000 0.000000 0.000000
3 5 8 0.215686 0.580392 0.431373
3 6 8 0.215686 0.580392 0.431373
8 6 8 0.215686 0.580392 0.431373
8 5 8 0.215686 0.580392 0.431373
3 7 8 0.215686 0.580392 0.431373
8 7 8 0.215686 0.580392 0.431373
3 8 8 0.215686 0.580392 0.431373
4 8 8 0.215686 0.580392 0.431373
5 8 8 0.215686 0.580392 0.431373
6 8 8 0.215686 0.580392 0.431373
7 8 8 0.215686 0.580392 0.431373
8 8 8 0.215686 0.580392 0.431373
4 3 9 0.215686 0.580392 0.431373
3 3 9 0.215686 0.580392 0.431373
4 4 9 0.215686 0.580392 0.431373
3 4 9 0.215686 0.580392 0.431373
5 3 9 0.215686 0.580392 0.431373
5 4 9 0.215686 0.580392 0.431373
6 3 9 0.215686 0.580392 0.431373
6 4 9 0.215686 0.580392 0.431373
7 3 9 0.215686 0.580392 0.431373
7 4 9 0.215686 0.580392 0.431373
8 3 9 0.215686 0.580392 0.431373
8 4 9 0.215686 0.580392 0.431373
4 5 9 0.215686 0.580392 0.431373
3 5 9 0.215686 0.580392 0.431373
5 5 9 0.215686 0.580392 0.431373
6 5 9 0.215686 0.580392 0.431373
7 5 9 0.215686 0.580392 0.431373
8 5 9 0.215686 0.580392 0.431373
4 6 9 0.215686 0.580392 0.431373
3 6 9 0.215686 0.580392 0.431373
5 6 9 0.215686 0.580392 0.431373
6 6 9 0.215686 0.580392 0.431373
7 6 9 0.215686 0.580392 0.431373
8 6 9 0.215686 0.580392 0.431373
4 7 9 0.215686 0.580392 0.431373
3 7 9 0.215686 0.580392 0.431373
5 7 9 0.215686 0.580392 0.431373
6 7 9 0.215686 0.580392 0.431373
7 7 9 0.215686 0.580392 0.431373
8 7 9 0.215686 0.580392 0.431373
3 8 9 0.215686 0.580392 0.431373
4 8 9 0.215686 0.580392 0.431373
5 8 9 0.215686 0.580392 0.431373
6 8 9 0.215686 0.580392 0.431373
7 8 9 0.215686 0.580392 0.431373
8 8 9 0.215686 0.580392 0.431373
4 0 1 2 3
4 0 4 5 1
4 2 6 7 3
4 0 3 7 4
4 1 8 9 2
4 1 5 10 8
4 9 11 6 2
4 8 12 13 9
4 8 10 14 12
4 13 15 11 9
4 12 14 15 13
4 16 17 18 19
4 16 20 21 17
4 18 22 23 19
4 16 19 23 20
4 17 24 25 18
4 17 21 26 24
4 25 27 22 18
4 24 28 29 25
4 24 26 30 28
4 29 31 27 25
4 28 30 31 29
4 4 32 33 5
4 6 34 35 7
4 4 7 35 32
4 5 33 36 10
4 11 37 34 6
4 10 36 38 14
4 15 39 37 11
4 14 38 39 15
4 20 40 41 21
4 22 42 43 23
4 20 23 43 40
4 21 41 44 26
4 27 45 42 22
4 26 44 46 30
4 31 47 45 27
4 30 46 47 31
4 48 49 50 51
4 32 49 48 33
4 34 51 50 35
4 32 35 50 49
4 52 48 51 53
4 33 48 52 36
4 54 52 53 55
4 36 52 54 38
4 39 55 53 37
4 38 54 55 39
4 56 57 58 59
4 40 57 56 41
4 42 59 58 43
4 40 43 58 57
4 60 56 59 61
4 41 56 60 44
4 62 60 61 63
4 44 60 62 46
4 47 63 61 45
4 46 62 63 47
4 34 37 64 65
4 53 51 66 67
4 37 53 67 64
4 34 65 66 51
4 42 45 68 69
4 61 59 70 71
4 45 61 71 68
4 42 69 70 59
4 72 73 74 75
4 72 76 77 73
4 72 75 78 76
4 73 79 80 74
4 73 77 81 79
4 79 81 82 80
4 83 84 85 86
4 83 87 88 84
4 83 86 89 87
4 84 90 91 85
4 84 88 92 90
4 90 92 93 91
4 94 76 78 95
4 94 96 97 76
4 94 95 98 96
4 76 97 99 77
4 77 99 100 81
4 81 100 101 82
4 87 102 103 88
4 87 89 104 102
4 88 103 105 92
4 93 106 107 108
4 92 109 110 93
4 92 105 111 109
4 109 111 112 110
4 96 113 114 97
4 96 98 115 113
4 97 114 116 99
4 99 116 117 100
4 100 117 118 101
4 102 119 120 103
4 102 104 121 119
4 103 120 122 105
4 105 122 123 111
4 111 123 124 112
4 125 126 127 128
4 113 126 125 114
4 113 115 127 126
4 129 130 131 132
4 116 130 129 117
4 117 129 132 118
4 133 134 135 136
4 119 134 133 120
4 119 121 135 134
4 137 138 139 140
4 122 138 137 123
4 123 137 140 124
4 141 142 143 144
4 125 142 141 130
4 130 141 144 131
4 125 128 143 142
4 145 146 147 148
4 133 146 145 138
4 138 145 148 139
4 133 136 147 146
4 75 74 149 150
4 75 150 151 78
4 74 80 152 149
4 80 86 153 152
4 80 82 89 86
4 86 85 154 153
4 85 91 155 154
4 93 108 156 157
4 91 93 157 155
4 95 78 151 158
4 151 159 160 158
4 95 158 160 98
4 82 101 104 89
4 156 161 162 163
4 108 107 161 156
4 93 110 164 157
4 164 165 166 157
4 110 112 165 164
4 93 157 166 106
4 159 167 168 160
4 98 160 168 115
4 101 118 121 104
4 107 106 166 161
4 165 169 170 166
4 112 124 169 165
4 128 127 171 172
4 167 172 171 168
4 115 168 171 127
4 118 132 135 121
4 140 139 173 174
4 169 174 173 170
4 124 140 174 169
4 144 143 175 176
4 128 172 175 143
4 131 144 177 132
4 132 177 178 135
4 135 178 147 136
4 148 147 179 180
4 139 148 180 173
4 181 182 183 184
4 144 182 181 177
4 185 184 183 176
4 144 176 183 182
4 177 181 186 178
4 187 188 184 185
4 189 186 188 190
4 178 186 189 147
4 179 190 188 187
4 147 189 190 179
4 191 192 193 194
4 181 192 191 186
4 186 191 194 188
4 181 184 193 192
4 150 149 195 196
4 150 196 197 151
4 149 152 198 195
4 152 153 199 198
4 153 154 200 199
4 156 163 201 202
4 154 155 203 200
4 155 157 204 203
4 151 197 205 159
4 201 206 207 208
4 163 162 206 201
4 156 161 166 157
4 157 166 209 204
4 156 202 210 161
4 159 205 211 167
4 162 161 210 206
4 166 170 212 209
4 167 211 213 172
4 170 173 214 212
4 176 175 215 216
4 172 213 215 175
4 185 176 216 217
4 187 185 217 218
4 179 187 218 219
4 180 179 219 220
4 173 180 220 214
4 184 188 221 222
4 194 193 223 224
4 221 224 223 222
4 188 194 224 221
4 184 222 223 193
4 225 226 227 228
4 225 228 229 230
4 226 231 232 227
4 231 233 234 232
4 235 236 237 238
4 233 239 240 234
4 239 241 242 240
4 241 243 244 242
4 230 229 245 246
4 236 247 248 237
4 235 249 250 251
4 235 238 252 249
4 243 253 254 244
4 246 245 255 256
4 247 249 252 248
4 253 257 258 254
4 256 255 259 260
4 257 261 262 258
4 263 264 265 266
4 260 259 265 264
4 267 263 266 268
4 269 267 268 270
4 271 269 270 272
4 273 271 272 274
4 261 273 274 262
4 275 276 277 278
4 275 279 280 276
4 277 281 282 278
4 275 278 282 279
4 276 283 284 277
4 276 280 285 283
4 284 286 281 277
4 283 287 288 284
4 283 285 289 287
4 288 290 286 284
4 287 289 290 288
4 279 291 292 280
4 281 293 294 282
4 279 282 294 291
4 280 292 295 285
4 286 296 293 281
4 285 295 297 289
4 290 298 296 286
4 289 297 298 290
4 299 300 301 302
4 299 302 303 304
4 305 306 307 308
4 306 309 310 307
4 304 303 311 312
4 313 314 315 316
4 309 317 318 310
4 312 311 319 320
4 317 321 322 318
4 320 319 323 324
4 321 325 326 322
4 327 328 329 330
4 324 323 329 328
4 331 327 330 332
4 333 331 332 334
4 335 333 334 336
4 337 335 336 338
4 325 337 338 326
4 302 301 339 340
4 302 340 341 303
4 301 342 343 339
4 342 344 345 343
4 344 308 346 345
4 308 307 347 346
4 307 310 348 347
4 349 350 351 352
4 353 354 355 356
4 311 357 358 319
4 318 322 359 360
4 319 358 361 323
4 322 326 362 359
4 330 329 363 364
4 323 361 363 329
4 332 330 364 365
4 334 332 365 366
4 336 334 366 367
4 338 336 367 368
4 326 338 368 362
4 340 339 369 370
4 369 371 372 370
4 340 370 372 341
4 339 343 373 369
4 373 374 371 369
4 343 345 375 373
4 375 376 374 373
4 345 346 377 375
4 377 378 376 375
4 346 347 379 377
4 379 380 378 377
4 347 348 380 379
4 371 381 382 372
4 341 372 382 357
4 374 383 381 371
4 376 384 383 374
4 378 385 384 376
4 380 386 385 378
4 348 360 386 380
4 381 387 388 382
4 357 382 388 358
4 383 389 387 381
4 384 390 389 383
4 385 391 390 384
4 386 392 391 385
4 360 359 392 386
4 387 393 394 388
4 358 388 394 361
4 389 395 393 387
4 390 396 395 389
4 391 397 396 390
4 392 398 397 391
4 359 362 398 392
4 364 363 399 400
4 393 400 399 394
4 361 394 399 363
4 365 364 400 401
4 395 401 400 393
4 366 365 401 402
4 396 402 401 395
4 367 366 402 403
4 397 403 402 396
4 368 367 403 404
4 398 404 403 397
4 362 368 404 398
