ply
format ascii 1.0
comment Generated from Goxel 0.10.6
element vertex 460
property float x
property float y
property float z
property float red
property float green
property float blue
element face 352
property list uchar int vertex_indices
end_header
3 2 0 0.000000 0.000000 0.000000
4 2 0 0.000000 0.000000 0.000000
4 2 1 0.000000 0.000000 0.000000
3 2 1 0.000000 0.000000 0.000000
3 3 0 0.000000 0.000000 0.000000
4 3 0 0.000000 0.000000 0.000000
4 3 1 0.000000 0.000000 0.000000
3 3 1 0.000000 0.000000 0.000000
5 2 0 0.000000 0.000000 0.000000
5 2 1 0.000000 0.000000 0.000000
5 3 0 0.000000 0.000000 0.000000
5 3 1 0.000000 0.000000 0.000000
6 2 0 0.000000 0.000000 0.000000
7 2 0 0.000000 0.000000 0.000000
7 2 1 0.000000 0.000000 0.000000
6 2 1 0.000000 0.000000 0.000000
6 3 0 0.000000 0.000000 0.000000
7 3 0 0.000000 0.000000 0.000000
7 3 1 0.000000 0.000000 0.000000
6 3 1 0.000000 0.000000 0.000000
8 2 0 0.000000 0.000000 0.000000
8 2 1 0.000000 0.000000 0.000000
8 3 0 0.000000 0.000000 0.000000
8 3 1 0.000000 0.000000 0.000000
3 4 0 0.000000 0.000000 0.000000
4 4 0 0.000000 0.000000 0.000000
3 4 1 0.000000 0.000000 0.000000
5 4 0 0.000000 0.000000 0.000000
5 4 1 0.000000 0.000000 0.000000
6 4 0 0.000000 0.000000 0.000000
7 4 0 0.000000 0.000000 0.000000
6 4 1 0.000000 0.000000 0.000000
8 4 0 0.000000 0.000000 0.000000
8 4 1 0.000000 0.000000 0.000000
4 5 0 0.000000 0.000000 0.000000
3 5 0 0.000000 0.000000 0.000000
3 5 1 0.000000 0.000000 0.000000
4 5 1 0.000000 0.000000 0.000000
5 5 0 0.000000 0.000000 0.000000
5 5 1 0.000000 0.000000 0.000000
7 5 0 0.000000 0.000000 0.000000
6 5 0 0.000000 0.000000 0.000000
6 5 1 0.000000 0.000000 0.000000
7 5 1 0.000000 0.000000 0.000000
8 5 0 0.000000 0.000000 0.000000
8 5 1 0.000000 0.000000 0.000000
3 7 0 0.000000 0.000000 0.000000
4 7 0 0.000000 0.000000 0.000000
4 7 1 0.000000 0.000000 0.000000
3 7 1 0.000000 0.000000 0.000000
3 8 0 0.000000 0.000000 0.000000
4 8 0 0.000000 0.000000 0.000000
4 8 1 0.000000 0.000000 0.000000
3 8 1 0.000000 0.000000 0.000000
5 7 0 0.000000 0.000000 0.000000
5 7 1 0.000000 0.000000 0.000000
5 8 0 0.000000 0.000000 0.000000
5 8 1 0.000000 0.000000 0.000000
6 7 0 0.000000 0.000000 0.000000
7 7 0 0.000000 0.000000 0.000000
7 7 1 0.000000 0.000000 0.000000
6 7 1 0.000000 0.000000 0.000000
6 8 0 0.000000 0.000000 0.000000
7 8 0 0.000000 0.000000 0.000000
7 8 1 0.000000 0.000000 0.000000
6 8 1 0.000000 0.000000 0.000000
8 7 0 0.000000 0.000000 0.000000
8 7 1 0.000000 0.000000 0.000000
8 8 0 0.000000 0.000000 0.000000
8 8 1 0.000000 0.000000 0.000000
3 9 0 0.000000 0.000000 0.000000
4 9 0 0.000000 0.000000 0.000000
3 9 1 0.000000 0.000000 0.000000
5 9 0 0.000000 0.000000 0.000000
5 9 1 0.000000 0.000000 0.000000
6 9 0 0.000000 0.000000 0.000000
7 9 0 0.000000 0.000000 0.000000
6 9 1 0.000000 0.000000 0.000000
8 9 0 0.000000 0.000000 0.000000
8 9 1 0.000000 0.000000 0.000000
4 10 0 0.000000 0.000000 0.000000
3 10 0 0.000000 0.000000 0.000000
3 10 1 0.000000 0.000000 0.000000
4 10 1 0.000000 0.000000 0.000000
5 10 0 0.000000 0.000000 0.000000
5 10 1 0.000000 0.000000 0.000000
7 10 0 0.000000 0.000000 0.000000
6 10 0 0.000000 0.000000 0.000000
6 10 1 0.000000 0.000000 0.000000
7 10 1 0.000000 0.000000 0.000000
8 10 0 0.000000 0.000000 0.000000
8 10 1 0.000000 0.000000 0.000000
4 3 2 0.000000 0.000000 0.000000
3 3 2 0.000000 0.000000 0.000000
3 4 2 0.000000 0.000000 0.000000
5 3 2 0.000000 0.000000 0.000000
5 4 2 0.000000 0.000000 0.000000
7 3 2 0.000000 0.000000 0.000000
6 3 2 0.000000 0.000000 0.000000
6 4 2 0.000000 0.000000 0.000000
8 3 2 0.000000 0.000000 0.000000
8 4 2 0.000000 0.000000 0.000000
3 5 2 0.000000 0.000000 0.000000
4 5 2 0.000000 0.000000 0.000000
5 5 2 0.000000 0.000000 0.000000
6 5 2 0.000000 0.000000 0.000000
7 5 2 0.000000 0.000000 0.000000
8 5 2 0.000000 0.000000 0.000000
4 8 2 0.000000 0.000000 0.000000
3 8 2 0.000000 0.000000 0.000000
3 9 2 0.000000 0.000000 0.000000
5 8 2 0.000000 0.000000 0.000000
5 9 2 0.000000 0.000000 0.000000
7 8 2 0.000000 0.000000 0.000000
6 8 2 0.000000 0.000000 0.000000
6 9 2 0.000000 0.000000 0.000000
8 8 2 0.000000 0.000000 0.000000
8 9 2 0.000000 0.000000 0.000000
3 10 2 0.000000 0.000000 0.000000
4 10 2 0.000000 0.000000 0.000000
5 10 2 0.000000 0.000000 0.000000
6 10 2 0.000000 0.000000 0.000000
7 10 2 0.000000 0.000000 0.000000
8 10 2 0.000000 0.000000 0.000000
3 2 2 0.000000 0.000000 0.000000
4 2 2 0.000000 0.000000 0.000000
4 2 3 0.000000 0.000000 0.000000
3 2 3 0.000000 0.000000 0.000000
3 3 3 0.000000 0.000000 0.000000
5 2 2 0.000000 0.000000 0.000000
5 2 3 0.000000 0.000000 0.000000
6 2 2 0.000000 0.000000 0.000000
6 2 3 0.000000 0.000000 0.000000
7 2 2 0.000000 0.000000 0.000000
7 2 3 0.000000 0.000000 0.000000
8 2 2 0.000000 0.000000 0.000000
8 2 3 0.000000 0.000000 0.000000
8 3 3 0.000000 0.000000 0.000000
3 4 3 0.000000 0.000000 0.000000
8 4 3 0.000000 0.000000 0.000000
3 5 3 0.000000 0.000000 0.000000
8 5 3 0.000000 0.000000 0.000000
3 6 2 0.000000 0.000000 0.000000
4 6 2 0.000000 0.000000 0.000000
3 6 3 0.000000 0.000000 0.000000
5 6 2 0.000000 0.000000 0.000000
6 6 2 0.000000 0.000000 0.000000
7 6 2 0.000000 0.000000 0.000000
8 6 2 0.000000 0.000000 0.000000
8 6 3 0.000000 0.000000 0.000000
3 6 2 1.000000 1.000000 1.000000
3 7 2 1.000000 1.000000 1.000000
4 7 2 1.000000 1.000000 1.000000
4 6 2 1.000000 1.000000 1.000000
3 6 3 1.000000 1.000000 1.000000
3 7 3 1.000000 1.000000 1.000000
5 7 2 1.000000 1.000000 1.000000
5 6 2 1.000000 1.000000 1.000000
6 7 2 1.000000 1.000000 1.000000
6 6 2 1.000000 1.000000 1.000000
7 7 2 1.000000 1.000000 1.000000
7 6 2 1.000000 1.000000 1.000000
8 7 2 1.000000 1.000000 1.000000
8 6 2 1.000000 1.000000 1.000000
8 7 3 1.000000 1.000000 1.000000
8 6 3 1.000000 1.000000 1.000000
3 8 2 1.000000 1.000000 1.000000
4 8 2 1.000000 1.000000 1.000000
3 8 3 1.000000 1.000000 1.000000
5 8 2 1.000000 1.000000 1.000000
6 8 2 1.000000 1.000000 1.000000
7 8 2 1.000000 1.000000 1.000000
8 8 2 1.000000 1.000000 1.000000
8 8 3 1.000000 1.000000 1.000000
3 9 3 1.000000 1.000000 1.000000
3 9 2 1.000000 1.000000 1.000000
5 9 2 1.000000 1.000000 1.000000
6 9 2 1.000000 1.000000 1.000000
8 9 2 1.000000 1.000000 1.000000
8 9 3 1.000000 1.000000 1.000000
4 10 2 1.000000 1.000000 1.000000
3 10 2 1.000000 1.000000 1.000000
3 10 3 1.000000 1.000000 1.000000
4 10 3 1.000000 1.000000 1.000000
5 10 2 1.000000 1.000000 1.000000
5 10 3 1.000000 1.000000 1.000000
6 10 2 1.000000 1.000000 1.000000
6 10 3 1.000000 1.000000 1.000000
7 10 2 1.000000 1.000000 1.000000
7 10 3 1.000000 1.000000 1.000000
8 10 2 1.000000 1.000000 1.000000
8 10 3 1.000000 1.000000 1.000000
3 1 3 1.000000 1.000000 1.000000
4 1 3 1.000000 1.000000 1.000000
4 1 4 1.000000 1.000000 1.000000
3 1 4 1.000000 1.000000 1.000000
3 2 3 1.000000 1.000000 1.000000
4 2 3 1.000000 1.000000 1.000000
3 2 4 1.000000 1.000000 1.000000
5 1 3 1.000000 1.000000 1.000000
5 1 4 1.000000 1.000000 1.000000
5 2 3 1.000000 1.000000 1.000000
6 1 3 1.000000 1.000000 1.000000
6 1 4 1.000000 1.000000 1.000000
6 2 3 1.000000 1.000000 1.000000
7 1 3 1.000000 1.000000 1.000000
7 1 4 1.000000 1.000000 1.000000
7 2 3 1.000000 1.000000 1.000000
8 1 3 1.000000 1.000000 1.000000
8 1 4 1.000000 1.000000 1.000000
8 2 3 1.000000 1.000000 1.000000
8 2 4 1.000000 1.000000 1.000000
3 3 4 1.000000 1.000000 1.000000
3 3 3 1.000000 1.000000 1.000000
8 3 3 1.000000 1.000000 1.000000
8 3 4 1.000000 1.000000 1.000000
3 4 4 1.000000 1.000000 1.000000
3 4 3 1.000000 1.000000 1.000000
8 4 3 1.000000 1.000000 1.000000
8 4 4 1.000000 1.000000 1.000000
3 4 4 0.000000 0.000000 0.000000
3 5 4 0.000000 0.000000 0.000000
8 5 4 0.000000 0.000000 0.000000
8 4 4 0.000000 0.000000 0.000000
3 6 4 0.000000 0.000000 0.000000
8 6 4 0.000000 0.000000 0.000000
3 6 4 1.000000 1.000000 1.000000
3 7 4 1.000000 1.000000 1.000000
8 7 4 1.000000 1.000000 1.000000
8 6 4 1.000000 1.000000 1.000000
3 8 4 1.000000 1.000000 1.000000
8 8 4 1.000000 1.000000 1.000000
3 9 4 1.000000 1.000000 1.000000
8 9 4 1.000000 1.000000 1.000000
3 10 4 1.000000 1.000000 1.000000
4 10 4 1.000000 1.000000 1.000000
5 10 4 1.000000 1.000000 1.000000
6 10 4 1.000000 1.000000 1.000000
7 10 4 1.000000 1.000000 1.000000
8 10 4 1.000000 1.000000 1.000000
6 11 3 0.000000 0.000000 0.000000
5 11 3 0.000000 0.000000 0.000000
5 11 4 0.000000 0.000000 0.000000
6 11 4 0.000000 0.000000 0.000000
5 10 3 0.000000 0.000000 0.000000
6 10 3 0.000000 0.000000 0.000000
6 10 4 0.000000 0.000000 0.000000
5 10 4 0.000000 0.000000 0.000000
4 0 4 1.000000 1.000000 1.000000
5 0 4 1.000000 1.000000 1.000000
5 0 5 1.000000 1.000000 1.000000
4 0 5 1.000000 1.000000 1.000000
4 1 5 1.000000 1.000000 1.000000
6 0 4 1.000000 1.000000 1.000000
6 0 5 1.000000 1.000000 1.000000
7 0 4 1.000000 1.000000 1.000000
7 0 5 1.000000 1.000000 1.000000
7 1 5 1.000000 1.000000 1.000000
3 1 5 1.000000 1.000000 1.000000
3 2 5 1.000000 1.000000 1.000000
8 1 5 1.000000 1.000000 1.000000
8 2 5 1.000000 1.000000 1.000000
3 3 5 1.000000 1.000000 1.000000
8 3 5 1.000000 1.000000 1.000000
3 4 5 1.000000 1.000000 1.000000
8 4 5 1.000000 1.000000 1.000000
3 5 5 1.000000 1.000000 1.000000
3 5 4 1.000000 1.000000 1.000000
8 5 4 1.000000 1.000000 1.000000
8 5 5 1.000000 1.000000 1.000000
3 5 5 0.000000 0.000000 0.000000
3 6 5 0.000000 0.000000 0.000000
8 6 5 0.000000 0.000000 0.000000
8 5 5 0.000000 0.000000 0.000000
3 6 5 1.000000 1.000000 1.000000
3 7 5 1.000000 1.000000 1.000000
8 7 5 1.000000 1.000000 1.000000
8 6 5 1.000000 1.000000 1.000000
3 8 5 1.000000 1.000000 1.000000
8 8 5 1.000000 1.000000 1.000000
3 9 5 1.000000 1.000000 1.000000
8 9 5 1.000000 1.000000 1.000000
3 10 5 1.000000 1.000000 1.000000
4 10 5 1.000000 1.000000 1.000000
5 10 5 1.000000 1.000000 1.000000
6 10 5 1.000000 1.000000 1.000000
7 10 5 1.000000 1.000000 1.000000
8 10 5 1.000000 1.000000 1.000000
5 11 5 0.000000 0.000000 0.000000
6 11 5 0.000000 0.000000 0.000000
6 10 5 0.000000 0.000000 0.000000
5 10 5 0.000000 0.000000 0.000000
4 0 5 0.000000 0.000000 0.000000
5 0 5 0.000000 0.000000 0.000000
5 0 6 0.000000 0.000000 0.000000
4 0 6 0.000000 0.000000 0.000000
5 1 6 0.000000 0.000000 0.000000
4 1 6 0.000000 0.000000 0.000000
4 1 5 0.000000 0.000000 0.000000
6 0 5 0.000000 0.000000 0.000000
6 0 6 0.000000 0.000000 0.000000
6 1 6 0.000000 0.000000 0.000000
7 0 5 0.000000 0.000000 0.000000
7 0 6 0.000000 0.000000 0.000000
7 1 6 0.000000 0.000000 0.000000
7 1 5 0.000000 0.000000 0.000000
4 1 6 1.000000 1.000000 1.000000
3 1 6 1.000000 1.000000 1.000000
3 2 6 1.000000 1.000000 1.000000
8 1 6 1.000000 1.000000 1.000000
7 1 6 1.000000 1.000000 1.000000
8 2 6 1.000000 1.000000 1.000000
3 2 5 0.000000 0.000000 0.000000
3 2 6 0.000000 0.000000 0.000000
3 3 6 0.000000 0.000000 0.000000
3 3 5 0.000000 0.000000 0.000000
8 2 5 0.000000 0.000000 0.000000
8 3 5 0.000000 0.000000 0.000000
8 3 6 0.000000 0.000000 0.000000
8 2 6 0.000000 0.000000 0.000000
3 4 6 0.000000 0.000000 0.000000
3 4 5 0.000000 0.000000 0.000000
8 4 5 0.000000 0.000000 0.000000
8 4 6 0.000000 0.000000 0.000000
3 4 6 1.000000 1.000000 1.000000
3 5 6 1.000000 1.000000 1.000000
8 5 6 1.000000 1.000000 1.000000
8 4 6 1.000000 1.000000 1.000000
4 5 6 0.000000 0.000000 0.000000
4 6 6 0.000000 0.000000 0.000000
3 6 6 0.000000 0.000000 0.000000
3 5 6 0.000000 0.000000 0.000000
5 5 6 0.000000 0.000000 0.000000
5 6 6 0.000000 0.000000 0.000000
6 5 6 0.000000 0.000000 0.000000
6 6 6 0.000000 0.000000 0.000000
7 5 6 0.000000 0.000000 0.000000
7 6 6 0.000000 0.000000 0.000000
8 5 6 0.000000 0.000000 0.000000
8 6 6 0.000000 0.000000 0.000000
4 6 6 1.000000 1.000000 1.000000
4 7 6 1.000000 1.000000 1.000000
3 7 6 1.000000 1.000000 1.000000
3 6 6 1.000000 1.000000 1.000000
5 6 6 1.000000 1.000000 1.000000
5 7 6 1.000000 1.000000 1.000000
6 6 6 1.000000 1.000000 1.000000
6 7 6 1.000000 1.000000 1.000000
7 6 6 1.000000 1.000000 1.000000
7 7 6 1.000000 1.000000 1.000000
8 6 6 1.000000 1.000000 1.000000
8 7 6 1.000000 1.000000 1.000000
4 8 6 1.000000 1.000000 1.000000
3 8 6 1.000000 1.000000 1.000000
5 8 6 1.000000 1.000000 1.000000
6 8 6 1.000000 1.000000 1.000000
7 8 6 1.000000 1.000000 1.000000
8 8 6 1.000000 1.000000 1.000000
4 9 6 1.000000 1.000000 1.000000
3 9 6 1.000000 1.000000 1.000000
5 9 6 1.000000 1.000000 1.000000
6 9 6 1.000000 1.000000 1.000000
7 9 6 1.000000 1.000000 1.000000
8 9 6 1.000000 1.000000 1.000000
3 10 6 1.000000 1.000000 1.000000
4 10 6 1.000000 1.000000 1.000000
5 10 6 1.000000 1.000000 1.000000
6 10 6 1.000000 1.000000 1.000000
7 10 6 1.000000 1.000000 1.000000
8 10 6 1.000000 1.000000 1.000000
4 1 7 1.000000 1.000000 1.000000
3 1 7 1.000000 1.000000 1.000000
3 2 7 1.000000 1.000000 1.000000
5 1 6 1.000000 1.000000 1.000000
5 1 7 1.000000 1.000000 1.000000
6 1 6 1.000000 1.000000 1.000000
6 1 7 1.000000 1.000000 1.000000
7 1 7 1.000000 1.000000 1.000000
8 1 7 1.000000 1.000000 1.000000
8 2 7 1.000000 1.000000 1.000000
3 2 7 0.000000 0.000000 0.000000
3 3 7 0.000000 0.000000 0.000000
8 3 7 0.000000 0.000000 0.000000
8 2 7 0.000000 0.000000 0.000000
3 3 6 0.796078 0.858824 0.988235
3 3 7 0.796078 0.858824 0.988235
3 4 7 0.796078 0.858824 0.988235
3 4 6 0.796078 0.858824 0.988235
8 3 6 0.796078 0.858824 0.988235
8 4 6 0.796078 0.858824 0.988235
8 4 7 0.796078 0.858824 0.988235
8 3 7 0.796078 0.858824 0.988235
4 5 6 1.000000 1.000000 1.000000
3 5 7 1.000000 1.000000 1.000000
4 5 7 1.000000 1.000000 1.000000
3 4 7 1.000000 1.000000 1.000000
5 5 6 1.000000 1.000000 1.000000
5 5 7 1.000000 1.000000 1.000000
6 5 6 1.000000 1.000000 1.000000
6 5 7 1.000000 1.000000 1.000000
7 5 6 1.000000 1.000000 1.000000
7 5 7 1.000000 1.000000 1.000000
8 5 7 1.000000 1.000000 1.000000
8 4 7 1.000000 1.000000 1.000000
4 1 8 1.000000 1.000000 1.000000
3 1 8 1.000000 1.000000 1.000000
4 2 8 1.000000 1.000000 1.000000
3 2 8 1.000000 1.000000 1.000000
5 1 8 1.000000 1.000000 1.000000
5 2 8 1.000000 1.000000 1.000000
6 1 8 1.000000 1.000000 1.000000
6 2 8 1.000000 1.000000 1.000000
7 1 8 1.000000 1.000000 1.000000
7 2 8 1.000000 1.000000 1.000000
8 1 8 1.000000 1.000000 1.000000
8 2 8 1.000000 1.000000 1.000000
4 3 8 1.000000 1.000000 1.000000
3 3 8 1.000000 1.000000 1.000000
3 3 7 1.000000 1.000000 1.000000
5 3 8 1.000000 1.000000 1.000000
6 3 8 1.000000 1.000000 1.000000
7 3 8 1.000000 1.000000 1.000000
8 3 8 1.000000 1.000000 1.000000
8 3 7 1.000000 1.000000 1.000000
4 4 8 1.000000 1.000000 1.000000
3 4 8 1.000000 1.000000 1.000000
5 4 8 1.000000 1.000000 1.000000
6 4 8 1.000000 1.000000 1.000000
7 4 8 1.000000 1.000000 1.000000
8 4 8 1.000000 1.000000 1.000000
3 5 8 1.000000 1.000000 1.000000
4 5 8 1.000000 1.000000 1.000000
5 5 8 1.000000 1.000000 1.000000
6 5 8 1.000000 1.000000 1.000000
7 5 8 1.000000 1.000000 1.000000
8 5 8 1.000000 1.000000 1.000000
3 4 8 0.000000 0.000000 0.000000
4 4 8 0.000000 0.000000 0.000000
4 4 9 0.000000 0.000000 0.000000
3 4 9 0.000000 0.000000 0.000000
4 5 8 0.000000 0.000000 0.000000
3 5 8 0.000000 0.000000 0.000000
3 5 9 0.000000 0.000000 0.000000
4 5 9 0.000000 0.000000 0.000000
5 4 8 0.000000 0.000000 0.000000
5 4 9 0.000000 0.000000 0.000000
5 5 8 0.000000 0.000000 0.000000
5 5 9 0.000000 0.000000 0.000000
6 4 8 0.000000 0.000000 0.000000
7 4 8 0.000000 0.000000 0.000000
7 4 9 0.000000 0.000000 0.000000
6 4 9 0.000000 0.000000 0.000000
7 5 8 0.000000 0.000000 0.000000
6 5 8 0.000000 0.000000 0.000000
6 5 9 0.000000 0.000000 0.000000
7 5 9 0.000000 0.000000 0.000000
8 4 8 0.000000 0.000000 0.000000
8 4 9 0.000000 0.000000 0.000000
8 5 8 0.000000 0.000000 0.000000
8 5 9 0.000000 0.000000 0.000000
4 0 1 2 3
4 0 4 5 1
4 2 6 7 3
4 0 3 7 4
4 1 8 9 2
4 1 5 10 8
4 9 11 6 2
4 8 10 11 9
4 12 13 14 15
4 12 16 17 13
4 14 18 19 15
4 12 15 19 16
4 13 20 21 14
4 13 17 22 20
4 21 23 18 14
4 20 22 23 21
4 4 24 25 5
4 4 7 26 24
4 5 25 27 10
4 10 27 28 11
4 16 29 30 17
4 16 19 31 29
4 17 30 32 22
4 22 32 33 23
4 34 35 36 37
4 24 35 34 25
4 24 26 36 35
4 38 34 37 39
4 25 34 38 27
4 27 38 39 28
4 40 41 42 43
4 29 41 40 30
4 29 31 42 41
4 44 40 43 45
4 30 40 44 32
4 32 44 45 33
4 46 47 48 49
4 46 50 51 47
4 48 52 53 49
4 46 49 53 50
4 47 54 55 48
4 47 51 56 54
4 55 57 52 48
4 54 56 57 55
4 58 59 60 61
4 58 62 63 59
4 60 64 65 61
4 58 61 65 62
4 59 66 67 60
4 59 63 68 66
4 67 69 64 60
4 66 68 69 67
4 50 70 71 51
4 50 53 72 70
4 51 71 73 56
4 56 73 74 57
4 62 75 76 63
4 62 65 77 75
4 63 76 78 68
4 68 78 79 69
4 80 81 82 83
4 70 81 80 71
4 70 72 82 81
4 84 80 83 85
4 71 80 84 73
4 73 84 85 74
4 86 87 88 89
4 75 87 86 76
4 75 77 88 87
4 90 86 89 91
4 76 86 90 78
4 78 90 91 79
4 7 6 92 93
4 7 93 94 26
4 6 11 95 92
4 11 28 96 95
4 19 18 97 98
4 19 98 99 31
4 18 23 100 97
4 23 33 101 100
4 37 36 102 103
4 26 94 102 36
4 39 37 103 104
4 28 39 104 96
4 43 42 105 106
4 31 99 105 42
4 45 43 106 107
4 33 45 107 101
4 53 52 108 109
4 53 109 110 72
4 52 57 111 108
4 57 74 112 111
4 65 64 113 114
4 65 114 115 77
4 64 69 116 113
4 69 79 117 116
4 83 82 118 119
4 72 110 118 82
4 85 83 119 120
4 74 85 120 112
4 89 88 121 122
4 77 115 121 88
4 91 89 122 123
4 79 91 123 117
4 124 125 126 127
4 124 93 92 125
4 124 127 128 93
4 125 129 130 126
4 125 92 95 129
4 129 131 132 130
4 129 95 98 131
4 131 133 134 132
4 131 98 97 133
4 133 135 136 134
4 133 97 100 135
4 135 100 137 136
4 93 128 138 94
4 95 96 99 98
4 100 101 139 137
4 94 138 140 102
4 96 104 105 99
4 101 107 141 139
4 102 142 143 103
4 102 140 144 142
4 103 143 145 104
4 104 145 146 105
4 105 146 147 106
4 106 147 148 107
4 107 148 149 141
4 150 151 152 153
4 150 154 155 151
4 153 152 156 157
4 157 156 158 159
4 159 158 160 161
4 161 160 162 163
4 163 162 164 165
4 151 166 167 152
4 151 155 168 166
4 152 167 169 156
4 156 169 170 158
4 158 170 171 160
4 160 171 172 162
4 162 172 173 164
4 166 168 174 175
4 169 176 177 170
4 172 178 179 173
4 180 181 182 183
4 175 174 182 181
4 184 180 183 185
4 186 184 185 187
4 176 184 186 177
4 188 186 187 189
4 190 188 189 191
4 178 190 191 179
4 192 193 194 195
4 192 196 197 193
4 192 195 198 196
4 193 199 200 194
4 193 197 201 199
4 199 202 203 200
4 199 201 204 202
4 202 205 206 203
4 202 204 207 205
4 205 208 209 206
4 205 207 210 208
4 208 210 211 209
4 196 198 212 213
4 210 214 215 211
4 213 212 216 217
4 214 218 219 215
4 138 220 221 140
4 139 141 222 223
4 140 221 224 144
4 141 149 225 222
4 154 226 227 155
4 165 164 228 229
4 155 227 230 168
4 164 173 231 228
4 168 230 232 174
4 173 179 233 231
4 183 182 234 235
4 174 232 234 182
4 185 183 235 236
4 189 187 237 238
4 191 189 238 239
4 179 191 239 233
4 240 241 242 243
4 244 241 240 245
4 245 240 243 246
4 244 247 242 241
4 248 249 250 251
4 248 194 200 249
4 248 251 252 194
4 249 253 254 250
4 249 200 203 253
4 253 255 256 254
4 253 203 206 255
4 255 206 257 256
4 195 194 252 258
4 195 258 259 198
4 206 209 260 257
4 209 211 261 260
4 198 259 262 212
4 211 215 263 261
4 212 262 264 216
4 215 219 265 263
4 216 264 266 267
4 219 268 269 265
4 221 270 271 224
4 222 225 272 273
4 226 274 275 227
4 229 228 276 277
4 227 275 278 230
4 228 231 279 276
4 230 278 280 232
4 231 233 281 279
4 235 234 282 283
4 232 280 282 234
4 236 235 283 284
4 238 237 285 286
4 239 238 286 287
4 233 239 287 281
4 243 242 288 289
4 290 289 288 291
4 246 243 289 290
4 247 291 288 242
4 292 293 294 295
4 294 296 297 295
4 292 295 297 298
4 293 299 300 294
4 300 301 296 294
4 299 302 303 300
4 303 304 301 300
4 302 305 304 303
4 258 252 306 307
4 258 307 308 259
4 257 260 309 310
4 260 261 311 309
4 312 313 314 315
4 316 317 318 319
4 315 314 320 321
4 317 322 323 318
4 264 324 325 266
4 265 269 326 327
4 328 329 330 331
4 270 331 330 271
4 332 333 329 328
4 334 335 333 332
4 336 337 335 334
4 338 339 337 336
4 273 272 339 338
4 340 341 342 343
4 274 343 342 275
4 344 345 341 340
4 346 347 345 344
4 348 349 347 346
4 350 351 349 348
4 277 276 351 350
4 341 352 353 342
4 275 342 353 278
4 345 354 352 341
4 347 355 354 345
4 349 356 355 347
4 351 357 356 349
4 276 279 357 351
4 352 358 359 353
4 278 353 359 280
4 354 360 358 352
4 355 361 360 354
4 356 362 361 355
4 357 363 362 356
4 279 281 363 357
4 283 282 364 365
4 358 365 364 359
4 280 359 364 282
4 284 283 365 366
4 360 366 365 358
4 285 284 366 367
4 361 367 366 360
4 286 285 367 368
4 362 368 367 361
4 287 286 368 369
4 363 369 368 362
4 281 287 369 363
4 307 306 370 371
4 307 371 372 308
4 306 373 374 370
4 373 375 376 374
4 375 310 377 376
4 310 309 378 377
4 309 311 379 378
4 313 380 381 314
4 319 318 382 383
4 384 385 386 387
4 388 389 390 391
4 392 325 393 394
4 324 395 393 325
4 396 392 394 397
4 398 396 397 399
4 400 398 399 401
4 326 400 401 402
4 327 326 402 403
4 371 370 404 405
4 404 406 407 405
4 371 405 407 372
4 370 374 408 404
4 408 409 406 404
4 374 376 410 408
4 410 411 409 408
4 376 377 412 410
4 412 413 411 410
4 377 378 414 412
4 414 415 413 412
4 378 379 415 414
4 406 416 417 407
4 372 407 417 418
4 409 419 416 406
4 411 420 419 409
4 413 421 420 411
4 415 422 421 413
4 379 423 422 415
4 416 424 425 417
4 418 417 425 395
4 419 426 424 416
4 420 427 426 419
4 421 428 427 420
4 422 429 428 421
4 423 403 429 422
4 394 393 430 431
4 395 425 430 393
4 397 394 431 432
4 399 397 432 433
4 427 433 432 426
4 401 399 433 434
4 402 401 434 435
4 403 402 435 429
4 436 437 438 439
4 440 441 442 443
4 438 443 442 439
4 436 439 442 441
4 437 444 445 438
4 446 440 443 447
4 445 447 443 438
4 444 446 447 445
4 448 449 450 451
4 452 453 454 455
4 450 455 454 451
4 448 451 454 453
4 449 456 457 450
4 458 452 455 459
4 457 459 455 450
4 456 458 459 457
