ply
format ascii 1.0
comment Generated from Goxel 0.10.6
element vertex 464
property float x
property float y
property float z
property float red
property float green
property float blue
element face 398
property list uchar int vertex_indices
end_header
3 2 0 0.517647 0.494118 0.529412
4 2 0 0.517647 0.494118 0.529412
4 2 1 0.517647 0.494118 0.529412
3 2 1 0.517647 0.494118 0.529412
3 3 0 0.517647 0.494118 0.529412
4 3 0 0.517647 0.494118 0.529412
3 3 1 0.517647 0.494118 0.529412
5 2 0 0.517647 0.494118 0.529412
5 2 1 0.517647 0.494118 0.529412
5 3 0 0.517647 0.494118 0.529412
5 3 1 0.517647 0.494118 0.529412
7 2 0 0.517647 0.494118 0.529412
8 2 0 0.517647 0.494118 0.529412
8 2 1 0.517647 0.494118 0.529412
7 2 1 0.517647 0.494118 0.529412
7 3 0 0.517647 0.494118 0.529412
8 3 0 0.517647 0.494118 0.529412
7 3 1 0.517647 0.494118 0.529412
9 2 0 0.517647 0.494118 0.529412
9 2 1 0.517647 0.494118 0.529412
9 3 0 0.517647 0.494118 0.529412
9 3 1 0.517647 0.494118 0.529412
4 4 0 0.517647 0.494118 0.529412
3 4 0 0.517647 0.494118 0.529412
3 4 1 0.517647 0.494118 0.529412
4 4 1 0.517647 0.494118 0.529412
5 4 0 0.517647 0.494118 0.529412
5 4 1 0.517647 0.494118 0.529412
8 4 0 0.517647 0.494118 0.529412
7 4 0 0.517647 0.494118 0.529412
7 4 1 0.517647 0.494118 0.529412
8 4 1 0.517647 0.494118 0.529412
9 4 0 0.517647 0.494118 0.529412
9 4 1 0.517647 0.494118 0.529412
3 8 0 0.517647 0.494118 0.529412
4 8 0 0.517647 0.494118 0.529412
4 8 1 0.517647 0.494118 0.529412
3 8 1 0.517647 0.494118 0.529412
3 9 0 0.517647 0.494118 0.529412
4 9 0 0.517647 0.494118 0.529412
3 9 1 0.517647 0.494118 0.529412
5 8 0 0.517647 0.494118 0.529412
5 8 1 0.517647 0.494118 0.529412
5 9 0 0.517647 0.494118 0.529412
5 9 1 0.517647 0.494118 0.529412
7 8 0 0.517647 0.494118 0.529412
8 8 0 0.517647 0.494118 0.529412
8 8 1 0.517647 0.494118 0.529412
7 8 1 0.517647 0.494118 0.529412
7 9 0 0.517647 0.494118 0.529412
8 9 0 0.517647 0.494118 0.529412
7 9 1 0.517647 0.494118 0.529412
9 8 0 0.517647 0.494118 0.529412
9 8 1 0.517647 0.494118 0.529412
9 9 0 0.517647 0.494118 0.529412
9 9 1 0.517647 0.494118 0.529412
4 10 0 0.517647 0.494118 0.529412
3 10 0 0.517647 0.494118 0.529412
3 10 1 0.517647 0.494118 0.529412
4 10 1 0.517647 0.494118 0.529412
5 10 0 0.517647 0.494118 0.529412
5 10 1 0.517647 0.494118 0.529412
8 10 0 0.517647 0.494118 0.529412
7 10 0 0.517647 0.494118 0.529412
7 10 1 0.517647 0.494118 0.529412
8 10 1 0.517647 0.494118 0.529412
9 10 0 0.517647 0.494118 0.529412
9 10 1 0.517647 0.494118 0.529412
3 2 1 0.843137 0.482353 0.729412
4 2 1 0.843137 0.482353 0.729412
4 2 2 0.843137 0.482353 0.729412
3 2 2 0.843137 0.482353 0.729412
3 3 2 0.843137 0.482353 0.729412
3 3 1 0.843137 0.482353 0.729412
5 2 1 0.843137 0.482353 0.729412
5 2 2 0.843137 0.482353 0.729412
5 3 1 0.843137 0.482353 0.729412
5 3 2 0.843137 0.482353 0.729412
7 2 1 0.843137 0.482353 0.729412
8 2 1 0.843137 0.482353 0.729412
8 2 2 0.843137 0.482353 0.729412
7 2 2 0.843137 0.482353 0.729412
7 3 2 0.843137 0.482353 0.729412
7 3 1 0.843137 0.482353 0.729412
9 2 1 0.843137 0.482353 0.729412
9 2 2 0.843137 0.482353 0.729412
9 3 1 0.843137 0.482353 0.729412
9 3 2 0.843137 0.482353 0.729412
4 4 1 0.843137 0.482353 0.729412
3 4 1 0.843137 0.482353 0.729412
3 4 2 0.843137 0.482353 0.729412
4 4 2 0.843137 0.482353 0.729412
5 4 1 0.843137 0.482353 0.729412
5 4 2 0.843137 0.482353 0.729412
8 4 1 0.843137 0.482353 0.729412
7 4 1 0.843137 0.482353 0.729412
7 4 2 0.843137 0.482353 0.729412
8 4 2 0.843137 0.482353 0.729412
9 4 1 0.843137 0.482353 0.729412
9 4 2 0.843137 0.482353 0.729412
3 8 1 0.843137 0.482353 0.729412
4 8 1 0.843137 0.482353 0.729412
4 8 2 0.843137 0.482353 0.729412
3 8 2 0.843137 0.482353 0.729412
3 9 2 0.843137 0.482353 0.729412
3 9 1 0.843137 0.482353 0.729412
5 8 1 0.843137 0.482353 0.729412
5 8 2 0.843137 0.482353 0.729412
5 9 1 0.843137 0.482353 0.729412
5 9 2 0.843137 0.482353 0.729412
7 8 1 0.843137 0.482353 0.729412
8 8 1 0.843137 0.482353 0.729412
8 8 2 0.843137 0.482353 0.729412
7 8 2 0.843137 0.482353 0.729412
7 9 2 0.843137 0.482353 0.729412
7 9 1 0.843137 0.482353 0.729412
9 8 1 0.843137 0.482353 0.729412
9 8 2 0.843137 0.482353 0.729412
9 9 1 0.843137 0.482353 0.729412
9 9 2 0.843137 0.482353 0.729412
4 10 1 0.843137 0.482353 0.729412
3 10 1 0.843137 0.482353 0.729412
3 10 2 0.843137 0.482353 0.729412
4 10 2 0.843137 0.482353 0.729412
5 10 1 0.843137 0.482353 0.729412
5 10 2 0.843137 0.482353 0.729412
8 10 1 0.843137 0.482353 0.729412
7 10 1 0.843137 0.482353 0.729412
7 10 2 0.843137 0.482353 0.729412
8 10 2 0.843137 0.482353 0.729412
9 10 1 0.843137 0.482353 0.729412
9 10 2 0.843137 0.482353 0.729412
4 2 3 0.843137 0.482353 0.729412
3 2 3 0.843137 0.482353 0.729412
3 3 3 0.843137 0.482353 0.729412
5 2 3 0.843137 0.482353 0.729412
6 2 2 0.843137 0.482353 0.729412
6 2 3 0.843137 0.482353 0.729412
6 3 2 0.843137 0.482353 0.729412
7 2 3 0.843137 0.482353 0.729412
8 2 3 0.843137 0.482353 0.729412
9 2 3 0.843137 0.482353 0.729412
9 3 3 0.843137 0.482353 0.729412
3 4 3 0.843137 0.482353 0.729412
6 4 2 0.843137 0.482353 0.729412
9 4 3 0.843137 0.482353 0.729412
3 5 2 0.843137 0.482353 0.729412
4 5 2 0.843137 0.482353 0.729412
3 5 3 0.843137 0.482353 0.729412
5 5 2 0.843137 0.482353 0.729412
6 5 2 0.843137 0.482353 0.729412
7 5 2 0.843137 0.482353 0.729412
8 5 2 0.843137 0.482353 0.729412
9 5 2 0.843137 0.482353 0.729412
9 5 3 0.843137 0.482353 0.729412
3 6 2 0.843137 0.482353 0.729412
4 6 2 0.843137 0.482353 0.729412
3 6 3 0.843137 0.482353 0.729412
5 6 2 0.843137 0.482353 0.729412
6 6 2 0.843137 0.482353 0.729412
7 6 2 0.843137 0.482353 0.729412
8 6 2 0.843137 0.482353 0.729412
9 6 2 0.843137 0.482353 0.729412
9 6 3 0.843137 0.482353 0.729412
3 7 2 0.843137 0.482353 0.729412
4 7 2 0.843137 0.482353 0.729412
3 7 3 0.843137 0.482353 0.729412
5 7 2 0.843137 0.482353 0.729412
6 7 2 0.843137 0.482353 0.729412
7 7 2 0.843137 0.482353 0.729412
8 7 2 0.843137 0.482353 0.729412
9 7 2 0.843137 0.482353 0.729412
9 7 3 0.843137 0.482353 0.729412
3 8 3 0.843137 0.482353 0.729412
6 8 2 0.843137 0.482353 0.729412
9 8 3 0.843137 0.482353 0.729412
3 9 3 0.843137 0.482353 0.729412
6 9 2 0.843137 0.482353 0.729412
9 9 3 0.843137 0.482353 0.729412
3 10 3 0.843137 0.482353 0.729412
4 10 3 0.843137 0.482353 0.729412
5 10 3 0.843137 0.482353 0.729412
6 10 2 0.843137 0.482353 0.729412
7 10 3 0.843137 0.482353 0.729412
8 10 3 0.843137 0.482353 0.729412
9 10 3 0.843137 0.482353 0.729412
6 11 2 0.843137 0.482353 0.729412
5 11 2 0.843137 0.482353 0.729412
5 11 3 0.843137 0.482353 0.729412
6 11 3 0.843137 0.482353 0.729412
6 10 3 0.843137 0.482353 0.729412
7 11 2 0.843137 0.482353 0.729412
7 11 3 0.843137 0.482353 0.729412
4 2 4 0.843137 0.482353 0.729412
3 2 4 0.843137 0.482353 0.729412
3 3 4 0.843137 0.482353 0.729412
5 2 4 0.843137 0.482353 0.729412
6 2 4 0.843137 0.482353 0.729412
7 2 4 0.843137 0.482353 0.729412
8 2 4 0.843137 0.482353 0.729412
9 2 4 0.843137 0.482353 0.729412
9 3 4 0.843137 0.482353 0.729412
3 4 4 0.843137 0.482353 0.729412
9 4 4 0.843137 0.482353 0.729412
3 5 4 0.843137 0.482353 0.729412
9 5 4 0.843137 0.482353 0.729412
3 6 4 0.843137 0.482353 0.729412
9 6 4 0.843137 0.482353 0.729412
3 7 4 0.843137 0.482353 0.729412
9 7 4 0.843137 0.482353 0.729412
3 8 4 0.843137 0.482353 0.729412
9 8 4 0.843137 0.482353 0.729412
3 9 4 0.843137 0.482353 0.729412
9 9 4 0.843137 0.482353 0.729412
3 10 4 0.843137 0.482353 0.729412
4 10 4 0.843137 0.482353 0.729412
5 10 4 0.843137 0.482353 0.729412
6 10 4 0.843137 0.482353 0.729412
7 10 4 0.843137 0.482353 0.729412
8 10 4 0.843137 0.482353 0.729412
9 10 4 0.843137 0.482353 0.729412
4 2 5 0.843137 0.482353 0.729412
3 2 5 0.843137 0.482353 0.729412
3 3 5 0.843137 0.482353 0.729412
5 2 5 0.843137 0.482353 0.729412
6 2 5 0.843137 0.482353 0.729412
7 2 5 0.843137 0.482353 0.729412
8 2 5 0.843137 0.482353 0.729412
9 2 5 0.843137 0.482353 0.729412
9 3 5 0.843137 0.482353 0.729412
3 4 5 0.843137 0.482353 0.729412
9 4 5 0.843137 0.482353 0.729412
3 5 5 0.843137 0.482353 0.729412
9 5 5 0.843137 0.482353 0.729412
3 6 5 0.843137 0.482353 0.729412
9 6 5 0.843137 0.482353 0.729412
3 7 5 0.843137 0.482353 0.729412
9 7 5 0.843137 0.482353 0.729412
3 8 5 0.843137 0.482353 0.729412
9 8 5 0.843137 0.482353 0.729412
3 9 5 0.843137 0.482353 0.729412
9 9 5 0.843137 0.482353 0.729412
3 10 5 0.843137 0.482353 0.729412
4 10 5 0.843137 0.482353 0.729412
5 10 5 0.843137 0.482353 0.729412
6 10 5 0.843137 0.482353 0.729412
7 10 5 0.843137 0.482353 0.729412
8 10 5 0.843137 0.482353 0.729412
9 10 5 0.843137 0.482353 0.729412
4 0 5 0.843137 0.482353 0.729412
5 0 5 0.843137 0.482353 0.729412
5 0 6 0.843137 0.482353 0.729412
4 0 6 0.843137 0.482353 0.729412
4 1 5 0.843137 0.482353 0.729412
5 1 5 0.843137 0.482353 0.729412
4 1 6 0.843137 0.482353 0.729412
5 0 5 0.933333 0.764706 0.603922
6 0 5 0.933333 0.764706 0.603922
6 0 6 0.933333 0.764706 0.603922
5 0 6 0.933333 0.764706 0.603922
5 1 5 0.933333 0.764706 0.603922
6 1 5 0.933333 0.764706 0.603922
7 0 5 0.933333 0.764706 0.603922
7 0 6 0.933333 0.764706 0.603922
7 1 5 0.933333 0.764706 0.603922
7 0 5 0.843137 0.482353 0.729412
8 0 5 0.843137 0.482353 0.729412
8 0 6 0.843137 0.482353 0.729412
7 0 6 0.843137 0.482353 0.729412
7 1 5 0.843137 0.482353 0.729412
8 1 5 0.843137 0.482353 0.729412
8 1 6 0.843137 0.482353 0.729412
3 1 5 0.843137 0.482353 0.729412
3 1 6 0.843137 0.482353 0.729412
3 2 6 0.843137 0.482353 0.729412
6 1 5 0.843137 0.482353 0.729412
9 1 5 0.843137 0.482353 0.729412
9 1 6 0.843137 0.482353 0.729412
9 2 6 0.843137 0.482353 0.729412
3 3 6 0.843137 0.482353 0.729412
9 3 6 0.843137 0.482353 0.729412
3 4 6 0.843137 0.482353 0.729412
9 4 6 0.843137 0.482353 0.729412
3 5 6 0.843137 0.482353 0.729412
9 5 6 0.843137 0.482353 0.729412
4 5 6 0.843137 0.482353 0.729412
4 6 6 0.843137 0.482353 0.729412
3 6 6 0.843137 0.482353 0.729412
9 6 6 0.843137 0.482353 0.729412
8 6 6 0.843137 0.482353 0.729412
8 5 6 0.843137 0.482353 0.729412
4 7 6 0.843137 0.482353 0.729412
3 7 6 0.843137 0.482353 0.729412
5 6 6 0.843137 0.482353 0.729412
5 7 6 0.843137 0.482353 0.729412
6 6 6 0.843137 0.482353 0.729412
6 7 6 0.843137 0.482353 0.729412
7 6 6 0.843137 0.482353 0.729412
7 7 6 0.843137 0.482353 0.729412
8 7 6 0.843137 0.482353 0.729412
9 7 6 0.843137 0.482353 0.729412
4 8 6 0.843137 0.482353 0.729412
3 8 6 0.843137 0.482353 0.729412
5 8 6 0.843137 0.482353 0.729412
6 8 6 0.843137 0.482353 0.729412
7 8 6 0.843137 0.482353 0.729412
8 8 6 0.843137 0.482353 0.729412
9 8 6 0.843137 0.482353 0.729412
4 9 6 0.843137 0.482353 0.729412
3 9 6 0.843137 0.482353 0.729412
5 9 6 0.843137 0.482353 0.729412
6 9 6 0.843137 0.482353 0.729412
7 9 6 0.843137 0.482353 0.729412
8 9 6 0.843137 0.482353 0.729412
9 9 6 0.843137 0.482353 0.729412
3 10 6 0.843137 0.482353 0.729412
4 10 6 0.843137 0.482353 0.729412
5 10 6 0.843137 0.482353 0.729412
6 10 6 0.843137 0.482353 0.729412
7 10 6 0.843137 0.482353 0.729412
8 10 6 0.843137 0.482353 0.729412
9 10 6 0.843137 0.482353 0.729412
5 0 7 0.843137 0.482353 0.729412
4 0 7 0.843137 0.482353 0.729412
5 1 7 0.843137 0.482353 0.729412
4 1 7 0.843137 0.482353 0.729412
6 0 7 0.933333 0.764706 0.603922
5 0 7 0.933333 0.764706 0.603922
6 1 7 0.933333 0.764706 0.603922
5 1 7 0.933333 0.764706 0.603922
7 0 7 0.933333 0.764706 0.603922
7 1 7 0.933333 0.764706 0.603922
8 0 7 0.843137 0.482353 0.729412
7 0 7 0.843137 0.482353 0.729412
8 1 7 0.843137 0.482353 0.729412
7 1 7 0.843137 0.482353 0.729412
3 1 7 0.843137 0.482353 0.729412
3 2 7 0.843137 0.482353 0.729412
9 1 7 0.843137 0.482353 0.729412
9 2 7 0.843137 0.482353 0.729412
3 3 7 0.843137 0.482353 0.729412
9 3 7 0.843137 0.482353 0.729412
3 4 7 0.843137 0.482353 0.729412
9 4 7 0.843137 0.482353 0.729412
3 5 7 0.843137 0.482353 0.729412
4 5 7 0.843137 0.482353 0.729412
8 5 7 0.843137 0.482353 0.729412
9 5 7 0.843137 0.482353 0.729412
4 6 7 0.843137 0.482353 0.729412
5 6 7 0.843137 0.482353 0.729412
5 5 7 0.843137 0.482353 0.729412
6 6 7 0.843137 0.482353 0.729412
6 5 7 0.843137 0.482353 0.729412
7 6 7 0.843137 0.482353 0.729412
7 5 7 0.843137 0.482353 0.729412
8 6 7 0.843137 0.482353 0.729412
4 1 8 0.843137 0.482353 0.729412
3 1 8 0.843137 0.482353 0.729412
3 2 8 0.843137 0.482353 0.729412
5 1 8 0.843137 0.482353 0.729412
6 1 7 0.843137 0.482353 0.729412
6 1 8 0.843137 0.482353 0.729412
7 1 8 0.843137 0.482353 0.729412
8 1 8 0.843137 0.482353 0.729412
9 1 8 0.843137 0.482353 0.729412
9 2 8 0.843137 0.482353 0.729412
3 3 8 0.843137 0.482353 0.729412
9 3 8 0.843137 0.482353 0.729412
3 4 8 0.843137 0.482353 0.729412
9 4 8 0.843137 0.482353 0.729412
3 5 8 0.843137 0.482353 0.729412
4 5 8 0.843137 0.482353 0.729412
5 5 8 0.843137 0.482353 0.729412
6 5 8 0.843137 0.482353 0.729412
7 5 8 0.843137 0.482353 0.729412
8 5 8 0.843137 0.482353 0.729412
9 5 8 0.843137 0.482353 0.729412
4 1 9 0.843137 0.482353 0.729412
3 1 9 0.843137 0.482353 0.729412
3 2 9 0.843137 0.482353 0.729412
4 1 8 0.000000 0.000000 0.000000
5 1 8 0.000000 0.000000 0.000000
5 1 9 0.000000 0.000000 0.000000
4 1 9 0.000000 0.000000 0.000000
6 1 9 0.843137 0.482353 0.729412
5 1 9 0.843137 0.482353 0.729412
7 1 9 0.843137 0.482353 0.729412
7 1 8 0.000000 0.000000 0.000000
8 1 8 0.000000 0.000000 0.000000
8 1 9 0.000000 0.000000 0.000000
7 1 9 0.000000 0.000000 0.000000
9 1 9 0.843137 0.482353 0.729412
8 1 9 0.843137 0.482353 0.729412
9 2 9 0.843137 0.482353 0.729412
3 3 9 0.843137 0.482353 0.729412
9 3 9 0.843137 0.482353 0.729412
3 4 9 0.843137 0.482353 0.729412
9 4 9 0.843137 0.482353 0.729412
3 5 9 0.843137 0.482353 0.729412
4 5 9 0.843137 0.482353 0.729412
5 5 9 0.843137 0.482353 0.729412
6 5 9 0.843137 0.482353 0.729412
7 5 9 0.843137 0.482353 0.729412
8 5 9 0.843137 0.482353 0.729412
9 5 9 0.843137 0.482353 0.729412
4 1 10 0.843137 0.482353 0.729412
3 1 10 0.843137 0.482353 0.729412
4 2 10 0.843137 0.482353 0.729412
3 2 10 0.843137 0.482353 0.729412
5 1 10 0.843137 0.482353 0.729412
5 2 10 0.843137 0.482353 0.729412
6 1 10 0.843137 0.482353 0.729412
6 2 10 0.843137 0.482353 0.729412
7 1 10 0.843137 0.482353 0.729412
7 2 10 0.843137 0.482353 0.729412
8 1 10 0.843137 0.482353 0.729412
8 2 10 0.843137 0.482353 0.729412
9 1 10 0.843137 0.482353 0.729412
9 2 10 0.843137 0.482353 0.729412
4 3 10 0.843137 0.482353 0.729412
3 3 10 0.843137 0.482353 0.729412
5 3 10 0.843137 0.482353 0.729412
6 3 10 0.843137 0.482353 0.729412
7 3 10 0.843137 0.482353 0.729412
8 3 10 0.843137 0.482353 0.729412
9 3 10 0.843137 0.482353 0.729412
4 4 10 0.843137 0.482353 0.729412
3 4 10 0.843137 0.482353 0.729412
5 4 10 0.843137 0.482353 0.729412
6 4 10 0.843137 0.482353 0.729412
7 4 10 0.843137 0.482353 0.729412
8 4 10 0.843137 0.482353 0.729412
9 4 10 0.843137 0.482353 0.729412
3 5 10 0.843137 0.482353 0.729412
4 5 10 0.843137 0.482353 0.729412
5 5 10 0.843137 0.482353 0.729412
6 5 10 0.843137 0.482353 0.729412
7 5 10 0.843137 0.482353 0.729412
8 5 10 0.843137 0.482353 0.729412
9 5 10 0.843137 0.482353 0.729412
3 4 10 0.933333 0.764706 0.603922
4 4 10 0.933333 0.764706 0.603922
4 4 11 0.933333 0.764706 0.603922
3 4 11 0.933333 0.764706 0.603922
4 5 10 0.933333 0.764706 0.603922
3 5 10 0.933333 0.764706 0.603922
3 5 11 0.933333 0.764706 0.603922
4 5 11 0.933333 0.764706 0.603922
5 4 10 0.933333 0.764706 0.603922
5 4 11 0.933333 0.764706 0.603922
5 5 10 0.933333 0.764706 0.603922
5 5 11 0.933333 0.764706 0.603922
7 4 10 0.933333 0.764706 0.603922
8 4 10 0.933333 0.764706 0.603922
8 4 11 0.933333 0.764706 0.603922
7 4 11 0.933333 0.764706 0.603922
8 5 10 0.933333 0.764706 0.603922
7 5 10 0.933333 0.764706 0.603922
7 5 11 0.933333 0.764706 0.603922
8 5 11 0.933333 0.764706 0.603922
9 4 10 0.933333 0.764706 0.603922
9 4 11 0.933333 0.764706 0.603922
9 5 10 0.933333 0.764706 0.603922
9 5 11 0.933333 0.764706 0.603922
4 0 1 2 3
4 0 4 5 1
4 0 3 6 4
4 1 7 8 2
4 1 5 9 7
4 7 9 10 8
4 11 12 13 14
4 11 15 16 12
4 11 14 17 15
4 12 18 19 13
4 12 16 20 18
4 18 20 21 19
4 22 23 24 25
4 4 23 22 5
4 4 6 24 23
4 26 22 25 27
4 5 22 26 9
4 9 26 27 10
4 28 29 30 31
4 15 29 28 16
4 15 17 30 29
4 32 28 31 33
4 16 28 32 20
4 20 32 33 21
4 34 35 36 37
4 34 38 39 35
4 34 37 40 38
4 35 41 42 36
4 35 39 43 41
4 41 43 44 42
4 45 46 47 48
4 45 49 50 46
4 45 48 51 49
4 46 52 53 47
4 46 50 54 52
4 52 54 55 53
4 56 57 58 59
4 38 57 56 39
4 38 40 58 57
4 60 56 59 61
4 39 56 60 43
4 43 60 61 44
4 62 63 64 65
4 49 63 62 50
4 49 51 64 63
4 66 62 65 67
4 50 62 66 54
4 54 66 67 55
4 68 69 70 71
4 68 71 72 73
4 69 74 75 70
4 74 76 77 75
4 78 79 80 81
4 78 81 82 83
4 79 84 85 80
4 84 86 87 85
4 88 89 90 91
4 73 72 90 89
4 92 88 91 93
4 76 92 93 77
4 94 95 96 97
4 83 82 96 95
4 98 94 97 99
4 86 98 99 87
4 100 101 102 103
4 100 103 104 105
4 101 106 107 102
4 106 108 109 107
4 110 111 112 113
4 110 113 114 115
4 111 116 117 112
4 116 118 119 117
4 120 121 122 123
4 105 104 122 121
4 124 120 123 125
4 108 124 125 109
4 126 127 128 129
4 115 114 128 127
4 130 126 129 131
4 118 130 131 119
4 71 70 132 133
4 71 133 134 72
4 70 75 135 132
4 75 136 137 135
4 75 77 138 136
4 136 81 139 137
4 136 138 82 81
4 81 80 140 139
4 80 85 141 140
4 85 87 142 141
4 72 134 143 90
4 77 93 144 138
4 138 144 96 82
4 87 99 145 142
4 90 146 147 91
4 90 143 148 146
4 91 147 149 93
4 93 149 150 144
4 144 150 151 96
4 96 151 152 97
4 97 152 153 99
4 99 153 154 145
4 146 155 156 147
4 146 148 157 155
4 147 156 158 149
4 149 158 159 150
4 150 159 160 151
4 151 160 161 152
4 152 161 162 153
4 153 162 163 154
4 155 164 165 156
4 155 157 166 164
4 156 165 167 158
4 158 167 168 159
4 159 168 169 160
4 160 169 170 161
4 161 170 171 162
4 162 171 172 163
4 164 103 102 165
4 164 166 173 103
4 165 102 107 167
4 167 107 174 168
4 168 174 113 169
4 169 113 112 170
4 170 112 117 171
4 171 117 175 172
4 103 173 176 104
4 107 109 177 174
4 174 177 114 113
4 117 119 178 175
4 123 122 179 180
4 104 176 179 122
4 125 123 180 181
4 109 125 182 177
4 177 182 128 114
4 129 128 183 184
4 131 129 184 185
4 119 131 185 178
4 186 187 188 189
4 125 187 186 182
4 190 189 188 181
4 125 181 188 187
4 191 186 189 192
4 182 186 191 128
4 183 192 189 190
4 128 191 192 183
4 133 132 193 194
4 133 194 195 134
4 132 135 196 193
4 135 137 197 196
4 137 139 198 197
4 139 140 199 198
4 140 141 200 199
4 141 142 201 200
4 134 195 202 143
4 142 145 203 201
4 143 202 204 148
4 145 154 205 203
4 148 204 206 157
4 154 163 207 205
4 157 206 208 166
4 163 172 209 207
4 166 208 210 173
4 172 175 211 209
4 173 210 212 176
4 175 178 213 211
4 180 179 214 215
4 176 212 214 179
4 181 180 215 216
4 190 181 216 217
4 183 190 217 218
4 184 183 218 219
4 185 184 219 220
4 178 185 220 213
4 194 193 221 222
4 194 222 223 195
4 193 196 224 221
4 196 197 225 224
4 197 198 226 225
4 198 199 227 226
4 199 200 228 227
4 200 201 229 228
4 195 223 230 202
4 201 203 231 229
4 202 230 232 204
4 203 205 233 231
4 204 232 234 206
4 205 207 235 233
4 206 234 236 208
4 207 209 237 235
4 208 236 238 210
4 209 211 239 237
4 210 238 240 212
4 211 213 241 239
4 215 214 242 243
4 212 240 242 214
4 216 215 243 244
4 217 216 244 245
4 218 217 245 246
4 219 218 246 247
4 220 219 247 248
4 213 220 248 241
4 249 250 251 252
4 249 253 254 250
4 249 252 255 253
4 256 257 258 259
4 256 260 261 257
4 257 262 263 258
4 257 261 264 262
4 265 266 267 268
4 265 269 270 266
4 266 270 271 267
4 272 253 255 273
4 272 222 221 253
4 272 273 274 222
4 253 221 224 254
4 254 224 225 275
4 275 225 226 269
4 269 226 227 270
4 270 276 277 271
4 270 227 228 276
4 276 228 278 277
4 222 274 279 223
4 228 229 280 278
4 223 279 281 230
4 229 231 282 280
4 230 281 283 232
4 231 233 284 282
4 285 286 287 283
4 232 283 287 234
4 284 288 289 290
4 233 235 288 284
4 286 291 292 287
4 234 287 292 236
4 293 294 291 286
4 295 296 294 293
4 297 298 296 295
4 289 299 298 297
4 288 300 299 289
4 235 237 300 288
4 291 301 302 292
4 236 292 302 238
4 294 303 301 291
4 296 304 303 294
4 298 305 304 296
4 299 306 305 298
4 300 307 306 299
4 237 239 307 300
4 301 308 309 302
4 238 302 309 240
4 303 310 308 301
4 304 311 310 303
4 305 312 311 304
4 306 313 312 305
4 307 314 313 306
4 239 241 314 307
4 243 242 315 316
4 308 316 315 309
4 240 309 315 242
4 244 243 316 317
4 310 317 316 308
4 245 244 317 318
4 311 318 317 310
4 246 245 318 319
4 312 319 318 311
4 247 246 319 320
4 313 320 319 312
4 248 247 320 321
4 314 321 320 313
4 241 248 321 314
4 252 251 322 323
4 322 324 325 323
4 252 323 325 255
4 259 258 326 327
4 326 328 329 327
4 258 263 330 326
4 330 331 328 326
4 268 267 332 333
4 332 334 335 333
4 267 271 334 332
4 273 255 325 336
4 273 336 337 274
4 271 277 338 334
4 277 278 339 338
4 274 337 340 279
4 278 280 341 339
4 279 340 342 281
4 280 282 343 341
4 285 283 344 345
4 281 342 344 283
4 284 290 346 347
4 282 284 347 343
4 293 286 348 349
4 350 349 348 345
4 285 345 348 286
4 295 293 349 351
4 352 351 349 350
4 297 295 351 353
4 354 353 351 352
4 289 297 353 355
4 346 355 353 354
4 290 289 355 346
4 336 325 356 357
4 336 357 358 337
4 325 324 359 356
4 324 360 361 359
4 360 335 362 361
4 335 334 363 362
4 334 338 364 363
4 338 339 365 364
4 337 358 366 340
4 339 341 367 365
4 340 366 368 342
4 341 343 369 367
4 345 344 370 371
4 342 368 370 344
4 350 345 371 372
4 352 350 372 373
4 354 352 373 374
4 346 354 374 375
4 347 346 375 376
4 343 347 376 369
4 357 356 377 378
4 357 378 379 358
4 380 381 382 383
4 359 361 384 385
4 361 362 386 384
4 387 388 389 390
4 363 364 391 392
4 364 365 393 391
4 358 379 394 366
4 365 367 395 393
4 366 394 396 368
4 367 369 397 395
4 371 370 398 399
4 368 396 398 370
4 372 371 399 400
4 373 372 400 401
4 374 373 401 402
4 375 374 402 403
4 376 375 403 404
4 369 376 404 397
4 378 377 405 406
4 405 407 408 406
4 378 406 408 379
4 377 385 409 405
4 409 410 407 405
4 385 384 411 409
4 411 412 410 409
4 384 386 413 411
4 413 414 412 411
4 386 392 415 413
4 415 416 414 413
4 392 391 417 415
4 417 418 416 415
4 391 393 418 417
4 407 419 420 408
4 379 408 420 394
4 410 421 419 407
4 412 422 421 410
4 414 423 422 412
4 416 424 423 414
4 418 425 424 416
4 393 395 425 418
4 419 426 427 420
4 394 420 427 396
4 421 428 426 419
4 422 429 428 421
4 423 430 429 422
4 424 431 430 423
4 425 432 431 424
4 395 397 432 425
4 399 398 433 434
4 396 427 433 398
4 400 399 434 435
4 401 400 435 436
4 429 436 435 428
4 402 401 436 437
4 430 437 436 429
4 403 402 437 438
4 404 403 438 439
4 397 404 439 432
4 440 441 442 443
4 444 445 446 447
4 442 447 446 443
4 440 443 446 445
4 441 448 449 442
4 450 444 447 451
4 449 451 447 442
4 448 450 451 449
4 452 453 454 455
4 456 457 458 459
4 454 459 458 455
4 452 455 458 457
4 453 460 461 454
4 462 456 459 463
4 461 463 459 454
4 460 462 463 461
