ply
format ascii 1.0
comment Generated from Goxel 0.10.6
element vertex 328
property float x
property float y
property float z
property float red
property float green
property float blue
element face 280
property list uchar int vertex_indices
end_header
3 3 0 0.517647 0.494118 0.529412
4 3 0 0.517647 0.494118 0.529412
4 3 1 0.517647 0.494118 0.529412
3 3 1 0.517647 0.494118 0.529412
4 4 0 0.517647 0.494118 0.529412
3 4 0 0.517647 0.494118 0.529412
3 4 1 0.517647 0.494118 0.529412
4 4 1 0.517647 0.494118 0.529412
7 3 0 0.517647 0.494118 0.529412
8 3 0 0.517647 0.494118 0.529412
8 3 1 0.517647 0.494118 0.529412
7 3 1 0.517647 0.494118 0.529412
8 4 0 0.517647 0.494118 0.529412
7 4 0 0.517647 0.494118 0.529412
7 4 1 0.517647 0.494118 0.529412
8 4 1 0.517647 0.494118 0.529412
3 9 0 0.517647 0.494118 0.529412
4 9 0 0.517647 0.494118 0.529412
4 9 1 0.517647 0.494118 0.529412
3 9 1 0.517647 0.494118 0.529412
4 10 0 0.517647 0.494118 0.529412
3 10 0 0.517647 0.494118 0.529412
3 10 1 0.517647 0.494118 0.529412
4 10 1 0.517647 0.494118 0.529412
7 9 0 0.517647 0.494118 0.529412
8 9 0 0.517647 0.494118 0.529412
8 9 1 0.517647 0.494118 0.529412
7 9 1 0.517647 0.494118 0.529412
8 10 0 0.517647 0.494118 0.529412
7 10 0 0.517647 0.494118 0.529412
7 10 1 0.517647 0.494118 0.529412
8 10 1 0.517647 0.494118 0.529412
3 3 1 1.000000 1.000000 1.000000
4 3 1 1.000000 1.000000 1.000000
4 3 2 1.000000 1.000000 1.000000
3 3 2 1.000000 1.000000 1.000000
4 4 1 1.000000 1.000000 1.000000
3 4 1 1.000000 1.000000 1.000000
3 4 2 1.000000 1.000000 1.000000
4 4 2 1.000000 1.000000 1.000000
7 3 1 1.000000 1.000000 1.000000
8 3 1 1.000000 1.000000 1.000000
8 3 2 1.000000 1.000000 1.000000
7 3 2 1.000000 1.000000 1.000000
8 4 1 1.000000 1.000000 1.000000
7 4 1 1.000000 1.000000 1.000000
7 4 2 1.000000 1.000000 1.000000
8 4 2 1.000000 1.000000 1.000000
3 9 1 1.000000 1.000000 1.000000
4 9 1 1.000000 1.000000 1.000000
4 9 2 1.000000 1.000000 1.000000
3 9 2 1.000000 1.000000 1.000000
4 10 1 1.000000 1.000000 1.000000
3 10 1 1.000000 1.000000 1.000000
3 10 2 1.000000 1.000000 1.000000
4 10 2 1.000000 1.000000 1.000000
7 9 1 1.000000 1.000000 1.000000
8 9 1 1.000000 1.000000 1.000000
8 9 2 1.000000 1.000000 1.000000
7 9 2 1.000000 1.000000 1.000000
8 10 1 1.000000 1.000000 1.000000
7 10 1 1.000000 1.000000 1.000000
7 10 2 1.000000 1.000000 1.000000
8 10 2 1.000000 1.000000 1.000000
4 3 3 1.000000 1.000000 1.000000
3 3 3 1.000000 1.000000 1.000000
3 4 3 1.000000 1.000000 1.000000
4 4 3 1.000000 1.000000 1.000000
8 3 3 1.000000 1.000000 1.000000
7 3 3 1.000000 1.000000 1.000000
7 4 3 1.000000 1.000000 1.000000
8 4 3 1.000000 1.000000 1.000000
4 9 3 1.000000 1.000000 1.000000
3 9 3 1.000000 1.000000 1.000000
3 10 3 1.000000 1.000000 1.000000
4 10 3 1.000000 1.000000 1.000000
8 9 3 1.000000 1.000000 1.000000
7 9 3 1.000000 1.000000 1.000000
7 10 3 1.000000 1.000000 1.000000
8 10 3 1.000000 1.000000 1.000000
4 3 4 1.000000 1.000000 1.000000
3 3 4 1.000000 1.000000 1.000000
3 4 4 1.000000 1.000000 1.000000
5 3 3 1.000000 1.000000 1.000000
5 3 4 1.000000 1.000000 1.000000
5 4 3 1.000000 1.000000 1.000000
6 3 3 1.000000 1.000000 1.000000
6 3 4 1.000000 1.000000 1.000000
6 4 3 1.000000 1.000000 1.000000
7 3 4 1.000000 1.000000 1.000000
8 3 4 1.000000 1.000000 1.000000
8 4 4 1.000000 1.000000 1.000000
3 5 3 1.000000 1.000000 1.000000
4 5 3 1.000000 1.000000 1.000000
3 5 4 1.000000 1.000000 1.000000
5 5 3 1.000000 1.000000 1.000000
6 5 3 1.000000 1.000000 1.000000
7 5 3 1.000000 1.000000 1.000000
8 5 3 1.000000 1.000000 1.000000
8 5 4 1.000000 1.000000 1.000000
3 6 3 1.000000 1.000000 1.000000
4 6 3 1.000000 1.000000 1.000000
3 6 4 1.000000 1.000000 1.000000
5 6 3 1.000000 1.000000 1.000000
6 6 3 1.000000 1.000000 1.000000
7 6 3 1.000000 1.000000 1.000000
8 6 3 1.000000 1.000000 1.000000
8 6 4 1.000000 1.000000 1.000000
3 7 3 1.000000 1.000000 1.000000
4 7 3 1.000000 1.000000 1.000000
3 7 4 1.000000 1.000000 1.000000
5 7 3 1.000000 1.000000 1.000000
6 7 3 1.000000 1.000000 1.000000
7 7 3 1.000000 1.000000 1.000000
8 7 3 1.000000 1.000000 1.000000
8 7 4 1.000000 1.000000 1.000000
3 8 3 1.000000 1.000000 1.000000
4 8 3 1.000000 1.000000 1.000000
3 8 4 1.000000 1.000000 1.000000
5 8 3 1.000000 1.000000 1.000000
6 8 3 1.000000 1.000000 1.000000
7 8 3 1.000000 1.000000 1.000000
8 8 3 1.000000 1.000000 1.000000
8 8 4 1.000000 1.000000 1.000000
3 9 4 1.000000 1.000000 1.000000
5 9 3 1.000000 1.000000 1.000000
6 9 3 1.000000 1.000000 1.000000
8 9 4 1.000000 1.000000 1.000000
3 10 4 1.000000 1.000000 1.000000
4 10 4 1.000000 1.000000 1.000000
5 10 3 1.000000 1.000000 1.000000
5 10 4 1.000000 1.000000 1.000000
6 10 3 1.000000 1.000000 1.000000
6 10 4 1.000000 1.000000 1.000000
7 10 4 1.000000 1.000000 1.000000
8 10 4 1.000000 1.000000 1.000000
6 11 3 1.000000 1.000000 1.000000
5 11 3 1.000000 1.000000 1.000000
5 11 4 1.000000 1.000000 1.000000
6 11 4 1.000000 1.000000 1.000000
5 2 4 1.000000 1.000000 1.000000
6 2 4 1.000000 1.000000 1.000000
6 2 5 1.000000 1.000000 1.000000
5 2 5 1.000000 1.000000 1.000000
6 3 5 1.000000 1.000000 1.000000
5 3 5 1.000000 1.000000 1.000000
4 3 5 1.000000 1.000000 1.000000
3 3 5 1.000000 1.000000 1.000000
3 4 5 1.000000 1.000000 1.000000
7 3 5 1.000000 1.000000 1.000000
8 3 5 1.000000 1.000000 1.000000
8 4 5 1.000000 1.000000 1.000000
3 5 5 1.000000 1.000000 1.000000
8 5 5 1.000000 1.000000 1.000000
3 6 5 1.000000 1.000000 1.000000
8 6 5 1.000000 1.000000 1.000000
3 7 5 1.000000 1.000000 1.000000
8 7 5 1.000000 1.000000 1.000000
3 8 5 1.000000 1.000000 1.000000
8 8 5 1.000000 1.000000 1.000000
3 9 5 1.000000 1.000000 1.000000
8 9 5 1.000000 1.000000 1.000000
3 10 5 1.000000 1.000000 1.000000
4 10 5 1.000000 1.000000 1.000000
5 10 5 1.000000 1.000000 1.000000
6 10 5 1.000000 1.000000 1.000000
7 10 5 1.000000 1.000000 1.000000
8 10 5 1.000000 1.000000 1.000000
4 0 5 0.517647 0.494118 0.529412
5 0 5 0.517647 0.494118 0.529412
5 0 6 0.517647 0.494118 0.529412
4 0 6 0.517647 0.494118 0.529412
4 1 5 0.517647 0.494118 0.529412
5 1 5 0.517647 0.494118 0.529412
4 1 6 0.517647 0.494118 0.529412
6 0 5 0.517647 0.494118 0.529412
6 0 6 0.517647 0.494118 0.529412
6 1 5 0.517647 0.494118 0.529412
7 0 5 0.517647 0.494118 0.529412
7 0 6 0.517647 0.494118 0.529412
7 1 5 0.517647 0.494118 0.529412
7 1 6 0.517647 0.494118 0.529412
4 2 5 0.517647 0.494118 0.529412
5 2 5 0.517647 0.494118 0.529412
4 2 6 0.517647 0.494118 0.529412
6 2 5 0.517647 0.494118 0.529412
7 2 5 0.517647 0.494118 0.529412
7 2 6 0.517647 0.494118 0.529412
4 2 5 1.000000 1.000000 1.000000
4 2 6 1.000000 1.000000 1.000000
4 3 6 1.000000 1.000000 1.000000
7 2 5 1.000000 1.000000 1.000000
7 3 6 1.000000 1.000000 1.000000
7 2 6 1.000000 1.000000 1.000000
3 3 6 1.000000 1.000000 1.000000
4 4 6 1.000000 1.000000 1.000000
3 4 6 1.000000 1.000000 1.000000
8 3 6 1.000000 1.000000 1.000000
8 4 6 1.000000 1.000000 1.000000
7 4 6 1.000000 1.000000 1.000000
3 5 6 1.000000 1.000000 1.000000
8 5 6 1.000000 1.000000 1.000000
3 6 6 1.000000 1.000000 1.000000
8 6 6 1.000000 1.000000 1.000000
3 7 6 1.000000 1.000000 1.000000
8 7 6 1.000000 1.000000 1.000000
3 8 6 1.000000 1.000000 1.000000
8 8 6 1.000000 1.000000 1.000000
3 9 6 1.000000 1.000000 1.000000
8 9 6 1.000000 1.000000 1.000000
3 10 6 1.000000 1.000000 1.000000
4 10 6 1.000000 1.000000 1.000000
4 9 6 1.000000 1.000000 1.000000
5 10 6 1.000000 1.000000 1.000000
6 10 6 1.000000 1.000000 1.000000
7 10 6 1.000000 1.000000 1.000000
8 10 6 1.000000 1.000000 1.000000
7 9 6 1.000000 1.000000 1.000000
5 0 7 0.517647 0.494118 0.529412
4 0 7 0.517647 0.494118 0.529412
5 1 7 0.517647 0.494118 0.529412
4 1 7 0.517647 0.494118 0.529412
6 0 7 0.517647 0.494118 0.529412
6 1 7 0.517647 0.494118 0.529412
7 0 7 0.517647 0.494118 0.529412
7 1 7 0.517647 0.494118 0.529412
4 2 7 0.517647 0.494118 0.529412
7 2 7 0.517647 0.494118 0.529412
4 2 7 1.000000 1.000000 1.000000
4 3 7 1.000000 1.000000 1.000000
7 3 7 1.000000 1.000000 1.000000
7 2 7 1.000000 1.000000 1.000000
4 4 7 1.000000 1.000000 1.000000
7 4 7 1.000000 1.000000 1.000000
3 4 7 1.000000 1.000000 1.000000
4 5 7 1.000000 1.000000 1.000000
3 5 7 1.000000 1.000000 1.000000
5 4 7 1.000000 1.000000 1.000000
5 5 7 1.000000 1.000000 1.000000
6 4 7 1.000000 1.000000 1.000000
6 5 7 1.000000 1.000000 1.000000
7 5 7 1.000000 1.000000 1.000000
8 4 7 1.000000 1.000000 1.000000
8 5 7 1.000000 1.000000 1.000000
4 6 7 1.000000 1.000000 1.000000
3 6 7 1.000000 1.000000 1.000000
5 6 7 1.000000 1.000000 1.000000
6 6 7 1.000000 1.000000 1.000000
7 6 7 1.000000 1.000000 1.000000
8 6 7 1.000000 1.000000 1.000000
4 7 7 1.000000 1.000000 1.000000
3 7 7 1.000000 1.000000 1.000000
5 7 7 1.000000 1.000000 1.000000
6 7 7 1.000000 1.000000 1.000000
7 7 7 1.000000 1.000000 1.000000
8 7 7 1.000000 1.000000 1.000000
4 8 7 1.000000 1.000000 1.000000
3 8 7 1.000000 1.000000 1.000000
5 8 7 1.000000 1.000000 1.000000
6 8 7 1.000000 1.000000 1.000000
7 8 7 1.000000 1.000000 1.000000
8 8 7 1.000000 1.000000 1.000000
3 9 7 1.000000 1.000000 1.000000
4 9 7 1.000000 1.000000 1.000000
5 9 7 1.000000 1.000000 1.000000
6 9 7 1.000000 1.000000 1.000000
7 9 7 1.000000 1.000000 1.000000
8 9 7 1.000000 1.000000 1.000000
4 10 7 1.000000 1.000000 1.000000
5 10 7 1.000000 1.000000 1.000000
6 10 7 1.000000 1.000000 1.000000
7 10 7 1.000000 1.000000 1.000000
4 1 7 0.000000 0.000000 0.000000
5 1 7 0.000000 0.000000 0.000000
5 1 8 0.000000 0.000000 0.000000
4 1 8 0.000000 0.000000 0.000000
5 2 8 0.000000 0.000000 0.000000
4 2 8 0.000000 0.000000 0.000000
4 2 7 0.000000 0.000000 0.000000
6 1 8 0.517647 0.494118 0.529412
5 1 8 0.517647 0.494118 0.529412
6 2 8 0.517647 0.494118 0.529412
5 2 8 0.517647 0.494118 0.529412
6 1 7 0.000000 0.000000 0.000000
7 1 7 0.000000 0.000000 0.000000
7 1 8 0.000000 0.000000 0.000000
6 1 8 0.000000 0.000000 0.000000
7 2 8 0.000000 0.000000 0.000000
6 2 8 0.000000 0.000000 0.000000
7 2 7 0.000000 0.000000 0.000000
4 2 8 1.000000 1.000000 1.000000
4 3 8 1.000000 1.000000 1.000000
7 3 8 1.000000 1.000000 1.000000
7 2 8 1.000000 1.000000 1.000000
3 3 7 0.517647 0.494118 0.529412
4 3 7 0.517647 0.494118 0.529412
4 3 8 0.517647 0.494118 0.529412
3 3 8 0.517647 0.494118 0.529412
4 4 7 0.517647 0.494118 0.529412
3 4 7 0.517647 0.494118 0.529412
3 4 8 0.517647 0.494118 0.529412
4 4 8 0.517647 0.494118 0.529412
4 4 8 1.000000 1.000000 1.000000
5 4 8 1.000000 1.000000 1.000000
6 4 8 1.000000 1.000000 1.000000
7 4 8 1.000000 1.000000 1.000000
7 3 7 0.517647 0.494118 0.529412
8 3 7 0.517647 0.494118 0.529412
8 3 8 0.517647 0.494118 0.529412
7 3 8 0.517647 0.494118 0.529412
8 4 7 0.517647 0.494118 0.529412
7 4 7 0.517647 0.494118 0.529412
7 4 8 0.517647 0.494118 0.529412
8 4 8 0.517647 0.494118 0.529412
5 2 8 1.000000 1.000000 1.000000
5 2 9 1.000000 1.000000 1.000000
4 2 9 1.000000 1.000000 1.000000
5 3 9 1.000000 1.000000 1.000000
4 3 9 1.000000 1.000000 1.000000
6 2 8 1.000000 1.000000 1.000000
6 2 9 1.000000 1.000000 1.000000
6 3 9 1.000000 1.000000 1.000000
7 2 9 1.000000 1.000000 1.000000
7 3 9 1.000000 1.000000 1.000000
4 4 9 1.000000 1.000000 1.000000
5 4 9 1.000000 1.000000 1.000000
6 4 9 1.000000 1.000000 1.000000
7 4 9 1.000000 1.000000 1.000000
4 0 1 2 3
4 4 5 6 7
4 0 5 4 1
4 1 4 7 2
4 0 3 6 5
4 8 9 10 11
4 12 13 14 15
4 8 13 12 9
4 9 12 15 10
4 8 11 14 13
4 16 17 18 19
4 20 21 22 23
4 16 21 20 17
4 17 20 23 18
4 16 19 22 21
4 24 25 26 27
4 28 29 30 31
4 24 29 28 25
4 25 28 31 26
4 24 27 30 29
4 32 33 34 35
4 36 37 38 39
4 33 36 39 34
4 32 35 38 37
4 40 41 42 43
4 44 45 46 47
4 41 44 47 42
4 40 43 46 45
4 48 49 50 51
4 52 53 54 55
4 49 52 55 50
4 48 51 54 53
4 56 57 58 59
4 60 61 62 63
4 57 60 63 58
4 56 59 62 61
4 35 34 64 65
4 39 38 66 67
4 34 39 67 64
4 35 65 66 38
4 43 42 68 69
4 47 46 70 71
4 42 47 71 68
4 43 69 70 46
4 51 50 72 73
4 55 54 74 75
4 50 55 75 72
4 51 73 74 54
4 59 58 76 77
4 63 62 78 79
4 58 63 79 76
4 59 77 78 62
4 65 64 80 81
4 65 81 82 66
4 64 83 84 80
4 64 67 85 83
4 83 86 87 84
4 83 85 88 86
4 86 69 89 87
4 86 88 70 69
4 69 68 90 89
4 68 71 91 90
4 66 92 93 67
4 66 82 94 92
4 67 93 95 85
4 85 95 96 88
4 88 96 97 70
4 70 97 98 71
4 71 98 99 91
4 92 100 101 93
4 92 94 102 100
4 93 101 103 95
4 95 103 104 96
4 96 104 105 97
4 97 105 106 98
4 98 106 107 99
4 100 108 109 101
4 100 102 110 108
4 101 109 111 103
4 103 111 112 104
4 104 112 113 105
4 105 113 114 106
4 106 114 115 107
4 108 116 117 109
4 108 110 118 116
4 109 117 119 111
4 111 119 120 112
4 112 120 121 113
4 113 121 122 114
4 114 122 123 115
4 116 73 72 117
4 116 118 124 73
4 117 72 125 119
4 119 125 126 120
4 120 126 77 121
4 121 77 76 122
4 122 76 127 123
4 75 74 128 129
4 73 124 128 74
4 130 75 129 131
4 72 75 130 125
4 125 130 132 126
4 78 132 133 134
4 126 132 78 77
4 79 78 134 135
4 76 79 135 127
4 136 137 138 139
4 130 137 136 132
4 133 139 138 131
4 132 136 139 133
4 130 131 138 137
4 140 141 142 143
4 140 84 87 141
4 141 87 144 142
4 140 143 145 84
4 81 80 146 147
4 81 147 148 82
4 80 84 145 146
4 87 89 149 144
4 89 90 150 149
4 90 91 151 150
4 82 148 152 94
4 91 99 153 151
4 94 152 154 102
4 99 107 155 153
4 102 154 156 110
4 107 115 157 155
4 110 156 158 118
4 115 123 159 157
4 118 158 160 124
4 123 127 161 159
4 129 128 162 163
4 124 160 162 128
4 131 129 163 164
4 133 131 164 165
4 134 133 165 166
4 135 134 166 167
4 127 135 167 161
4 168 169 170 171
4 168 172 173 169
4 168 171 174 172
4 169 175 176 170
4 169 173 177 175
4 175 178 179 176
4 175 177 180 178
4 178 180 181 179
4 172 182 183 173
4 172 174 184 182
4 173 183 185 177
4 177 185 186 180
4 180 186 187 181
4 188 146 145 143
4 188 189 190 146
4 142 144 149 191
4 191 149 192 193
4 147 146 190 194
4 190 195 196 194
4 147 194 196 148
4 149 150 197 192
4 197 198 199 192
4 150 151 198 197
4 148 196 200 152
4 151 153 201 198
4 152 200 202 154
4 153 155 203 201
4 154 202 204 156
4 155 157 205 203
4 156 204 206 158
4 157 159 207 205
4 158 206 208 160
4 159 161 209 207
4 163 162 210 211
4 212 211 210 208
4 160 208 210 162
4 164 163 211 213
4 165 164 213 214
4 166 165 214 215
4 167 166 215 216
4 209 216 215 217
4 161 167 216 209
4 171 170 218 219
4 218 220 221 219
4 171 219 221 174
4 170 176 222 218
4 222 223 220 218
4 176 179 224 222
4 224 225 223 222
4 179 181 225 224
4 174 221 226 184
4 181 187 227 225
4 189 228 229 190
4 193 192 230 231
4 190 229 232 195
4 192 199 233 230
4 196 195 232 234
4 232 235 236 234
4 196 234 236 200
4 237 238 235 232
4 239 240 238 237
4 233 241 240 239
4 199 198 242 233
4 242 243 241 233
4 198 201 243 242
4 235 244 245 236
4 200 236 245 202
4 238 246 244 235
4 240 247 246 238
4 241 248 247 240
4 243 249 248 241
4 201 203 249 243
4 244 250 251 245
4 202 245 251 204
4 246 252 250 244
4 247 253 252 246
4 248 254 253 247
4 249 255 254 248
4 203 205 255 249
4 250 256 257 251
4 204 251 257 206
4 252 258 256 250
4 253 259 258 252
4 254 260 259 253
4 255 261 260 254
4 205 207 261 255
4 212 208 262 263
4 256 263 262 257
4 206 257 262 208
4 258 264 263 256
4 259 265 264 258
4 260 266 265 259
4 209 217 266 267
4 261 267 266 260
4 207 209 267 261
4 213 211 268 269
4 264 269 268 263
4 212 263 268 211
4 214 213 269 270
4 265 270 269 264
4 215 214 270 271
4 266 271 270 265
4 217 215 271 266
4 272 273 274 275
4 274 276 277 275
4 272 275 277 278
4 220 223 279 280
4 279 281 282 280
4 283 284 285 286
4 285 287 288 286
4 284 289 287 285
4 228 290 291 229
4 231 230 292 293
4 294 295 296 297
4 298 299 300 301
4 294 299 298 295
4 296 301 300 297
4 294 297 300 299
4 237 232 302 303
4 239 237 303 304
4 233 239 304 305
4 306 307 308 309
4 310 311 312 313
4 306 311 310 307
4 308 313 312 309
4 307 310 313 308
4 290 314 315 316
4 315 317 318 316
4 290 316 318 291
4 314 319 320 315
4 320 321 317 315
4 319 293 322 320
4 322 323 321 320
4 293 292 323 322
4 303 302 324 325
4 317 325 324 318
4 291 318 324 302
4 304 303 325 326
4 321 326 325 317
4 305 304 326 327
4 323 327 326 321
4 292 305 327 323
