ply
format ascii 1.0
comment Generated from Goxel 0.10.6
element vertex 744
property float x
property float y
property float z
property float red
property float green
property float blue
element face 462
property list uchar int vertex_indices
end_header
2 1 0 1.000000 1.000000 1.000000
3 1 0 1.000000 1.000000 1.000000
3 1 1 1.000000 1.000000 1.000000
2 1 1 1.000000 1.000000 1.000000
2 2 0 1.000000 1.000000 1.000000
3 2 0 1.000000 1.000000 1.000000
3 2 1 1.000000 1.000000 1.000000
2 2 1 1.000000 1.000000 1.000000
4 1 0 1.000000 1.000000 1.000000
4 1 1 1.000000 1.000000 1.000000
4 2 0 1.000000 1.000000 1.000000
4 2 1 1.000000 1.000000 1.000000
7 1 0 1.000000 1.000000 1.000000
8 1 0 1.000000 1.000000 1.000000
8 1 1 1.000000 1.000000 1.000000
7 1 1 1.000000 1.000000 1.000000
7 2 0 1.000000 1.000000 1.000000
8 2 0 1.000000 1.000000 1.000000
8 2 1 1.000000 1.000000 1.000000
7 2 1 1.000000 1.000000 1.000000
9 1 0 1.000000 1.000000 1.000000
9 1 1 1.000000 1.000000 1.000000
9 2 0 1.000000 1.000000 1.000000
9 2 1 1.000000 1.000000 1.000000
3 3 0 1.000000 1.000000 1.000000
2 3 0 1.000000 1.000000 1.000000
2 3 1 1.000000 1.000000 1.000000
3 3 1 1.000000 1.000000 1.000000
4 3 0 1.000000 1.000000 1.000000
4 3 1 1.000000 1.000000 1.000000
8 3 0 1.000000 1.000000 1.000000
7 3 0 1.000000 1.000000 1.000000
7 3 1 1.000000 1.000000 1.000000
8 3 1 1.000000 1.000000 1.000000
9 3 0 1.000000 1.000000 1.000000
9 3 1 1.000000 1.000000 1.000000
2 8 0 1.000000 1.000000 1.000000
3 8 0 1.000000 1.000000 1.000000
3 8 1 1.000000 1.000000 1.000000
2 8 1 1.000000 1.000000 1.000000
2 9 0 1.000000 1.000000 1.000000
3 9 0 1.000000 1.000000 1.000000
3 9 1 1.000000 1.000000 1.000000
2 9 1 1.000000 1.000000 1.000000
4 8 0 1.000000 1.000000 1.000000
4 8 1 1.000000 1.000000 1.000000
4 9 0 1.000000 1.000000 1.000000
4 9 1 1.000000 1.000000 1.000000
7 8 0 1.000000 1.000000 1.000000
8 8 0 1.000000 1.000000 1.000000
8 8 1 1.000000 1.000000 1.000000
7 8 1 1.000000 1.000000 1.000000
7 9 0 1.000000 1.000000 1.000000
8 9 0 1.000000 1.000000 1.000000
8 9 1 1.000000 1.000000 1.000000
7 9 1 1.000000 1.000000 1.000000
9 8 0 1.000000 1.000000 1.000000
9 8 1 1.000000 1.000000 1.000000
9 9 0 1.000000 1.000000 1.000000
9 9 1 1.000000 1.000000 1.000000
3 10 0 1.000000 1.000000 1.000000
2 10 0 1.000000 1.000000 1.000000
2 10 1 1.000000 1.000000 1.000000
3 10 1 1.000000 1.000000 1.000000
4 10 0 1.000000 1.000000 1.000000
4 10 1 1.000000 1.000000 1.000000
8 10 0 1.000000 1.000000 1.000000
7 10 0 1.000000 1.000000 1.000000
7 10 1 1.000000 1.000000 1.000000
8 10 1 1.000000 1.000000 1.000000
9 10 0 1.000000 1.000000 1.000000
9 10 1 1.000000 1.000000 1.000000
2 2 1 0.874510 0.443137 0.149020
3 2 1 0.874510 0.443137 0.149020
3 2 2 0.874510 0.443137 0.149020
2 2 2 0.874510 0.443137 0.149020
3 3 1 0.874510 0.443137 0.149020
2 3 1 0.874510 0.443137 0.149020
2 3 2 0.874510 0.443137 0.149020
3 3 2 0.874510 0.443137 0.149020
4 2 1 0.874510 0.443137 0.149020
4 2 2 0.874510 0.443137 0.149020
4 3 1 0.874510 0.443137 0.149020
4 3 2 0.874510 0.443137 0.149020
7 2 1 0.874510 0.443137 0.149020
8 2 1 0.874510 0.443137 0.149020
8 2 2 0.874510 0.443137 0.149020
7 2 2 0.874510 0.443137 0.149020
8 3 1 0.874510 0.443137 0.149020
7 3 1 0.874510 0.443137 0.149020
7 3 2 0.874510 0.443137 0.149020
8 3 2 0.874510 0.443137 0.149020
9 2 1 0.874510 0.443137 0.149020
9 2 2 0.874510 0.443137 0.149020
9 3 1 0.874510 0.443137 0.149020
9 3 2 0.874510 0.443137 0.149020
2 9 1 0.874510 0.443137 0.149020
3 9 1 0.874510 0.443137 0.149020
3 9 2 0.874510 0.443137 0.149020
2 9 2 0.874510 0.443137 0.149020
3 10 1 0.874510 0.443137 0.149020
2 10 1 0.874510 0.443137 0.149020
2 10 2 0.874510 0.443137 0.149020
3 10 2 0.874510 0.443137 0.149020
4 9 1 0.874510 0.443137 0.149020
4 9 2 0.874510 0.443137 0.149020
4 10 1 0.874510 0.443137 0.149020
4 10 2 0.874510 0.443137 0.149020
7 9 1 0.874510 0.443137 0.149020
8 9 1 0.874510 0.443137 0.149020
8 9 2 0.874510 0.443137 0.149020
7 9 2 0.874510 0.443137 0.149020
8 10 1 0.874510 0.443137 0.149020
7 10 1 0.874510 0.443137 0.149020
7 10 2 0.874510 0.443137 0.149020
8 10 2 0.874510 0.443137 0.149020
9 9 1 0.874510 0.443137 0.149020
9 9 2 0.874510 0.443137 0.149020
9 10 1 0.874510 0.443137 0.149020
9 10 2 0.874510 0.443137 0.149020
3 2 3 0.874510 0.443137 0.149020
2 2 3 0.874510 0.443137 0.149020
2 3 3 0.874510 0.443137 0.149020
3 3 3 0.874510 0.443137 0.149020
4 2 3 0.874510 0.443137 0.149020
4 3 3 0.874510 0.443137 0.149020
8 2 3 0.874510 0.443137 0.149020
7 2 3 0.874510 0.443137 0.149020
7 3 3 0.874510 0.443137 0.149020
8 3 3 0.874510 0.443137 0.149020
9 2 3 0.874510 0.443137 0.149020
9 3 3 0.874510 0.443137 0.149020
3 9 3 0.874510 0.443137 0.149020
2 9 3 0.874510 0.443137 0.149020
2 10 3 0.874510 0.443137 0.149020
3 10 3 0.874510 0.443137 0.149020
4 9 3 0.874510 0.443137 0.149020
4 10 3 0.874510 0.443137 0.149020
8 9 3 0.874510 0.443137 0.149020
7 9 3 0.874510 0.443137 0.149020
7 10 3 0.874510 0.443137 0.149020
8 10 3 0.874510 0.443137 0.149020
9 9 3 0.874510 0.443137 0.149020
9 10 3 0.874510 0.443137 0.149020
3 0 3 1.000000 1.000000 1.000000
4 0 3 1.000000 1.000000 1.000000
4 0 4 1.000000 1.000000 1.000000
3 0 4 1.000000 1.000000 1.000000
3 1 3 1.000000 1.000000 1.000000
4 1 3 1.000000 1.000000 1.000000
3 1 4 1.000000 1.000000 1.000000
5 0 3 1.000000 1.000000 1.000000
5 0 4 1.000000 1.000000 1.000000
5 1 3 1.000000 1.000000 1.000000
5 1 4 1.000000 1.000000 1.000000
6 0 3 1.000000 1.000000 1.000000
7 0 3 1.000000 1.000000 1.000000
7 0 4 1.000000 1.000000 1.000000
6 0 4 1.000000 1.000000 1.000000
6 1 3 1.000000 1.000000 1.000000
7 1 3 1.000000 1.000000 1.000000
6 1 4 1.000000 1.000000 1.000000
8 0 3 1.000000 1.000000 1.000000
8 0 4 1.000000 1.000000 1.000000
8 1 3 1.000000 1.000000 1.000000
8 1 4 1.000000 1.000000 1.000000
2 1 3 0.874510 0.443137 0.149020
3 1 3 0.874510 0.443137 0.149020
3 1 4 0.874510 0.443137 0.149020
2 1 4 0.874510 0.443137 0.149020
2 2 4 0.874510 0.443137 0.149020
4 1 3 0.874510 0.443137 0.149020
5 2 3 0.874510 0.443137 0.149020
5 1 3 0.874510 0.443137 0.149020
6 1 3 0.874510 0.443137 0.149020
6 1 4 0.874510 0.443137 0.149020
5 1 4 0.874510 0.443137 0.149020
6 2 3 0.874510 0.443137 0.149020
7 1 3 0.874510 0.443137 0.149020
8 1 3 0.874510 0.443137 0.149020
9 1 3 0.874510 0.443137 0.149020
9 1 4 0.874510 0.443137 0.149020
8 1 4 0.874510 0.443137 0.149020
9 2 4 0.874510 0.443137 0.149020
2 2 3 0.000000 0.000000 0.000000
2 2 4 0.000000 0.000000 0.000000
2 3 4 0.000000 0.000000 0.000000
2 3 3 0.000000 0.000000 0.000000
4 2 3 0.000000 0.000000 0.000000
4 3 3 0.000000 0.000000 0.000000
5 3 3 0.000000 0.000000 0.000000
5 2 3 0.000000 0.000000 0.000000
6 3 3 0.000000 0.000000 0.000000
6 2 3 0.000000 0.000000 0.000000
7 3 3 0.000000 0.000000 0.000000
7 2 3 0.000000 0.000000 0.000000
9 2 3 0.000000 0.000000 0.000000
9 3 3 0.000000 0.000000 0.000000
9 3 4 0.000000 0.000000 0.000000
9 2 4 0.000000 0.000000 0.000000
2 4 3 0.874510 0.443137 0.149020
3 4 3 0.874510 0.443137 0.149020
2 3 4 0.874510 0.443137 0.149020
2 4 4 0.874510 0.443137 0.149020
4 4 3 0.874510 0.443137 0.149020
5 4 3 0.874510 0.443137 0.149020
5 3 3 0.874510 0.443137 0.149020
6 4 3 0.874510 0.443137 0.149020
6 3 3 0.874510 0.443137 0.149020
7 4 3 0.874510 0.443137 0.149020
8 4 3 0.874510 0.443137 0.149020
9 4 3 0.874510 0.443137 0.149020
9 4 4 0.874510 0.443137 0.149020
9 3 4 0.874510 0.443137 0.149020
2 4 3 0.000000 0.000000 0.000000
2 5 3 0.000000 0.000000 0.000000
3 5 3 0.000000 0.000000 0.000000
3 4 3 0.000000 0.000000 0.000000
2 4 4 0.000000 0.000000 0.000000
2 5 4 0.000000 0.000000 0.000000
4 5 3 0.000000 0.000000 0.000000
4 4 3 0.000000 0.000000 0.000000
5 5 3 0.000000 0.000000 0.000000
5 4 3 0.000000 0.000000 0.000000
6 5 3 0.000000 0.000000 0.000000
6 4 3 0.000000 0.000000 0.000000
7 5 3 0.000000 0.000000 0.000000
7 4 3 0.000000 0.000000 0.000000
8 5 3 0.000000 0.000000 0.000000
8 4 3 0.000000 0.000000 0.000000
9 5 3 0.000000 0.000000 0.000000
9 4 3 0.000000 0.000000 0.000000
9 5 4 0.000000 0.000000 0.000000
9 4 4 0.000000 0.000000 0.000000
2 5 3 0.874510 0.443137 0.149020
2 6 3 0.874510 0.443137 0.149020
3 6 3 0.874510 0.443137 0.149020
3 5 3 0.874510 0.443137 0.149020
2 5 4 0.874510 0.443137 0.149020
2 6 4 0.874510 0.443137 0.149020
4 6 3 0.874510 0.443137 0.149020
4 5 3 0.874510 0.443137 0.149020
5 6 3 0.874510 0.443137 0.149020
5 5 3 0.874510 0.443137 0.149020
6 6 3 0.874510 0.443137 0.149020
6 5 3 0.874510 0.443137 0.149020
7 6 3 0.874510 0.443137 0.149020
7 5 3 0.874510 0.443137 0.149020
8 6 3 0.874510 0.443137 0.149020
8 5 3 0.874510 0.443137 0.149020
9 6 3 0.874510 0.443137 0.149020
9 5 3 0.874510 0.443137 0.149020
9 6 4 0.874510 0.443137 0.149020
9 5 4 0.874510 0.443137 0.149020
2 6 3 0.000000 0.000000 0.000000
2 7 3 0.000000 0.000000 0.000000
3 7 3 0.000000 0.000000 0.000000
3 6 3 0.000000 0.000000 0.000000
2 6 4 0.000000 0.000000 0.000000
2 7 4 0.000000 0.000000 0.000000
4 7 3 0.000000 0.000000 0.000000
4 6 3 0.000000 0.000000 0.000000
5 7 3 0.000000 0.000000 0.000000
5 6 3 0.000000 0.000000 0.000000
6 7 3 0.000000 0.000000 0.000000
6 6 3 0.000000 0.000000 0.000000
7 7 3 0.000000 0.000000 0.000000
7 6 3 0.000000 0.000000 0.000000
8 7 3 0.000000 0.000000 0.000000
8 6 3 0.000000 0.000000 0.000000
9 7 3 0.000000 0.000000 0.000000
9 6 3 0.000000 0.000000 0.000000
9 7 4 0.000000 0.000000 0.000000
9 6 4 0.000000 0.000000 0.000000
2 7 3 0.874510 0.443137 0.149020
2 8 3 0.874510 0.443137 0.149020
3 8 3 0.874510 0.443137 0.149020
3 7 3 0.874510 0.443137 0.149020
2 7 4 0.874510 0.443137 0.149020
2 8 4 0.874510 0.443137 0.149020
4 8 3 0.874510 0.443137 0.149020
4 7 3 0.874510 0.443137 0.149020
5 8 3 0.874510 0.443137 0.149020
5 7 3 0.874510 0.443137 0.149020
6 8 3 0.874510 0.443137 0.149020
6 7 3 0.874510 0.443137 0.149020
7 8 3 0.874510 0.443137 0.149020
7 7 3 0.874510 0.443137 0.149020
8 8 3 0.874510 0.443137 0.149020
8 7 3 0.874510 0.443137 0.149020
9 8 3 0.874510 0.443137 0.149020
9 7 3 0.874510 0.443137 0.149020
9 8 4 0.874510 0.443137 0.149020
9 7 4 0.874510 0.443137 0.149020
2 8 3 0.000000 0.000000 0.000000
2 9 3 0.000000 0.000000 0.000000
3 9 3 0.000000 0.000000 0.000000
3 8 3 0.000000 0.000000 0.000000
2 8 4 0.000000 0.000000 0.000000
2 9 4 0.000000 0.000000 0.000000
4 9 3 0.000000 0.000000 0.000000
4 8 3 0.000000 0.000000 0.000000
5 9 3 0.000000 0.000000 0.000000
5 8 3 0.000000 0.000000 0.000000
6 9 3 0.000000 0.000000 0.000000
6 8 3 0.000000 0.000000 0.000000
7 9 3 0.000000 0.000000 0.000000
7 8 3 0.000000 0.000000 0.000000
8 9 3 0.000000 0.000000 0.000000
8 8 3 0.000000 0.000000 0.000000
9 9 3 0.000000 0.000000 0.000000
9 8 3 0.000000 0.000000 0.000000
9 9 4 0.000000 0.000000 0.000000
9 8 4 0.000000 0.000000 0.000000
2 10 4 0.874510 0.443137 0.149020
3 10 4 0.874510 0.443137 0.149020
2 9 4 0.874510 0.443137 0.149020
4 10 4 0.874510 0.443137 0.149020
5 10 3 0.874510 0.443137 0.149020
5 10 4 0.874510 0.443137 0.149020
5 9 3 0.874510 0.443137 0.149020
6 10 3 0.874510 0.443137 0.149020
6 10 4 0.874510 0.443137 0.149020
6 9 3 0.874510 0.443137 0.149020
7 10 4 0.874510 0.443137 0.149020
8 10 4 0.874510 0.443137 0.149020
9 10 4 0.874510 0.443137 0.149020
9 9 4 0.874510 0.443137 0.149020
2 0 4 1.000000 1.000000 1.000000
3 0 5 1.000000 1.000000 1.000000
2 0 5 1.000000 1.000000 1.000000
2 1 4 1.000000 1.000000 1.000000
3 1 5 1.000000 1.000000 1.000000
2 1 5 1.000000 1.000000 1.000000
4 0 5 1.000000 1.000000 1.000000
4 0 4 0.000000 0.000000 0.000000
5 0 4 0.000000 0.000000 0.000000
5 0 5 0.000000 0.000000 0.000000
4 0 5 0.000000 0.000000 0.000000
6 0 4 0.000000 0.000000 0.000000
6 0 5 0.000000 0.000000 0.000000
5 1 4 0.000000 0.000000 0.000000
6 1 4 0.000000 0.000000 0.000000
7 0 4 0.000000 0.000000 0.000000
7 0 5 0.000000 0.000000 0.000000
8 0 5 1.000000 1.000000 1.000000
7 0 5 1.000000 1.000000 1.000000
9 0 4 1.000000 1.000000 1.000000
9 0 5 1.000000 1.000000 1.000000
9 1 4 1.000000 1.000000 1.000000
9 1 5 1.000000 1.000000 1.000000
8 1 5 1.000000 1.000000 1.000000
2 1 5 0.874510 0.443137 0.149020
2 2 5 0.874510 0.443137 0.149020
9 2 5 0.874510 0.443137 0.149020
9 1 5 0.874510 0.443137 0.149020
2 2 5 0.000000 0.000000 0.000000
2 3 5 0.000000 0.000000 0.000000
9 3 5 0.000000 0.000000 0.000000
9 2 5 0.000000 0.000000 0.000000
2 3 5 0.874510 0.443137 0.149020
2 4 5 0.874510 0.443137 0.149020
9 4 5 0.874510 0.443137 0.149020
9 3 5 0.874510 0.443137 0.149020
2 4 5 0.000000 0.000000 0.000000
2 5 5 0.000000 0.000000 0.000000
9 5 5 0.000000 0.000000 0.000000
9 4 5 0.000000 0.000000 0.000000
2 5 5 0.874510 0.443137 0.149020
2 6 5 0.874510 0.443137 0.149020
9 6 5 0.874510 0.443137 0.149020
9 5 5 0.874510 0.443137 0.149020
2 6 5 0.000000 0.000000 0.000000
2 7 5 0.000000 0.000000 0.000000
9 7 5 0.000000 0.000000 0.000000
9 6 5 0.000000 0.000000 0.000000
2 7 5 0.874510 0.443137 0.149020
2 8 5 0.874510 0.443137 0.149020
9 8 5 0.874510 0.443137 0.149020
9 7 5 0.874510 0.443137 0.149020
2 8 5 0.000000 0.000000 0.000000
2 9 5 0.000000 0.000000 0.000000
9 9 5 0.000000 0.000000 0.000000
9 8 5 0.000000 0.000000 0.000000
2 10 5 0.874510 0.443137 0.149020
3 10 5 0.874510 0.443137 0.149020
2 9 5 0.874510 0.443137 0.149020
4 10 5 0.874510 0.443137 0.149020
5 10 5 0.874510 0.443137 0.149020
6 10 5 0.874510 0.443137 0.149020
7 10 5 0.874510 0.443137 0.149020
8 10 5 0.874510 0.443137 0.149020
9 10 5 0.874510 0.443137 0.149020
9 9 5 0.874510 0.443137 0.149020
4 0 6 1.000000 1.000000 1.000000
3 0 6 1.000000 1.000000 1.000000
4 1 6 1.000000 1.000000 1.000000
3 1 6 1.000000 1.000000 1.000000
5 0 5 1.000000 1.000000 1.000000
5 0 6 1.000000 1.000000 1.000000
5 1 6 1.000000 1.000000 1.000000
6 0 5 1.000000 1.000000 1.000000
6 0 6 1.000000 1.000000 1.000000
7 0 6 1.000000 1.000000 1.000000
7 1 6 1.000000 1.000000 1.000000
6 1 6 1.000000 1.000000 1.000000
8 0 6 1.000000 1.000000 1.000000
8 1 6 1.000000 1.000000 1.000000
3 1 5 0.874510 0.443137 0.149020
3 1 6 0.874510 0.443137 0.149020
2 1 6 0.874510 0.443137 0.149020
2 2 6 0.874510 0.443137 0.149020
8 1 5 0.874510 0.443137 0.149020
9 1 6 0.874510 0.443137 0.149020
8 1 6 0.874510 0.443137 0.149020
9 2 6 0.874510 0.443137 0.149020
2 2 6 0.000000 0.000000 0.000000
2 3 6 0.000000 0.000000 0.000000
9 3 6 0.000000 0.000000 0.000000
9 2 6 0.000000 0.000000 0.000000
2 3 6 0.874510 0.443137 0.149020
2 4 6 0.874510 0.443137 0.149020
9 4 6 0.874510 0.443137 0.149020
9 3 6 0.874510 0.443137 0.149020
2 4 6 0.000000 0.000000 0.000000
2 5 6 0.000000 0.000000 0.000000
9 5 6 0.000000 0.000000 0.000000
9 4 6 0.000000 0.000000 0.000000
2 5 6 0.874510 0.443137 0.149020
2 6 6 0.874510 0.443137 0.149020
9 6 6 0.874510 0.443137 0.149020
9 5 6 0.874510 0.443137 0.149020
2 6 6 0.000000 0.000000 0.000000
2 7 6 0.000000 0.000000 0.000000
9 7 6 0.000000 0.000000 0.000000
9 6 6 0.000000 0.000000 0.000000
2 7 6 0.874510 0.443137 0.149020
2 8 6 0.874510 0.443137 0.149020
9 8 6 0.874510 0.443137 0.149020
9 7 6 0.874510 0.443137 0.149020
2 8 6 0.000000 0.000000 0.000000
2 9 6 0.000000 0.000000 0.000000
9 9 6 0.000000 0.000000 0.000000
9 8 6 0.000000 0.000000 0.000000
2 10 6 0.874510 0.443137 0.149020
3 10 6 0.874510 0.443137 0.149020
2 9 6 0.874510 0.443137 0.149020
4 10 6 0.874510 0.443137 0.149020
5 10 6 0.874510 0.443137 0.149020
6 10 6 0.874510 0.443137 0.149020
7 10 6 0.874510 0.443137 0.149020
8 10 6 0.874510 0.443137 0.149020
9 10 6 0.874510 0.443137 0.149020
9 9 6 0.874510 0.443137 0.149020
6 11 5 0.874510 0.443137 0.149020
5 11 5 0.874510 0.443137 0.149020
5 11 6 0.874510 0.443137 0.149020
6 11 6 0.874510 0.443137 0.149020
6 0 7 1.000000 1.000000 1.000000
5 0 7 1.000000 1.000000 1.000000
6 1 7 1.000000 1.000000 1.000000
5 1 7 1.000000 1.000000 1.000000
3 1 7 0.874510 0.443137 0.149020
2 1 7 0.874510 0.443137 0.149020
2 2 7 0.874510 0.443137 0.149020
3 1 6 0.000000 0.000000 0.000000
4 1 6 0.000000 0.000000 0.000000
4 1 7 0.000000 0.000000 0.000000
3 1 7 0.000000 0.000000 0.000000
4 1 6 0.874510 0.443137 0.149020
5 1 6 0.874510 0.443137 0.149020
5 1 7 0.874510 0.443137 0.149020
4 1 7 0.874510 0.443137 0.149020
6 1 6 0.874510 0.443137 0.149020
7 1 6 0.874510 0.443137 0.149020
7 1 7 0.874510 0.443137 0.149020
6 1 7 0.874510 0.443137 0.149020
7 1 6 0.000000 0.000000 0.000000
8 1 6 0.000000 0.000000 0.000000
8 1 7 0.000000 0.000000 0.000000
7 1 7 0.000000 0.000000 0.000000
9 1 7 0.874510 0.443137 0.149020
8 1 7 0.874510 0.443137 0.149020
9 2 7 0.874510 0.443137 0.149020
2 2 7 0.000000 0.000000 0.000000
2 3 7 0.000000 0.000000 0.000000
9 3 7 0.000000 0.000000 0.000000
9 2 7 0.000000 0.000000 0.000000
2 3 7 0.874510 0.443137 0.149020
2 4 7 0.874510 0.443137 0.149020
9 4 7 0.874510 0.443137 0.149020
9 3 7 0.874510 0.443137 0.149020
2 4 7 0.000000 0.000000 0.000000
2 5 7 0.000000 0.000000 0.000000
9 5 7 0.000000 0.000000 0.000000
9 4 7 0.000000 0.000000 0.000000
2 5 7 0.874510 0.443137 0.149020
2 6 7 0.874510 0.443137 0.149020
9 6 7 0.874510 0.443137 0.149020
9 5 7 0.874510 0.443137 0.149020
2 6 7 0.000000 0.000000 0.000000
2 7 7 0.000000 0.000000 0.000000
9 7 7 0.000000 0.000000 0.000000
9 6 7 0.000000 0.000000 0.000000
2 7 7 0.874510 0.443137 0.149020
2 8 7 0.874510 0.443137 0.149020
9 8 7 0.874510 0.443137 0.149020
9 7 7 0.874510 0.443137 0.149020
2 8 7 0.000000 0.000000 0.000000
2 9 7 0.000000 0.000000 0.000000
9 9 7 0.000000 0.000000 0.000000
9 8 7 0.000000 0.000000 0.000000
2 10 7 0.874510 0.443137 0.149020
3 10 7 0.874510 0.443137 0.149020
2 9 7 0.874510 0.443137 0.149020
4 10 7 0.874510 0.443137 0.149020
5 10 7 0.874510 0.443137 0.149020
6 10 7 0.874510 0.443137 0.149020
7 10 7 0.874510 0.443137 0.149020
8 10 7 0.874510 0.443137 0.149020
9 10 7 0.874510 0.443137 0.149020
9 9 7 0.874510 0.443137 0.149020
6 11 6 0.000000 0.000000 0.000000
5 11 6 0.000000 0.000000 0.000000
5 11 7 0.000000 0.000000 0.000000
6 11 7 0.000000 0.000000 0.000000
6 10 6 0.000000 0.000000 0.000000
6 10 7 0.000000 0.000000 0.000000
5 10 6 0.000000 0.000000 0.000000
5 10 7 0.000000 0.000000 0.000000
3 1 8 0.874510 0.443137 0.149020
2 1 8 0.874510 0.443137 0.149020
3 2 8 0.874510 0.443137 0.149020
2 2 8 0.874510 0.443137 0.149020
4 1 8 0.874510 0.443137 0.149020
4 2 8 0.874510 0.443137 0.149020
5 1 8 0.874510 0.443137 0.149020
5 2 8 0.874510 0.443137 0.149020
6 1 8 0.874510 0.443137 0.149020
6 2 8 0.874510 0.443137 0.149020
7 1 8 0.874510 0.443137 0.149020
7 2 8 0.874510 0.443137 0.149020
8 1 8 0.874510 0.443137 0.149020
8 2 8 0.874510 0.443137 0.149020
9 1 8 0.874510 0.443137 0.149020
9 2 8 0.874510 0.443137 0.149020
3 2 8 0.000000 0.000000 0.000000
3 3 8 0.000000 0.000000 0.000000
2 3 8 0.000000 0.000000 0.000000
2 2 8 0.000000 0.000000 0.000000
4 2 8 0.000000 0.000000 0.000000
4 3 8 0.000000 0.000000 0.000000
5 2 8 0.000000 0.000000 0.000000
5 3 8 0.000000 0.000000 0.000000
6 2 8 0.000000 0.000000 0.000000
6 3 8 0.000000 0.000000 0.000000
7 2 8 0.000000 0.000000 0.000000
7 3 8 0.000000 0.000000 0.000000
8 2 8 0.000000 0.000000 0.000000
8 3 8 0.000000 0.000000 0.000000
9 2 8 0.000000 0.000000 0.000000
9 3 8 0.000000 0.000000 0.000000
2 3 8 0.874510 0.443137 0.149020
2 4 8 0.874510 0.443137 0.149020
5 3 8 0.874510 0.443137 0.149020
5 4 8 0.874510 0.443137 0.149020
4 4 8 0.874510 0.443137 0.149020
4 3 8 0.874510 0.443137 0.149020
6 3 8 0.874510 0.443137 0.149020
6 4 8 0.874510 0.443137 0.149020
7 3 8 0.874510 0.443137 0.149020
7 4 8 0.874510 0.443137 0.149020
9 4 8 0.874510 0.443137 0.149020
9 3 8 0.874510 0.443137 0.149020
3 4 8 0.000000 0.000000 0.000000
3 5 8 0.000000 0.000000 0.000000
2 5 8 0.000000 0.000000 0.000000
2 4 8 0.000000 0.000000 0.000000
4 4 8 0.000000 0.000000 0.000000
4 5 8 0.000000 0.000000 0.000000
5 4 8 0.000000 0.000000 0.000000
5 5 8 0.000000 0.000000 0.000000
6 4 8 0.000000 0.000000 0.000000
6 5 8 0.000000 0.000000 0.000000
7 4 8 0.000000 0.000000 0.000000
7 5 8 0.000000 0.000000 0.000000
8 4 8 0.000000 0.000000 0.000000
8 5 8 0.000000 0.000000 0.000000
9 4 8 0.000000 0.000000 0.000000
9 5 8 0.000000 0.000000 0.000000
3 5 8 0.874510 0.443137 0.149020
3 6 8 0.874510 0.443137 0.149020
2 6 8 0.874510 0.443137 0.149020
2 5 8 0.874510 0.443137 0.149020
4 5 8 0.874510 0.443137 0.149020
4 6 8 0.874510 0.443137 0.149020
5 5 8 0.874510 0.443137 0.149020
5 6 8 0.874510 0.443137 0.149020
6 5 8 0.874510 0.443137 0.149020
6 6 8 0.874510 0.443137 0.149020
7 5 8 0.874510 0.443137 0.149020
7 6 8 0.874510 0.443137 0.149020
8 5 8 0.874510 0.443137 0.149020
8 6 8 0.874510 0.443137 0.149020
9 5 8 0.874510 0.443137 0.149020
9 6 8 0.874510 0.443137 0.149020
3 6 8 0.000000 0.000000 0.000000
3 7 8 0.000000 0.000000 0.000000
2 7 8 0.000000 0.000000 0.000000
2 6 8 0.000000 0.000000 0.000000
4 6 8 0.000000 0.000000 0.000000
4 7 8 0.000000 0.000000 0.000000
5 6 8 0.000000 0.000000 0.000000
5 7 8 0.000000 0.000000 0.000000
6 6 8 0.000000 0.000000 0.000000
6 7 8 0.000000 0.000000 0.000000
7 6 8 0.000000 0.000000 0.000000
7 7 8 0.000000 0.000000 0.000000
8 6 8 0.000000 0.000000 0.000000
8 7 8 0.000000 0.000000 0.000000
9 6 8 0.000000 0.000000 0.000000
9 7 8 0.000000 0.000000 0.000000
3 7 8 0.874510 0.443137 0.149020
3 8 8 0.874510 0.443137 0.149020
2 8 8 0.874510 0.443137 0.149020
2 7 8 0.874510 0.443137 0.149020
4 7 8 0.874510 0.443137 0.149020
4 8 8 0.874510 0.443137 0.149020
5 7 8 0.874510 0.443137 0.149020
5 8 8 0.874510 0.443137 0.149020
6 7 8 0.874510 0.443137 0.149020
6 8 8 0.874510 0.443137 0.149020
7 7 8 0.874510 0.443137 0.149020
7 8 8 0.874510 0.443137 0.149020
8 7 8 0.874510 0.443137 0.149020
8 8 8 0.874510 0.443137 0.149020
9 7 8 0.874510 0.443137 0.149020
9 8 8 0.874510 0.443137 0.149020
3 8 8 0.000000 0.000000 0.000000
3 9 8 0.000000 0.000000 0.000000
2 9 8 0.000000 0.000000 0.000000
2 8 8 0.000000 0.000000 0.000000
4 8 8 0.000000 0.000000 0.000000
4 9 8 0.000000 0.000000 0.000000
5 8 8 0.000000 0.000000 0.000000
5 9 8 0.000000 0.000000 0.000000
6 8 8 0.000000 0.000000 0.000000
6 9 8 0.000000 0.000000 0.000000
7 8 8 0.000000 0.000000 0.000000
7 9 8 0.000000 0.000000 0.000000
8 8 8 0.000000 0.000000 0.000000
8 9 8 0.000000 0.000000 0.000000
9 8 8 0.000000 0.000000 0.000000
9 9 8 0.000000 0.000000 0.000000
2 10 8 0.874510 0.443137 0.149020
3 10 8 0.874510 0.443137 0.149020
3 9 8 0.874510 0.443137 0.149020
2 9 8 0.874510 0.443137 0.149020
4 10 8 0.874510 0.443137 0.149020
4 9 8 0.874510 0.443137 0.149020
5 10 8 0.874510 0.443137 0.149020
5 9 8 0.874510 0.443137 0.149020
6 9 8 0.874510 0.443137 0.149020
6 10 8 0.874510 0.443137 0.149020
7 10 8 0.874510 0.443137 0.149020
7 9 8 0.874510 0.443137 0.149020
8 10 8 0.874510 0.443137 0.149020
8 9 8 0.874510 0.443137 0.149020
9 10 8 0.874510 0.443137 0.149020
9 9 8 0.874510 0.443137 0.149020
6 11 7 0.874510 0.443137 0.149020
5 11 7 0.874510 0.443137 0.149020
5 11 8 0.874510 0.443137 0.149020
6 11 8 0.874510 0.443137 0.149020
3 3 8 0.874510 0.443137 0.149020
3 3 9 0.874510 0.443137 0.149020
2 3 9 0.874510 0.443137 0.149020
3 4 8 0.874510 0.443137 0.149020
2 4 9 0.874510 0.443137 0.149020
3 4 9 0.874510 0.443137 0.149020
4 3 9 0.874510 0.443137 0.149020
4 4 9 0.874510 0.443137 0.149020
8 3 8 0.874510 0.443137 0.149020
8 3 9 0.874510 0.443137 0.149020
7 3 9 0.874510 0.443137 0.149020
8 4 8 0.874510 0.443137 0.149020
7 4 9 0.874510 0.443137 0.149020
8 4 9 0.874510 0.443137 0.149020
9 3 9 0.874510 0.443137 0.149020
9 4 9 0.874510 0.443137 0.149020
5 10 8 0.000000 0.000000 0.000000
6 10 8 0.000000 0.000000 0.000000
6 10 9 0.000000 0.000000 0.000000
5 10 9 0.000000 0.000000 0.000000
6 11 8 0.000000 0.000000 0.000000
5 11 8 0.000000 0.000000 0.000000
5 11 9 0.000000 0.000000 0.000000
6 11 9 0.000000 0.000000 0.000000
3 3 10 0.874510 0.443137 0.149020
2 3 10 0.874510 0.443137 0.149020
2 4 10 0.874510 0.443137 0.149020
3 4 10 0.874510 0.443137 0.149020
4 3 10 0.874510 0.443137 0.149020
4 4 10 0.874510 0.443137 0.149020
8 3 10 0.874510 0.443137 0.149020
7 3 10 0.874510 0.443137 0.149020
7 4 10 0.874510 0.443137 0.149020
8 4 10 0.874510 0.443137 0.149020
9 3 10 0.874510 0.443137 0.149020
9 4 10 0.874510 0.443137 0.149020
5 9 9 0.000000 0.000000 0.000000
6 9 9 0.000000 0.000000 0.000000
6 9 10 0.000000 0.000000 0.000000
5 9 10 0.000000 0.000000 0.000000
6 10 10 0.000000 0.000000 0.000000
5 10 10 0.000000 0.000000 0.000000
6 11 9 0.874510 0.443137 0.149020
5 11 9 0.874510 0.443137 0.149020
5 11 10 0.874510 0.443137 0.149020
6 11 10 0.874510 0.443137 0.149020
6 10 10 0.874510 0.443137 0.149020
5 10 10 0.874510 0.443137 0.149020
6 10 9 0.874510 0.443137 0.149020
5 10 9 0.874510 0.443137 0.149020
5 7 10 0.874510 0.443137 0.149020
6 7 10 0.874510 0.443137 0.149020
6 7 11 0.874510 0.443137 0.149020
5 7 11 0.874510 0.443137 0.149020
5 8 10 0.874510 0.443137 0.149020
6 8 10 0.874510 0.443137 0.149020
6 8 11 0.874510 0.443137 0.149020
5 8 11 0.874510 0.443137 0.149020
5 8 10 0.000000 0.000000 0.000000
6 8 10 0.000000 0.000000 0.000000
6 8 11 0.000000 0.000000 0.000000
6 9 11 0.000000 0.000000 0.000000
5 9 11 0.000000 0.000000 0.000000
5 8 11 0.000000 0.000000 0.000000
5 10 11 0.874510 0.443137 0.149020
6 10 11 0.874510 0.443137 0.149020
6 9 11 0.874510 0.443137 0.149020
5 9 11 0.874510 0.443137 0.149020
6 9 10 0.874510 0.443137 0.149020
5 9 10 0.874510 0.443137 0.149020
4 0 1 2 3
4 0 4 5 1
4 2 6 7 3
4 0 3 7 4
4 1 8 9 2
4 1 5 10 8
4 9 11 6 2
4 8 10 11 9
4 12 13 14 15
4 12 16 17 13
4 14 18 19 15
4 12 15 19 16
4 13 20 21 14
4 13 17 22 20
4 21 23 18 14
4 20 22 23 21
4 24 25 26 27
4 4 25 24 5
4 4 7 26 25
4 28 24 27 29
4 5 24 28 10
4 10 28 29 11
4 30 31 32 33
4 16 31 30 17
4 16 19 32 31
4 34 30 33 35
4 17 30 34 22
4 22 34 35 23
4 36 37 38 39
4 36 40 41 37
4 38 42 43 39
4 36 39 43 40
4 37 44 45 38
4 37 41 46 44
4 45 47 42 38
4 44 46 47 45
4 48 49 50 51
4 48 52 53 49
4 50 54 55 51
4 48 51 55 52
4 49 56 57 50
4 49 53 58 56
4 57 59 54 50
4 56 58 59 57
4 60 61 62 63
4 40 61 60 41
4 40 43 62 61
4 64 60 63 65
4 41 60 64 46
4 46 64 65 47
4 66 67 68 69
4 52 67 66 53
4 52 55 68 67
4 70 66 69 71
4 53 66 70 58
4 58 70 71 59
4 72 73 74 75
4 76 77 78 79
4 72 75 78 77
4 73 80 81 74
4 82 76 79 83
4 80 82 83 81
4 84 85 86 87
4 88 89 90 91
4 84 87 90 89
4 85 92 93 86
4 94 88 91 95
4 92 94 95 93
4 96 97 98 99
4 100 101 102 103
4 96 99 102 101
4 97 104 105 98
4 106 100 103 107
4 104 106 107 105
4 108 109 110 111
4 112 113 114 115
4 108 111 114 113
4 109 116 117 110
4 118 112 115 119
4 116 118 119 117
4 75 74 120 121
4 79 78 122 123
4 75 121 122 78
4 74 81 124 120
4 83 79 123 125
4 81 83 125 124
4 87 86 126 127
4 91 90 128 129
4 87 127 128 90
4 86 93 130 126
4 95 91 129 131
4 93 95 131 130
4 99 98 132 133
4 103 102 134 135
4 99 133 134 102
4 98 105 136 132
4 107 103 135 137
4 105 107 137 136
4 111 110 138 139
4 115 114 140 141
4 111 139 140 114
4 110 117 142 138
4 119 115 141 143
4 117 119 143 142
4 144 145 146 147
4 144 148 149 145
4 144 147 150 148
4 145 151 152 146
4 145 149 153 151
4 151 153 154 152
4 155 156 157 158
4 155 159 160 156
4 155 158 161 159
4 156 162 163 157
4 156 160 164 162
4 162 164 165 163
4 166 167 168 169
4 166 121 120 167
4 166 169 170 121
4 167 120 124 171
4 171 124 172 173
4 173 174 175 176
4 173 172 177 174
4 174 177 127 178
4 178 127 126 179
4 179 180 181 182
4 179 126 130 180
4 180 130 183 181
4 184 185 186 187
4 188 189 190 191
4 191 190 192 193
4 193 192 194 195
4 196 197 198 199
4 122 200 201 123
4 122 202 203 200
4 123 201 204 125
4 125 204 205 206
4 206 205 207 208
4 208 207 209 128
4 128 209 210 129
4 129 210 211 131
4 131 211 212 213
4 214 215 216 217
4 214 218 219 215
4 217 216 220 221
4 221 220 222 223
4 223 222 224 225
4 225 224 226 227
4 227 226 228 229
4 229 228 230 231
4 231 230 232 233
4 234 235 236 237
4 234 238 239 235
4 237 236 240 241
4 241 240 242 243
4 243 242 244 245
4 245 244 246 247
4 247 246 248 249
4 249 248 250 251
4 251 250 252 253
4 254 255 256 257
4 254 258 259 255
4 257 256 260 261
4 261 260 262 263
4 263 262 264 265
4 265 264 266 267
4 267 266 268 269
4 269 268 270 271
4 271 270 272 273
4 274 275 276 277
4 274 278 279 275
4 277 276 280 281
4 281 280 282 283
4 283 282 284 285
4 285 284 286 287
4 287 286 288 289
4 289 288 290 291
4 291 290 292 293
4 294 295 296 297
4 294 298 299 295
4 297 296 300 301
4 301 300 302 303
4 303 302 304 305
4 305 304 306 307
4 307 306 308 309
4 309 308 310 311
4 311 310 312 313
4 135 134 314 315
4 133 316 314 134
4 137 135 315 317
4 318 137 317 319
4 136 137 318 320
4 321 318 319 322
4 320 318 321 323
4 140 321 322 324
4 323 321 140 139
4 141 140 324 325
4 143 141 325 326
4 142 143 326 327
4 328 147 329 330
4 328 331 150 147
4 329 332 333 330
4 328 330 333 331
4 147 146 334 329
4 335 336 337 338
4 336 339 340 337
4 336 341 342 339
4 339 343 344 340
4 157 163 345 346
4 163 347 348 345
4 163 165 349 347
4 348 350 351 345
4 347 349 350 348
4 169 352 353 170
4 181 183 354 355
4 185 356 357 186
4 199 198 358 359
4 202 360 361 203
4 213 212 362 363
4 218 364 365 219
4 233 232 366 367
4 238 368 369 239
4 253 252 370 371
4 258 372 373 259
4 273 272 374 375
4 278 376 377 279
4 293 292 378 379
4 298 380 381 299
4 313 312 382 383
4 315 314 384 385
4 316 386 384 314
4 317 315 385 387
4 319 317 387 388
4 322 319 388 389
4 324 322 389 390
4 325 324 390 391
4 326 325 391 392
4 327 326 392 393
4 329 334 394 395
4 394 396 397 395
4 329 395 397 332
4 334 398 399 394
4 399 400 396 394
4 398 401 402 399
4 401 346 403 402
4 403 404 405 402
4 346 345 406 403
4 406 407 404 403
4 345 351 407 406
4 352 408 409 410
4 352 410 411 353
4 412 355 413 414
4 355 354 415 413
4 356 416 417 357
4 359 358 418 419
4 360 420 421 361
4 363 362 422 423
4 364 424 425 365
4 367 366 426 427
4 368 428 429 369
4 371 370 430 431
4 372 432 433 373
4 375 374 434 435
4 376 436 437 377
4 379 378 438 439
4 380 440 441 381
4 383 382 442 443
4 385 384 444 445
4 386 446 444 384
4 387 385 445 447
4 388 387 447 448
4 390 389 449 450
4 391 390 450 451
4 392 391 451 452
4 393 392 452 453
4 454 455 456 457
4 388 455 454 389
4 389 454 457 449
4 388 448 456 455
4 399 402 458 459
4 458 460 461 459
4 402 405 460 458
4 399 459 461 400
4 410 409 462 463
4 410 463 464 411
4 465 466 467 468
4 469 470 471 472
4 473 474 475 476
4 477 478 479 480
4 414 413 481 482
4 413 415 483 481
4 416 484 485 417
4 419 418 486 487
4 420 488 489 421
4 423 422 490 491
4 424 492 493 425
4 427 426 494 495
4 428 496 497 429
4 431 430 498 499
4 432 500 501 433
4 435 434 502 503
4 436 504 505 437
4 439 438 506 507
4 440 508 509 441
4 443 442 510 511
4 445 444 512 513
4 446 514 512 444
4 447 445 513 515
4 448 447 515 516
4 450 449 517 518
4 451 450 518 519
4 452 451 519 520
4 453 452 520 521
4 522 523 524 525
4 526 522 525 527
4 528 529 524 523
4 463 462 530 531
4 530 532 533 531
4 463 531 533 464
4 462 472 534 530
4 534 535 532 530
4 472 471 536 534
4 536 537 535 534
4 471 476 538 536
4 538 539 537 536
4 476 475 540 538
4 540 541 539 538
4 475 482 542 540
4 542 543 541 540
4 482 481 544 542
4 544 545 543 542
4 481 483 545 544
4 546 547 548 549
4 484 549 548 485
4 550 551 547 546
4 552 553 551 550
4 554 555 553 552
4 556 557 555 554
4 558 559 557 556
4 560 561 559 558
4 487 486 561 560
4 488 562 563 489
4 564 565 566 567
4 568 569 565 564
4 570 571 569 568
4 491 490 572 573
4 574 575 576 577
4 492 577 576 493
4 578 579 575 574
4 580 581 579 578
4 582 583 581 580
4 584 585 583 582
4 586 587 585 584
4 588 589 587 586
4 495 494 589 588
4 590 591 592 593
4 496 593 592 497
4 594 595 591 590
4 596 597 595 594
4 598 599 597 596
4 600 601 599 598
4 602 603 601 600
4 604 605 603 602
4 499 498 605 604
4 606 607 608 609
4 500 609 608 501
4 610 611 607 606
4 612 613 611 610
4 614 615 613 612
4 616 617 615 614
4 618 619 617 616
4 620 621 619 618
4 503 502 621 620
4 622 623 624 625
4 504 625 624 505
4 626 627 623 622
4 628 629 627 626
4 630 631 629 628
4 632 633 631 630
4 634 635 633 632
4 636 637 635 634
4 507 506 637 636
4 638 639 640 641
4 508 641 640 509
4 642 643 639 638
4 644 645 643 642
4 646 647 645 644
4 648 649 647 646
4 650 651 649 648
4 652 653 651 650
4 511 510 653 652
4 513 512 654 655
4 656 655 654 657
4 514 657 654 512
4 515 513 655 658
4 659 658 655 656
4 516 515 658 660
4 661 660 658 659
4 662 663 660 661
4 518 517 663 664
4 665 664 663 662
4 519 518 664 666
4 667 666 664 665
4 520 519 666 668
4 669 668 666 667
4 521 520 668 669
4 670 671 672 673
4 517 670 673 663
4 516 660 672 671
4 562 674 675 676
4 677 563 678 679
4 562 676 678 563
4 674 567 680 675
4 566 677 679 681
4 567 566 681 680
4 570 682 683 684
4 685 571 686 687
4 570 684 686 571
4 682 573 688 683
4 572 685 687 689
4 573 572 689 688
4 690 691 692 693
4 694 695 696 697
4 691 694 697 692
4 690 693 696 695
4 676 675 698 699
4 679 678 700 701
4 698 701 700 699
4 676 699 700 678
4 675 680 702 698
4 681 679 701 703
4 702 703 701 698
4 680 681 703 702
4 684 683 704 705
4 687 686 706 707
4 704 707 706 705
4 684 705 706 686
4 683 688 708 704
4 689 687 707 709
4 708 709 707 704
4 688 689 709 708
4 710 711 712 713
4 710 693 692 711
4 711 692 714 712
4 710 713 715 693
4 716 717 718 719
4 720 719 718 721
4 722 716 719 720
4 723 721 718 717
4 724 725 726 727
4 724 728 729 725
4 726 730 731 727
4 725 729 730 726
4 724 727 731 728
4 732 713 712 733
4 734 735 736 737
4 733 712 735 734
4 732 737 736 713
4 720 721 738 739
4 740 739 738 741
4 742 720 739 740
4 743 741 738 721
