ply
format ascii 1.0
comment Generated from Goxel 0.10.6
element vertex 344
property float x
property float y
property float z
property float red
property float green
property float blue
element face 254
property list uchar int vertex_indices
end_header
3 0 0 0.796078 0.858824 0.988235
4 0 0 0.796078 0.858824 0.988235
4 0 1 0.796078 0.858824 0.988235
3 0 1 0.796078 0.858824 0.988235
3 1 0 0.796078 0.858824 0.988235
4 1 0 0.796078 0.858824 0.988235
3 1 1 0.796078 0.858824 0.988235
5 0 0 0.796078 0.858824 0.988235
5 0 1 0.796078 0.858824 0.988235
5 1 0 0.796078 0.858824 0.988235
6 0 0 0.796078 0.858824 0.988235
6 0 1 0.796078 0.858824 0.988235
6 1 0 0.796078 0.858824 0.988235
7 0 0 0.796078 0.858824 0.988235
7 0 1 0.796078 0.858824 0.988235
7 1 0 0.796078 0.858824 0.988235
8 0 0 0.796078 0.858824 0.988235
8 0 1 0.796078 0.858824 0.988235
8 1 0 0.796078 0.858824 0.988235
8 1 1 0.796078 0.858824 0.988235
3 2 0 0.796078 0.858824 0.988235
4 2 0 0.796078 0.858824 0.988235
3 2 1 0.796078 0.858824 0.988235
5 2 0 0.796078 0.858824 0.988235
6 2 0 0.796078 0.858824 0.988235
7 2 0 0.796078 0.858824 0.988235
8 2 0 0.796078 0.858824 0.988235
8 2 1 0.796078 0.858824 0.988235
3 2 0 0.356863 0.431373 0.882353
3 3 0 0.356863 0.431373 0.882353
4 3 0 0.356863 0.431373 0.882353
4 2 0 0.356863 0.431373 0.882353
3 2 1 0.356863 0.431373 0.882353
3 3 1 0.356863 0.431373 0.882353
5 3 0 0.356863 0.431373 0.882353
5 2 0 0.356863 0.431373 0.882353
6 3 0 0.356863 0.431373 0.882353
6 2 0 0.356863 0.431373 0.882353
7 3 0 0.356863 0.431373 0.882353
7 2 0 0.356863 0.431373 0.882353
8 3 0 0.356863 0.431373 0.882353
8 2 0 0.356863 0.431373 0.882353
8 3 1 0.356863 0.431373 0.882353
8 2 1 0.356863 0.431373 0.882353
3 4 0 0.356863 0.431373 0.882353
4 4 0 0.356863 0.431373 0.882353
3 4 1 0.356863 0.431373 0.882353
5 4 0 0.356863 0.431373 0.882353
6 4 0 0.356863 0.431373 0.882353
7 4 0 0.356863 0.431373 0.882353
8 4 0 0.356863 0.431373 0.882353
8 4 1 0.356863 0.431373 0.882353
3 5 0 0.356863 0.431373 0.882353
4 5 0 0.356863 0.431373 0.882353
3 5 1 0.356863 0.431373 0.882353
5 5 0 0.356863 0.431373 0.882353
6 5 0 0.356863 0.431373 0.882353
7 5 0 0.356863 0.431373 0.882353
8 5 0 0.356863 0.431373 0.882353
8 5 1 0.356863 0.431373 0.882353
3 6 0 0.356863 0.431373 0.882353
4 6 0 0.356863 0.431373 0.882353
3 6 1 0.356863 0.431373 0.882353
5 6 0 0.356863 0.431373 0.882353
6 6 0 0.356863 0.431373 0.882353
7 6 0 0.356863 0.431373 0.882353
8 6 0 0.356863 0.431373 0.882353
8 6 1 0.356863 0.431373 0.882353
3 6 0 0.247059 0.247059 0.454902
3 7 0 0.247059 0.247059 0.454902
4 7 0 0.247059 0.247059 0.454902
4 6 0 0.247059 0.247059 0.454902
3 6 1 0.247059 0.247059 0.454902
3 7 1 0.247059 0.247059 0.454902
4 7 0 0.356863 0.431373 0.882353
5 7 0 0.356863 0.431373 0.882353
6 7 0 0.356863 0.431373 0.882353
7 7 0 0.356863 0.431373 0.882353
7 6 0 0.247059 0.247059 0.454902
7 7 0 0.247059 0.247059 0.454902
8 7 0 0.247059 0.247059 0.454902
8 6 0 0.247059 0.247059 0.454902
8 7 1 0.247059 0.247059 0.454902
8 6 1 0.247059 0.247059 0.454902
3 7 0 0.356863 0.431373 0.882353
3 8 0 0.356863 0.431373 0.882353
4 8 0 0.356863 0.431373 0.882353
3 7 1 0.356863 0.431373 0.882353
3 8 1 0.356863 0.431373 0.882353
5 8 0 0.356863 0.431373 0.882353
6 8 0 0.356863 0.431373 0.882353
7 8 0 0.356863 0.431373 0.882353
8 8 0 0.356863 0.431373 0.882353
8 7 0 0.356863 0.431373 0.882353
8 8 1 0.356863 0.431373 0.882353
8 7 1 0.356863 0.431373 0.882353
4 9 0 0.356863 0.431373 0.882353
3 9 0 0.356863 0.431373 0.882353
3 9 1 0.356863 0.431373 0.882353
4 9 1 0.356863 0.431373 0.882353
5 9 0 0.356863 0.431373 0.882353
5 9 1 0.356863 0.431373 0.882353
6 9 0 0.356863 0.431373 0.882353
6 9 1 0.356863 0.431373 0.882353
7 9 0 0.356863 0.431373 0.882353
7 9 1 0.356863 0.431373 0.882353
8 9 0 0.356863 0.431373 0.882353
8 9 1 0.356863 0.431373 0.882353
3 0 1 0.247059 0.247059 0.454902
4 0 1 0.247059 0.247059 0.454902
4 0 2 0.247059 0.247059 0.454902
3 0 2 0.247059 0.247059 0.454902
3 1 2 0.247059 0.247059 0.454902
3 1 1 0.247059 0.247059 0.454902
5 0 1 0.247059 0.247059 0.454902
5 0 2 0.247059 0.247059 0.454902
6 0 1 0.247059 0.247059 0.454902
6 0 2 0.247059 0.247059 0.454902
7 0 1 0.247059 0.247059 0.454902
7 0 2 0.247059 0.247059 0.454902
8 0 1 0.247059 0.247059 0.454902
8 0 2 0.247059 0.247059 0.454902
8 1 1 0.247059 0.247059 0.454902
8 1 2 0.247059 0.247059 0.454902
3 2 2 0.247059 0.247059 0.454902
3 2 1 0.247059 0.247059 0.454902
8 2 1 0.247059 0.247059 0.454902
8 2 2 0.247059 0.247059 0.454902
3 2 2 0.356863 0.431373 0.882353
3 3 2 0.356863 0.431373 0.882353
8 3 2 0.356863 0.431373 0.882353
8 2 2 0.356863 0.431373 0.882353
3 4 2 0.356863 0.431373 0.882353
8 4 2 0.356863 0.431373 0.882353
3 5 2 0.356863 0.431373 0.882353
8 5 2 0.356863 0.431373 0.882353
3 6 2 0.356863 0.431373 0.882353
8 6 2 0.356863 0.431373 0.882353
3 7 2 0.356863 0.431373 0.882353
8 7 2 0.356863 0.431373 0.882353
3 7 2 0.247059 0.247059 0.454902
3 8 2 0.247059 0.247059 0.454902
3 8 1 0.247059 0.247059 0.454902
8 8 1 0.247059 0.247059 0.454902
8 8 2 0.247059 0.247059 0.454902
8 7 2 0.247059 0.247059 0.454902
3 9 2 0.356863 0.431373 0.882353
4 9 2 0.356863 0.431373 0.882353
3 8 2 0.356863 0.431373 0.882353
7 9 2 0.356863 0.431373 0.882353
8 9 2 0.356863 0.431373 0.882353
8 8 2 0.356863 0.431373 0.882353
4 10 1 0.356863 0.431373 0.882353
5 10 1 0.356863 0.431373 0.882353
5 9 2 0.356863 0.431373 0.882353
5 10 2 0.356863 0.431373 0.882353
4 10 2 0.356863 0.431373 0.882353
6 10 1 0.356863 0.431373 0.882353
6 9 2 0.356863 0.431373 0.882353
6 10 2 0.356863 0.431373 0.882353
7 10 1 0.356863 0.431373 0.882353
7 10 2 0.356863 0.431373 0.882353
5 11 1 0.356863 0.431373 0.882353
4 11 1 0.356863 0.431373 0.882353
4 11 2 0.356863 0.431373 0.882353
5 11 2 0.356863 0.431373 0.882353
6 11 1 0.356863 0.431373 0.882353
6 11 2 0.356863 0.431373 0.882353
7 11 1 0.356863 0.431373 0.882353
7 11 2 0.356863 0.431373 0.882353
3 0 2 0.356863 0.431373 0.882353
4 0 2 0.356863 0.431373 0.882353
4 0 3 0.356863 0.431373 0.882353
3 0 3 0.356863 0.431373 0.882353
3 1 3 0.356863 0.431373 0.882353
3 1 2 0.356863 0.431373 0.882353
5 0 2 0.356863 0.431373 0.882353
5 0 3 0.356863 0.431373 0.882353
6 0 2 0.356863 0.431373 0.882353
6 0 3 0.356863 0.431373 0.882353
7 0 2 0.356863 0.431373 0.882353
7 0 3 0.356863 0.431373 0.882353
8 0 2 0.356863 0.431373 0.882353
8 0 3 0.356863 0.431373 0.882353
8 1 2 0.356863 0.431373 0.882353
8 1 3 0.356863 0.431373 0.882353
3 1 3 0.247059 0.247059 0.454902
3 2 3 0.247059 0.247059 0.454902
8 2 3 0.247059 0.247059 0.454902
8 1 3 0.247059 0.247059 0.454902
3 2 3 0.356863 0.431373 0.882353
3 3 3 0.356863 0.431373 0.882353
8 3 3 0.356863 0.431373 0.882353
8 2 3 0.356863 0.431373 0.882353
3 3 2 0.247059 0.247059 0.454902
3 3 3 0.247059 0.247059 0.454902
3 4 3 0.247059 0.247059 0.454902
3 4 2 0.247059 0.247059 0.454902
8 3 2 0.247059 0.247059 0.454902
8 4 2 0.247059 0.247059 0.454902
8 4 3 0.247059 0.247059 0.454902
8 3 3 0.247059 0.247059 0.454902
3 5 3 0.247059 0.247059 0.454902
3 5 2 0.247059 0.247059 0.454902
8 5 2 0.247059 0.247059 0.454902
8 5 3 0.247059 0.247059 0.454902
3 5 3 0.356863 0.431373 0.882353
3 6 3 0.356863 0.431373 0.882353
8 6 3 0.356863 0.431373 0.882353
8 5 3 0.356863 0.431373 0.882353
3 6 2 0.247059 0.247059 0.454902
3 6 3 0.247059 0.247059 0.454902
3 7 3 0.247059 0.247059 0.454902
8 6 2 0.247059 0.247059 0.454902
8 7 3 0.247059 0.247059 0.454902
8 6 3 0.247059 0.247059 0.454902
3 7 3 0.356863 0.431373 0.882353
3 8 3 0.356863 0.431373 0.882353
8 8 3 0.356863 0.431373 0.882353
8 7 3 0.356863 0.431373 0.882353
4 9 2 0.247059 0.247059 0.454902
3 9 2 0.247059 0.247059 0.454902
3 9 3 0.247059 0.247059 0.454902
4 9 3 0.247059 0.247059 0.454902
3 8 3 0.247059 0.247059 0.454902
4 9 3 0.356863 0.431373 0.882353
5 9 3 0.356863 0.431373 0.882353
6 9 3 0.356863 0.431373 0.882353
7 9 3 0.356863 0.431373 0.882353
8 9 2 0.247059 0.247059 0.454902
7 9 2 0.247059 0.247059 0.454902
7 9 3 0.247059 0.247059 0.454902
8 9 3 0.247059 0.247059 0.454902
8 8 3 0.247059 0.247059 0.454902
5 10 3 0.356863 0.431373 0.882353
4 10 3 0.356863 0.431373 0.882353
4 11 3 0.356863 0.431373 0.882353
5 11 3 0.356863 0.431373 0.882353
6 10 3 0.356863 0.431373 0.882353
6 11 3 0.356863 0.431373 0.882353
7 10 3 0.356863 0.431373 0.882353
7 11 3 0.356863 0.431373 0.882353
4 0 4 0.356863 0.431373 0.882353
3 0 4 0.356863 0.431373 0.882353
3 1 4 0.356863 0.431373 0.882353
5 0 4 0.356863 0.431373 0.882353
6 0 4 0.356863 0.431373 0.882353
7 0 4 0.356863 0.431373 0.882353
8 0 4 0.356863 0.431373 0.882353
8 1 4 0.356863 0.431373 0.882353
3 2 4 0.356863 0.431373 0.882353
8 2 4 0.356863 0.431373 0.882353
3 3 4 0.356863 0.431373 0.882353
8 3 4 0.356863 0.431373 0.882353
3 3 4 0.247059 0.247059 0.454902
3 4 4 0.247059 0.247059 0.454902
8 4 4 0.247059 0.247059 0.454902
8 3 4 0.247059 0.247059 0.454902
3 4 3 0.796078 0.858824 0.988235
3 4 4 0.796078 0.858824 0.988235
3 5 4 0.796078 0.858824 0.988235
3 5 3 0.796078 0.858824 0.988235
8 4 3 0.796078 0.858824 0.988235
8 5 3 0.796078 0.858824 0.988235
8 5 4 0.796078 0.858824 0.988235
8 4 4 0.796078 0.858824 0.988235
3 5 4 0.356863 0.431373 0.882353
3 6 4 0.356863 0.431373 0.882353
8 6 4 0.356863 0.431373 0.882353
8 5 4 0.356863 0.431373 0.882353
3 7 4 0.356863 0.431373 0.882353
8 7 4 0.356863 0.431373 0.882353
3 8 4 0.356863 0.431373 0.882353
8 8 4 0.356863 0.431373 0.882353
3 9 3 0.356863 0.431373 0.882353
3 9 4 0.356863 0.431373 0.882353
4 9 4 0.356863 0.431373 0.882353
5 9 4 0.356863 0.431373 0.882353
6 9 4 0.356863 0.431373 0.882353
7 9 4 0.356863 0.431373 0.882353
8 9 3 0.356863 0.431373 0.882353
8 9 4 0.356863 0.431373 0.882353
4 0 5 0.356863 0.431373 0.882353
3 0 5 0.356863 0.431373 0.882353
4 1 5 0.356863 0.431373 0.882353
3 1 5 0.356863 0.431373 0.882353
5 0 5 0.356863 0.431373 0.882353
5 1 5 0.356863 0.431373 0.882353
6 0 5 0.356863 0.431373 0.882353
6 1 5 0.356863 0.431373 0.882353
7 0 5 0.356863 0.431373 0.882353
7 1 5 0.356863 0.431373 0.882353
8 0 5 0.356863 0.431373 0.882353
8 1 5 0.356863 0.431373 0.882353
4 2 5 0.356863 0.431373 0.882353
3 2 5 0.356863 0.431373 0.882353
5 2 5 0.356863 0.431373 0.882353
6 2 5 0.356863 0.431373 0.882353
7 2 5 0.356863 0.431373 0.882353
8 2 5 0.356863 0.431373 0.882353
4 3 5 0.356863 0.431373 0.882353
3 3 5 0.356863 0.431373 0.882353
5 3 5 0.356863 0.431373 0.882353
6 3 5 0.356863 0.431373 0.882353
7 3 5 0.356863 0.431373 0.882353
8 3 5 0.356863 0.431373 0.882353
4 4 5 0.356863 0.431373 0.882353
3 4 5 0.356863 0.431373 0.882353
3 4 4 0.356863 0.431373 0.882353
5 4 5 0.356863 0.431373 0.882353
6 4 5 0.356863 0.431373 0.882353
7 4 5 0.356863 0.431373 0.882353
8 4 5 0.356863 0.431373 0.882353
8 4 4 0.356863 0.431373 0.882353
4 5 5 0.356863 0.431373 0.882353
3 5 5 0.356863 0.431373 0.882353
5 5 5 0.356863 0.431373 0.882353
6 5 5 0.356863 0.431373 0.882353
7 5 5 0.356863 0.431373 0.882353
8 5 5 0.356863 0.431373 0.882353
4 6 5 0.356863 0.431373 0.882353
3 6 5 0.356863 0.431373 0.882353
5 6 5 0.356863 0.431373 0.882353
6 6 5 0.356863 0.431373 0.882353
7 6 5 0.356863 0.431373 0.882353
8 6 5 0.356863 0.431373 0.882353
4 7 5 0.356863 0.431373 0.882353
3 7 5 0.356863 0.431373 0.882353
5 7 5 0.356863 0.431373 0.882353
6 7 5 0.356863 0.431373 0.882353
7 7 5 0.356863 0.431373 0.882353
8 7 5 0.356863 0.431373 0.882353
4 8 5 0.356863 0.431373 0.882353
3 8 5 0.356863 0.431373 0.882353
5 8 5 0.356863 0.431373 0.882353
6 8 5 0.356863 0.431373 0.882353
7 8 5 0.356863 0.431373 0.882353
8 8 5 0.356863 0.431373 0.882353
3 9 5 0.356863 0.431373 0.882353
4 9 5 0.356863 0.431373 0.882353
5 9 5 0.356863 0.431373 0.882353
6 9 5 0.356863 0.431373 0.882353
7 9 5 0.356863 0.431373 0.882353
8 9 5 0.356863 0.431373 0.882353
4 0 1 2 3
4 0 4 5 1
4 0 3 6 4
4 1 7 8 2
4 1 5 9 7
4 7 10 11 8
4 7 9 12 10
4 10 13 14 11
4 10 12 15 13
4 13 16 17 14
4 13 15 18 16
4 16 18 19 17
4 4 20 21 5
4 4 6 22 20
4 5 21 23 9
4 9 23 24 12
4 12 24 25 15
4 15 25 26 18
4 18 26 27 19
4 28 29 30 31
4 28 32 33 29
4 31 30 34 35
4 35 34 36 37
4 37 36 38 39
4 39 38 40 41
4 41 40 42 43
4 29 44 45 30
4 29 33 46 44
4 30 45 47 34
4 34 47 48 36
4 36 48 49 38
4 38 49 50 40
4 40 50 51 42
4 44 52 53 45
4 44 46 54 52
4 45 53 55 47
4 47 55 56 48
4 48 56 57 49
4 49 57 58 50
4 50 58 59 51
4 52 60 61 53
4 52 54 62 60
4 53 61 63 55
4 55 63 64 56
4 56 64 65 57
4 57 65 66 58
4 58 66 67 59
4 68 69 70 71
4 68 72 73 69
4 61 74 75 63
4 63 75 76 64
4 64 76 77 65
4 78 79 80 81
4 81 80 82 83
4 84 85 86 74
4 84 87 88 85
4 74 86 89 75
4 75 89 90 76
4 76 90 91 77
4 77 91 92 93
4 93 92 94 95
4 96 97 98 99
4 85 97 96 86
4 85 88 98 97
4 100 96 99 101
4 86 96 100 89
4 102 100 101 103
4 89 100 102 90
4 104 102 103 105
4 90 102 104 91
4 106 104 105 107
4 91 104 106 92
4 92 106 107 94
4 108 109 110 111
4 108 111 112 113
4 109 114 115 110
4 114 116 117 115
4 116 118 119 117
4 118 120 121 119
4 120 122 123 121
4 113 112 124 125
4 122 126 127 123
4 32 128 129 33
4 43 42 130 131
4 33 129 132 46
4 42 51 133 130
4 46 132 134 54
4 51 59 135 133
4 54 134 136 62
4 59 67 137 135
4 62 136 138 87
4 67 95 139 137
4 73 140 141 142
4 82 143 144 145
4 99 98 146 147
4 88 148 146 98
4 107 105 149 150
4 94 107 150 151
4 99 152 153 101
4 154 155 156 147
4 99 147 156 152
4 101 153 157 103
4 158 159 155 154
4 103 157 160 105
4 149 161 159 158
4 105 160 161 149
4 162 163 164 165
4 152 163 162 153
4 152 156 164 163
4 166 162 165 167
4 153 162 166 157
4 168 166 167 169
4 157 166 168 160
4 160 168 169 161
4 170 171 172 173
4 170 173 174 175
4 171 176 177 172
4 176 178 179 177
4 178 180 181 179
4 180 182 183 181
4 182 184 185 183
4 112 186 187 124
4 123 127 188 189
4 128 190 191 129
4 131 130 192 193
4 194 195 196 197
4 198 199 200 201
4 197 196 202 203
4 199 204 205 200
4 134 206 207 136
4 135 137 208 209
4 210 211 212 140
4 213 145 214 215
4 138 216 217 148
4 139 151 218 219
4 220 221 222 223
4 141 224 222 221
4 154 147 225 226
4 158 154 226 227
4 149 158 227 228
4 229 230 231 232
4 144 229 232 233
4 156 155 234 235
4 165 164 236 237
4 234 237 236 235
4 156 235 236 164
4 155 159 238 234
4 167 165 237 239
4 238 239 237 234
4 159 161 240 238
4 169 167 239 241
4 240 241 239 238
4 161 169 241 240
4 173 172 242 243
4 173 243 244 174
4 172 177 245 242
4 177 179 246 245
4 179 181 247 246
4 181 183 248 247
4 183 185 249 248
4 174 244 250 190
4 185 193 251 249
4 190 250 252 191
4 193 192 253 251
4 195 254 255 196
4 201 200 256 257
4 258 259 260 261
4 262 263 264 265
4 206 266 267 207
4 209 208 268 269
4 207 267 270 216
4 208 219 271 268
4 216 270 272 217
4 219 218 273 271
4 225 274 275 276
4 217 272 275 274
4 226 225 276 277
4 227 226 277 278
4 228 227 278 279
4 280 228 279 281
4 218 280 281 273
4 243 242 282 283
4 282 284 285 283
4 243 283 285 244
4 242 245 286 282
4 286 287 284 282
4 245 246 288 286
4 288 289 287 286
4 246 247 290 288
4 290 291 289 288
4 247 248 292 290
4 292 293 291 290
4 248 249 293 292
4 284 294 295 285
4 244 285 295 250
4 287 296 294 284
4 289 297 296 287
4 291 298 297 289
4 293 299 298 291
4 249 251 299 293
4 294 300 301 295
4 250 295 301 252
4 296 302 300 294
4 297 303 302 296
4 298 304 303 297
4 299 305 304 298
4 251 253 305 299
4 300 306 307 301
4 252 301 307 308
4 302 309 306 300
4 303 310 309 302
4 304 311 310 303
4 305 312 311 304
4 253 313 312 305
4 306 314 315 307
4 308 307 315 266
4 309 316 314 306
4 310 317 316 309
4 311 318 317 310
4 312 319 318 311
4 313 269 319 312
4 314 320 321 315
4 266 315 321 267
4 316 322 320 314
4 317 323 322 316
4 318 324 323 317
4 319 325 324 318
4 269 268 325 319
4 320 326 327 321
4 267 321 327 270
4 322 328 326 320
4 323 329 328 322
4 324 330 329 323
4 325 331 330 324
4 268 271 331 325
4 326 332 333 327
4 270 327 333 272
4 328 334 332 326
4 329 335 334 328
4 330 336 335 329
4 331 337 336 330
4 271 273 337 331
4 276 275 338 339
4 332 339 338 333
4 272 333 338 275
4 277 276 339 340
4 334 340 339 332
4 278 277 340 341
4 335 341 340 334
4 279 278 341 342
4 336 342 341 335
4 281 279 342 343
4 337 343 342 336
4 273 281 343 337
