ply
format ascii 1.0
comment Generated from Goxel 0.10.6
element vertex 234
property float x
property float y
property float z
property float red
property float green
property float blue
element face 204
property list uchar int vertex_indices
end_header
4 4 0 0.874510 0.443137 0.149020
5 4 0 0.874510 0.443137 0.149020
5 4 1 0.874510 0.443137 0.149020
4 4 1 0.874510 0.443137 0.149020
4 5 0 0.874510 0.443137 0.149020
5 5 0 0.874510 0.443137 0.149020
5 5 1 0.874510 0.443137 0.149020
4 5 1 0.874510 0.443137 0.149020
6 4 0 0.874510 0.443137 0.149020
7 4 0 0.874510 0.443137 0.149020
7 4 1 0.874510 0.443137 0.149020
6 4 1 0.874510 0.443137 0.149020
6 5 0 0.874510 0.443137 0.149020
7 5 0 0.874510 0.443137 0.149020
7 5 1 0.874510 0.443137 0.149020
6 5 1 0.874510 0.443137 0.149020
4 6 0 0.874510 0.443137 0.149020
5 6 0 0.874510 0.443137 0.149020
5 6 1 0.874510 0.443137 0.149020
4 6 1 0.874510 0.443137 0.149020
6 6 0 0.874510 0.443137 0.149020
7 6 0 0.874510 0.443137 0.149020
7 6 1 0.874510 0.443137 0.149020
6 6 1 0.874510 0.443137 0.149020
5 7 0 0.874510 0.443137 0.149020
4 7 0 0.874510 0.443137 0.149020
4 7 1 0.874510 0.443137 0.149020
5 7 1 0.874510 0.443137 0.149020
7 7 0 0.874510 0.443137 0.149020
6 7 0 0.874510 0.443137 0.149020
6 7 1 0.874510 0.443137 0.149020
7 7 1 0.874510 0.443137 0.149020
5 6 2 0.874510 0.443137 0.149020
4 6 2 0.874510 0.443137 0.149020
4 7 2 0.874510 0.443137 0.149020
5 7 2 0.874510 0.443137 0.149020
7 6 2 0.874510 0.443137 0.149020
6 6 2 0.874510 0.443137 0.149020
6 7 2 0.874510 0.443137 0.149020
7 7 2 0.874510 0.443137 0.149020
4 3 2 0.984314 0.949020 0.211765
5 3 2 0.984314 0.949020 0.211765
5 3 3 0.984314 0.949020 0.211765
4 3 3 0.984314 0.949020 0.211765
4 4 2 0.984314 0.949020 0.211765
5 4 2 0.984314 0.949020 0.211765
4 4 3 0.984314 0.949020 0.211765
6 3 2 0.984314 0.949020 0.211765
6 3 3 0.984314 0.949020 0.211765
6 4 2 0.984314 0.949020 0.211765
7 3 2 0.984314 0.949020 0.211765
7 3 3 0.984314 0.949020 0.211765
7 4 2 0.984314 0.949020 0.211765
7 4 3 0.984314 0.949020 0.211765
3 4 2 0.984314 0.949020 0.211765
3 4 3 0.984314 0.949020 0.211765
3 5 2 0.984314 0.949020 0.211765
4 5 2 0.984314 0.949020 0.211765
4 5 3 0.984314 0.949020 0.211765
3 5 3 0.984314 0.949020 0.211765
5 5 2 0.984314 0.949020 0.211765
6 5 2 0.984314 0.949020 0.211765
7 5 2 0.984314 0.949020 0.211765
8 4 2 0.984314 0.949020 0.211765
8 4 3 0.984314 0.949020 0.211765
8 5 2 0.984314 0.949020 0.211765
8 5 3 0.984314 0.949020 0.211765
7 5 3 0.984314 0.949020 0.211765
3 6 2 0.984314 0.949020 0.211765
4 6 2 0.984314 0.949020 0.211765
4 6 3 0.984314 0.949020 0.211765
3 6 3 0.984314 0.949020 0.211765
5 6 2 0.984314 0.949020 0.211765
6 6 2 0.984314 0.949020 0.211765
7 6 2 0.984314 0.949020 0.211765
8 6 2 0.984314 0.949020 0.211765
8 6 3 0.984314 0.949020 0.211765
7 6 3 0.984314 0.949020 0.211765
4 7 2 0.984314 0.949020 0.211765
3 7 2 0.984314 0.949020 0.211765
3 7 3 0.984314 0.949020 0.211765
4 7 3 0.984314 0.949020 0.211765
5 7 2 0.984314 0.949020 0.211765
6 7 2 0.984314 0.949020 0.211765
8 7 2 0.984314 0.949020 0.211765
7 7 2 0.984314 0.949020 0.211765
7 7 3 0.984314 0.949020 0.211765
8 7 3 0.984314 0.949020 0.211765
5 8 2 0.984314 0.949020 0.211765
4 8 2 0.984314 0.949020 0.211765
4 8 3 0.984314 0.949020 0.211765
5 8 3 0.984314 0.949020 0.211765
6 8 2 0.984314 0.949020 0.211765
7 8 2 0.984314 0.949020 0.211765
6 8 3 0.984314 0.949020 0.211765
7 8 3 0.984314 0.949020 0.211765
6 9 2 0.984314 0.949020 0.211765
5 9 2 0.984314 0.949020 0.211765
5 9 3 0.984314 0.949020 0.211765
6 9 3 0.984314 0.949020 0.211765
5 3 4 0.984314 0.949020 0.211765
4 3 4 0.984314 0.949020 0.211765
4 4 4 0.984314 0.949020 0.211765
6 3 4 0.984314 0.949020 0.211765
7 3 4 0.984314 0.949020 0.211765
7 4 4 0.984314 0.949020 0.211765
4 5 4 0.984314 0.949020 0.211765
7 5 4 0.984314 0.949020 0.211765
4 6 4 0.984314 0.949020 0.211765
7 6 4 0.984314 0.949020 0.211765
3 6 4 0.984314 0.949020 0.211765
3 7 4 0.984314 0.949020 0.211765
4 7 4 0.984314 0.949020 0.211765
8 6 4 0.984314 0.949020 0.211765
7 7 4 0.984314 0.949020 0.211765
8 7 4 0.984314 0.949020 0.211765
4 8 4 0.984314 0.949020 0.211765
5 8 4 0.984314 0.949020 0.211765
5 7 4 0.984314 0.949020 0.211765
6 8 4 0.984314 0.949020 0.211765
7 8 4 0.984314 0.949020 0.211765
6 7 4 0.984314 0.949020 0.211765
5 3 5 0.984314 0.949020 0.211765
4 3 5 0.984314 0.949020 0.211765
4 4 5 0.984314 0.949020 0.211765
6 3 5 0.984314 0.949020 0.211765
7 3 5 0.984314 0.949020 0.211765
7 4 5 0.984314 0.949020 0.211765
4 5 5 0.984314 0.949020 0.211765
7 5 5 0.984314 0.949020 0.211765
4 6 5 0.984314 0.949020 0.211765
7 6 5 0.984314 0.949020 0.211765
4 7 5 0.984314 0.949020 0.211765
5 7 5 0.984314 0.949020 0.211765
5 6 5 0.984314 0.949020 0.211765
6 7 5 0.984314 0.949020 0.211765
7 7 5 0.984314 0.949020 0.211765
6 6 5 0.984314 0.949020 0.211765
5 8 5 0.984314 0.949020 0.211765
6 8 5 0.984314 0.949020 0.211765
5 1 5 0.874510 0.443137 0.149020
6 1 5 0.874510 0.443137 0.149020
6 1 6 0.874510 0.443137 0.149020
5 1 6 0.874510 0.443137 0.149020
5 2 5 0.874510 0.443137 0.149020
6 2 5 0.874510 0.443137 0.149020
6 2 6 0.874510 0.443137 0.149020
5 2 6 0.874510 0.443137 0.149020
4 2 5 0.984314 0.949020 0.211765
5 2 5 0.984314 0.949020 0.211765
5 2 6 0.984314 0.949020 0.211765
4 2 6 0.984314 0.949020 0.211765
4 3 6 0.984314 0.949020 0.211765
6 2 5 0.984314 0.949020 0.211765
7 2 5 0.984314 0.949020 0.211765
7 2 6 0.984314 0.949020 0.211765
6 2 6 0.984314 0.949020 0.211765
7 3 6 0.984314 0.949020 0.211765
4 4 6 0.984314 0.949020 0.211765
7 4 6 0.984314 0.949020 0.211765
4 5 6 0.984314 0.949020 0.211765
7 5 6 0.984314 0.949020 0.211765
4 6 6 0.984314 0.949020 0.211765
5 6 6 0.984314 0.949020 0.211765
5 5 6 0.984314 0.949020 0.211765
6 5 6 0.984314 0.949020 0.211765
6 6 6 0.984314 0.949020 0.211765
7 6 6 0.984314 0.949020 0.211765
5 7 6 0.984314 0.949020 0.211765
6 7 6 0.984314 0.949020 0.211765
5 2 7 0.984314 0.949020 0.211765
4 2 7 0.984314 0.949020 0.211765
4 3 7 0.984314 0.949020 0.211765
6 2 7 0.984314 0.949020 0.211765
7 2 7 0.984314 0.949020 0.211765
7 3 7 0.984314 0.949020 0.211765
4 4 7 0.984314 0.949020 0.211765
7 4 7 0.984314 0.949020 0.211765
4 5 7 0.984314 0.949020 0.211765
5 5 7 0.984314 0.949020 0.211765
6 5 7 0.984314 0.949020 0.211765
7 5 7 0.984314 0.949020 0.211765
4 1 7 0.000000 0.000000 0.000000
5 1 7 0.000000 0.000000 0.000000
5 1 8 0.000000 0.000000 0.000000
4 1 8 0.000000 0.000000 0.000000
4 2 7 0.000000 0.000000 0.000000
5 2 7 0.000000 0.000000 0.000000
5 2 8 0.000000 0.000000 0.000000
4 2 8 0.000000 0.000000 0.000000
6 1 7 0.000000 0.000000 0.000000
7 1 7 0.000000 0.000000 0.000000
7 1 8 0.000000 0.000000 0.000000
6 1 8 0.000000 0.000000 0.000000
6 2 7 0.000000 0.000000 0.000000
7 2 7 0.000000 0.000000 0.000000
7 2 8 0.000000 0.000000 0.000000
6 2 8 0.000000 0.000000 0.000000
5 2 8 0.984314 0.949020 0.211765
5 3 8 0.984314 0.949020 0.211765
4 3 8 0.984314 0.949020 0.211765
4 2 8 0.984314 0.949020 0.211765
6 2 8 0.984314 0.949020 0.211765
7 2 8 0.984314 0.949020 0.211765
7 3 8 0.984314 0.949020 0.211765
6 3 8 0.984314 0.949020 0.211765
5 4 8 0.984314 0.949020 0.211765
4 4 8 0.984314 0.949020 0.211765
7 4 8 0.984314 0.949020 0.211765
6 4 8 0.984314 0.949020 0.211765
4 5 8 0.984314 0.949020 0.211765
5 5 8 0.984314 0.949020 0.211765
6 5 8 0.984314 0.949020 0.211765
7 5 8 0.984314 0.949020 0.211765
5 2 8 0.874510 0.443137 0.149020
6 2 8 0.874510 0.443137 0.149020
6 2 9 0.874510 0.443137 0.149020
5 2 9 0.874510 0.443137 0.149020
6 3 9 0.874510 0.443137 0.149020
5 3 9 0.874510 0.443137 0.149020
6 3 8 0.874510 0.443137 0.149020
5 3 8 0.874510 0.443137 0.149020
6 4 8 0.874510 0.443137 0.149020
6 4 9 0.874510 0.443137 0.149020
5 4 9 0.874510 0.443137 0.149020
5 4 8 0.874510 0.443137 0.149020
6 5 8 0.874510 0.443137 0.149020
5 5 8 0.874510 0.443137 0.149020
5 5 9 0.874510 0.443137 0.149020
6 5 9 0.874510 0.443137 0.149020
6 3 10 0.874510 0.443137 0.149020
5 3 10 0.874510 0.443137 0.149020
5 4 10 0.874510 0.443137 0.149020
6 4 10 0.874510 0.443137 0.149020
4 0 1 2 3
4 0 4 5 1
4 2 6 7 3
4 1 5 6 2
4 0 3 7 4
4 8 9 10 11
4 8 12 13 9
4 10 14 15 11
4 9 13 14 10
4 8 11 15 12
4 4 16 17 5
4 6 18 19 7
4 5 17 18 6
4 4 7 19 16
4 12 20 21 13
4 14 22 23 15
4 13 21 22 14
4 12 15 23 20
4 24 25 26 27
4 16 25 24 17
4 17 24 27 18
4 16 19 26 25
4 28 29 30 31
4 20 29 28 21
4 21 28 31 22
4 20 23 30 29
4 19 18 32 33
4 27 26 34 35
4 18 27 35 32
4 19 33 34 26
4 23 22 36 37
4 31 30 38 39
4 22 31 39 36
4 23 37 38 30
4 40 41 42 43
4 40 44 45 41
4 40 43 46 44
4 41 47 48 42
4 41 45 49 47
4 47 50 51 48
4 47 49 52 50
4 50 52 53 51
4 54 44 46 55
4 54 56 57 44
4 46 58 59 55
4 54 55 59 56
4 44 57 60 45
4 45 60 61 49
4 49 61 62 52
4 52 63 64 53
4 52 62 65 63
4 64 66 67 53
4 63 65 66 64
4 56 68 69 57
4 58 70 71 59
4 56 59 71 68
4 57 69 72 60
4 60 72 73 61
4 61 73 74 62
4 62 74 75 65
4 66 76 77 67
4 65 75 76 66
4 78 79 80 81
4 68 79 78 69
4 68 71 80 79
4 72 82 83 73
4 84 85 86 87
4 74 85 84 75
4 75 84 87 76
4 88 89 90 91
4 78 89 88 82
4 78 81 90 89
4 82 88 92 83
4 93 92 94 95
4 83 92 93 85
4 85 93 95 86
4 96 97 98 99
4 88 97 96 92
4 94 99 98 91
4 92 96 99 94
4 88 91 98 97
4 43 42 100 101
4 43 101 102 46
4 42 48 103 100
4 48 51 104 103
4 51 53 105 104
4 46 102 106 58
4 53 67 107 105
4 58 106 108 70
4 67 77 109 107
4 71 70 108 110
4 81 80 111 112
4 108 112 111 110
4 71 110 111 80
4 77 76 113 109
4 87 86 114 115
4 113 115 114 109
4 76 87 115 113
4 91 90 116 117
4 118 117 116 112
4 81 112 116 90
4 94 91 117 119
4 95 94 119 120
4 114 120 119 121
4 86 95 120 114
4 101 100 122 123
4 101 123 124 102
4 100 103 125 122
4 103 104 126 125
4 104 105 127 126
4 102 124 128 106
4 105 107 129 127
4 106 128 130 108
4 107 109 131 129
4 118 112 132 133
4 134 133 132 130
4 108 130 132 112
4 114 121 135 136
4 131 136 135 137
4 109 114 136 131
4 119 117 138 139
4 135 139 138 133
4 121 119 139 135
4 118 133 138 117
4 140 141 142 143
4 140 144 145 141
4 142 146 147 143
4 141 145 146 142
4 140 143 147 144
4 148 149 150 151
4 148 123 122 149
4 148 151 152 123
4 149 122 125 153
4 153 154 155 156
4 153 125 126 154
4 154 126 157 155
4 123 152 158 124
4 126 127 159 157
4 124 158 160 128
4 127 129 161 159
4 134 130 162 163
4 164 163 162 160
4 128 160 162 130
4 165 166 163 164
4 131 137 166 167
4 161 167 166 165
4 129 131 167 161
4 135 133 168 169
4 166 169 168 163
4 137 135 169 166
4 134 163 168 133
4 151 150 170 171
4 151 171 172 152
4 150 156 173 170
4 156 155 174 173
4 155 157 175 174
4 152 172 176 158
4 157 159 177 175
4 164 160 178 179
4 158 176 178 160
4 165 164 179 180
4 161 165 180 181
4 159 161 181 177
4 182 183 184 185
4 182 186 187 183
4 184 188 189 185
4 183 187 188 184
4 182 185 189 186
4 190 191 192 193
4 190 194 195 191
4 192 196 197 193
4 191 195 196 192
4 190 193 197 194
4 198 199 200 201
4 171 201 200 172
4 170 173 202 198
4 203 204 205 202
4 174 175 204 203
4 199 206 207 200
4 172 200 207 176
4 204 208 209 205
4 175 177 208 204
4 179 178 210 211
4 206 211 210 207
4 176 207 210 178
4 180 179 211 212
4 181 180 212 213
4 208 213 212 209
4 177 181 213 208
4 214 215 216 217
4 216 218 219 217
4 215 220 218 216
4 214 217 219 221
4 220 222 223 218
4 221 219 224 225
4 226 227 228 229
4 223 229 228 224
4 222 226 229 223
4 225 224 228 227
4 219 218 230 231
4 223 224 232 233
4 230 233 232 231
4 218 223 233 230
4 219 231 232 224
